{"glyphs":{"0":{"ha":792,"x_min":67,"x_max":726,"o":"m 726 508 q 641 117 726 250 q 396 -15 556 -15 q 152 118 238 -15 q 67 508 67 251 q 152 901 67 767 q 396 1035 238 1035 q 641 901 556 1035 q 726 508 726 768 m 199 508 q 247 200 199 301 q 396 99 294 99 q 546 199 497 99 q 594 508 594 300 q 546 820 594 718 q 396 922 497 922 q 247 820 294 922 q 199 508 199 718 z "},"1":{"ha":792,"x_min":138,"x_max":528,"o":"m 138 718 l 138 846 l 433 1018 l 528 1018 l 528 0 l 403 0 l 403 869 l 138 718 z "},"2":{"ha":792,"x_min":69,"x_max":718,"o":"m 258 110 l 718 110 l 718 0 l 69 0 l 69 79 l 399 446 q 526 608 492 549 q 561 736 561 667 q 513 874 561 825 q 390 922 464 922 q 258 872 315 922 q 176 738 201 821 l 76 794 q 197 972 107 908 q 399 1035 288 1035 q 546 1001 479 1035 q 652 901 613 967 q 692 742 692 835 q 647 571 692 651 q 492 368 603 490 l 258 110 z "},"3":{"ha":792,"x_min":64,"x_max":718,"o":"m 536 543 q 673 449 628 514 q 718 288 718 383 q 674 124 718 193 q 556 20 629 56 q 394 -15 482 -15 q 190 42 283 -15 q 64 208 96 99 l 164 265 q 255 140 190 182 q 394 97 319 97 q 531 148 476 97 q 586 289 586 199 q 332 475 586 475 l 289 475 l 290 586 l 339 586 q 495 636 442 586 q 549 764 549 686 q 503 879 549 838 q 385 921 457 921 q 258 876 310 921 q 178 749 206 832 l 78 806 q 195 976 111 918 q 392 1033 279 1033 q 601 960 522 1033 q 681 767 681 886 q 645 632 681 690 q 536 543 610 574 z "},"4":{"ha":792,"x_min":51,"x_max":771,"o":"m 625 617 l 625 332 l 771 332 l 771 225 l 625 225 l 625 0 l 501 0 l 501 225 l 51 225 l 51 311 l 433 1018 l 568 1018 l 196 332 l 501 332 l 501 617 l 625 617 z "},"5":{"ha":792,"x_min":96,"x_max":713,"o":"m 403 649 q 564 606 493 649 q 674 490 635 564 q 713 321 713 415 q 669 146 713 222 q 551 27 626 69 q 385 -15 476 -15 q 205 35 283 -15 q 96 183 126 86 l 196 240 q 269 133 221 169 q 385 97 317 97 q 529 158 476 97 q 582 315 582 219 q 531 472 582 408 q 385 536 481 536 q 196 426 264 536 l 117 467 l 186 1019 l 667 1019 l 667 911 l 294 911 l 254 610 q 403 649 315 649 z "},"6":{"ha":792,"x_min":76,"x_max":735,"o":"m 424 633 q 585 590 514 633 q 695 474 656 547 q 735 311 735 400 q 692 144 735 219 q 574 27 650 69 q 406 -15 499 -15 q 235 26 310 -15 q 118 143 160 68 q 76 314 76 218 q 103 452 76 389 q 193 618 131 515 l 436 1018 l 576 1018 l 367 676 q 328 619 347 646 q 424 633 371 633 m 406 97 q 548 156 494 97 q 601 307 601 214 q 549 460 601 401 q 406 519 496 519 q 262 460 315 519 q 208 307 208 401 q 262 155 208 213 q 406 97 315 97 z "},"7":{"ha":792,"x_min":78,"x_max":711,"o":"m 571 911 l 78 911 l 78 1018 l 711 1018 l 711 942 l 331 0 l 194 0 l 571 911 z "},"8":{"ha":792,"x_min":67,"x_max":725,"o":"m 556 553 q 680 447 635 517 q 725 288 725 378 q 684 133 725 201 q 569 24 643 64 q 399 -15 494 -15 q 225 24 300 -15 q 108 132 150 63 q 67 288 67 201 q 112 447 67 378 q 238 553 157 517 q 138 642 174 586 q 101 769 101 699 q 139 903 101 842 q 244 999 176 964 q 399 1035 313 1035 q 549 999 483 1035 q 651 903 615 964 q 688 769 688 843 q 653 642 688 699 q 556 553 618 586 m 399 926 q 276 882 321 926 q 231 765 231 838 q 276 650 231 694 q 399 606 321 606 q 519 651 475 606 q 564 765 564 696 q 519 881 564 836 q 399 926 475 926 m 399 96 q 542 149 488 96 q 596 292 596 201 q 543 438 596 383 q 399 492 490 492 q 252 438 306 492 q 199 292 199 383 q 253 148 199 200 q 399 96 307 96 z "},"9":{"ha":792,"x_min":60,"x_max":718,"o":"m 389 1035 q 560 993 485 1035 q 676 876 635 951 q 718 706 718 801 q 691 567 718 631 q 601 401 664 504 l 358 1 l 218 1 l 428 343 q 467 400 447 374 q 371 386 424 386 q 210 429 281 386 q 99 546 139 472 q 60 708 60 619 q 102 875 60 800 q 220 992 144 950 q 389 1035 296 1035 m 389 500 q 533 559 479 500 q 586 713 586 618 q 533 865 586 807 q 389 922 479 922 q 247 864 300 922 q 193 713 193 806 q 246 559 193 618 q 389 500 299 500 z "},"\u0000":{"ha":833,"x_min":0,"x_max":0,"o":""}," ":{"ha":375,"x_min":0,"x_max":0,"o":""},"A":{"ha":922,"x_min":10,"x_max":913,"o":"m 504 1017 l 913 0 l 775 0 l 663 292 l 242 292 l 135 0 l 10 0 l 400 1017 l 504 1017 m 619 403 l 447 851 l 283 403 l 619 403 z "},"Á":{"ha":922,"x_min":10,"x_max":913,"o":"m 422 1126 l 536 1289 l 667 1289 l 526 1126 l 422 1126 m 504 1017 l 913 0 l 775 0 l 663 292 l 242 292 l 135 0 l 10 0 l 400 1017 l 504 1017 m 619 403 l 447 851 l 283 403 l 619 403 z "},"Ă":{"ha":922,"x_min":10,"x_max":913,"o":"m 465 1126 q 310 1169 367 1126 q 254 1289 254 1213 l 363 1289 q 392 1220 365 1244 q 465 1196 418 1196 q 540 1220 514 1196 q 569 1289 567 1244 l 678 1289 q 622 1169 678 1213 q 465 1126 565 1126 m 504 1017 l 913 0 l 775 0 l 663 292 l 242 292 l 135 0 l 10 0 l 400 1017 l 504 1017 m 619 403 l 447 851 l 283 403 l 619 403 z "},"Ắ":{"ha":922,"x_min":10,"x_max":913,"o":"m 422 1206 l 536 1289 l 667 1289 l 526 1206 l 422 1206 m 465 1099 q 310 1122 367 1099 q 254 1183 254 1144 l 363 1183 q 465 1149 369 1149 q 569 1183 563 1149 l 678 1183 q 622 1121 678 1143 q 465 1099 565 1099 m 504 1017 l 913 0 l 775 0 l 663 292 l 242 292 l 135 0 l 10 0 l 400 1017 l 504 1017 m 619 403 l 447 851 l 283 403 l 619 403 z "},"Ặ":{"ha":922,"x_min":10,"x_max":913,"o":"m 465 1126 q 310 1169 367 1126 q 254 1289 254 1213 l 363 1289 q 392 1221 365 1244 q 465 1197 418 1197 q 569 1289 563 1197 l 678 1289 q 622 1169 678 1213 q 465 1126 565 1126 m 504 1017 l 913 0 l 775 0 l 663 292 l 242 292 l 135 0 l 10 0 l 400 1017 l 504 1017 m 619 403 l 447 851 l 283 403 l 619 403 m 468 -261 q 413 -237 436 -261 q 390 -181 390 -212 q 413 -124 390 -149 q 468 -100 436 -100 q 524 -124 501 -100 q 547 -181 547 -147 q 524 -237 547 -212 q 468 -261 500 -261 z "},"Ằ":{"ha":922,"x_min":10,"x_max":913,"o":"m 264 1289 l 394 1289 l 508 1206 l 404 1206 l 264 1289 m 465 1099 q 310 1122 367 1099 q 254 1183 254 1144 l 363 1183 q 465 1149 369 1149 q 569 1183 563 1149 l 678 1183 q 622 1121 678 1143 q 465 1099 565 1099 m 504 1017 l 913 0 l 775 0 l 663 292 l 242 292 l 135 0 l 10 0 l 400 1017 l 504 1017 m 619 403 l 447 851 l 283 403 l 619 403 z "},"Ẳ":{"ha":922,"x_min":10,"x_max":913,"o":"m 340 1278 q 447 1289 388 1289 q 551 1277 510 1289 q 592 1242 592 1265 q 458 1181 592 1200 l 411 1207 q 497 1233 497 1217 q 479 1245 497 1240 q 432 1250 461 1250 q 356 1243 392 1250 l 340 1278 m 465 1099 q 310 1120 367 1099 q 254 1181 254 1142 l 363 1181 q 465 1147 369 1147 q 569 1181 564 1147 l 678 1181 q 622 1120 678 1142 q 465 1099 565 1099 m 504 1017 l 913 0 l 775 0 l 663 292 l 242 292 l 135 0 l 10 0 l 400 1017 l 504 1017 m 619 403 l 447 851 l 283 403 l 619 403 z "},"Ẵ":{"ha":922,"x_min":10,"x_max":913,"o":"m 236 1215 q 277 1269 238 1249 q 379 1289 317 1289 q 443 1284 418 1289 q 492 1269 468 1279 q 511 1263 494 1268 q 546 1258 528 1258 q 597 1282 586 1258 l 694 1282 q 653 1228 693 1249 q 551 1208 614 1208 q 488 1213 513 1208 q 439 1228 463 1218 q 419 1234 436 1229 q 385 1239 403 1239 q 333 1215 343 1239 l 236 1215 m 465 1099 q 310 1122 367 1099 q 254 1185 254 1144 l 363 1185 q 465 1150 369 1150 q 569 1185 563 1150 l 678 1185 q 622 1122 678 1144 q 465 1099 565 1099 m 504 1017 l 913 0 l 775 0 l 663 292 l 242 292 l 135 0 l 10 0 l 400 1017 l 504 1017 m 619 403 l 447 851 l 283 403 l 619 403 z "},"Ǎ":{"ha":922,"x_min":10,"x_max":913,"o":"m 364 1289 l 465 1189 l 565 1289 l 692 1289 l 522 1126 l 407 1126 l 238 1289 l 364 1289 m 504 1017 l 913 0 l 775 0 l 663 292 l 242 292 l 135 0 l 10 0 l 400 1017 l 504 1017 m 619 403 l 447 851 l 283 403 l 619 403 z "},"Â":{"ha":922,"x_min":10,"x_max":913,"o":"m 407 1289 l 522 1289 l 692 1126 l 565 1126 l 465 1226 l 364 1126 l 238 1126 l 407 1289 m 504 1017 l 913 0 l 775 0 l 663 292 l 242 292 l 135 0 l 10 0 l 400 1017 l 504 1017 m 619 403 l 447 851 l 283 403 l 619 403 z "},"Ấ":{"ha":922,"x_min":10,"x_max":913,"o":"m 574 1201 l 688 1289 l 818 1289 l 678 1201 l 574 1201 m 407 1186 l 522 1186 l 692 1099 l 550 1099 l 465 1139 l 379 1099 l 238 1099 l 407 1186 m 504 1017 l 913 0 l 775 0 l 663 292 l 242 292 l 135 0 l 10 0 l 400 1017 l 504 1017 m 619 403 l 447 851 l 283 403 l 619 403 z "},"Ậ":{"ha":922,"x_min":10,"x_max":913,"o":"m 407 1289 l 522 1289 l 692 1126 l 565 1126 l 465 1226 l 364 1126 l 238 1126 l 407 1289 m 504 1017 l 913 0 l 775 0 l 663 292 l 242 292 l 135 0 l 10 0 l 400 1017 l 504 1017 m 619 403 l 447 851 l 283 403 l 619 403 m 468 -261 q 413 -237 436 -261 q 390 -181 390 -212 q 413 -124 390 -149 q 468 -100 436 -100 q 524 -124 501 -100 q 547 -181 547 -147 q 524 -237 547 -212 q 468 -261 500 -261 z "},"Ầ":{"ha":922,"x_min":10,"x_max":913,"o":"m 415 1289 l 546 1289 l 660 1201 l 556 1201 l 415 1289 m 407 1186 l 522 1186 l 692 1099 l 550 1099 l 465 1139 l 379 1099 l 238 1099 l 407 1186 m 504 1017 l 913 0 l 775 0 l 663 292 l 242 292 l 135 0 l 10 0 l 400 1017 l 504 1017 m 619 403 l 447 851 l 283 403 l 619 403 z "},"Ẩ":{"ha":922,"x_min":10,"x_max":913,"o":"m 492 1276 q 599 1288 539 1288 q 703 1276 663 1288 q 743 1239 743 1264 q 610 1176 743 1196 l 563 1203 q 649 1231 649 1213 q 631 1243 649 1238 q 583 1249 613 1249 q 507 1240 551 1249 l 492 1276 m 407 1183 l 522 1183 l 692 1099 l 550 1099 l 465 1138 l 379 1099 l 238 1099 l 407 1183 m 504 1017 l 913 0 l 775 0 l 663 292 l 242 292 l 135 0 l 10 0 l 400 1017 l 504 1017 m 619 403 l 447 851 l 283 403 l 619 403 z "},"Ẫ":{"ha":922,"x_min":10,"x_max":913,"o":"m 236 1215 q 277 1269 238 1249 q 379 1289 317 1289 q 443 1284 418 1289 q 492 1269 468 1279 q 511 1263 494 1268 q 546 1258 528 1258 q 597 1282 586 1258 l 694 1282 q 653 1228 693 1249 q 551 1208 614 1208 q 488 1213 513 1208 q 439 1228 463 1218 q 419 1234 436 1229 q 385 1239 403 1239 q 333 1215 343 1239 l 236 1215 m 407 1185 l 522 1185 l 692 1099 l 550 1099 l 465 1138 l 379 1099 l 238 1099 l 407 1185 m 504 1017 l 913 0 l 775 0 l 663 292 l 242 292 l 135 0 l 10 0 l 400 1017 l 504 1017 m 619 403 l 447 851 l 283 403 l 619 403 z "},"Ä":{"ha":922,"x_min":10,"x_max":913,"o":"m 322 1128 q 267 1151 290 1128 q 244 1208 244 1175 q 267 1265 244 1242 q 322 1289 290 1289 q 378 1265 356 1289 q 401 1208 401 1242 q 378 1151 401 1175 q 322 1128 356 1128 m 607 1128 q 552 1151 575 1128 q 529 1208 529 1175 q 552 1265 529 1242 q 607 1289 575 1289 q 663 1265 640 1289 q 686 1208 686 1242 q 663 1151 686 1175 q 607 1128 640 1128 m 504 1017 l 913 0 l 775 0 l 663 292 l 242 292 l 135 0 l 10 0 l 400 1017 l 504 1017 m 619 403 l 447 851 l 283 403 l 619 403 z "},"Ạ":{"ha":922,"x_min":10,"x_max":913,"o":"m 504 1017 l 913 0 l 775 0 l 663 292 l 242 292 l 135 0 l 10 0 l 400 1017 l 504 1017 m 619 403 l 447 851 l 283 403 l 619 403 m 468 -261 q 413 -237 436 -261 q 390 -181 390 -212 q 413 -124 390 -149 q 468 -100 436 -100 q 524 -124 501 -100 q 547 -181 547 -147 q 524 -237 547 -212 q 468 -261 500 -261 z "},"À":{"ha":922,"x_min":10,"x_max":913,"o":"m 264 1289 l 394 1289 l 508 1126 l 404 1126 l 264 1289 m 504 1017 l 913 0 l 775 0 l 663 292 l 242 292 l 135 0 l 10 0 l 400 1017 l 504 1017 m 619 403 l 447 851 l 283 403 l 619 403 z "},"Ả":{"ha":922,"x_min":10,"x_max":913,"o":"m 340 1269 q 447 1289 386 1289 q 551 1267 511 1289 q 592 1201 592 1246 q 458 1092 592 1125 l 408 1139 q 469 1163 449 1151 q 490 1193 490 1175 q 473 1219 490 1208 q 428 1229 456 1229 q 356 1211 392 1229 l 340 1269 m 504 1017 l 913 0 l 775 0 l 663 292 l 242 292 l 135 0 l 10 0 l 400 1017 l 504 1017 m 619 403 l 447 851 l 283 403 l 619 403 z "},"Ā":{"ha":922,"x_min":10,"x_max":913,"o":"m 243 1182 l 243 1285 l 688 1285 l 688 1182 l 243 1182 m 504 1017 l 913 0 l 775 0 l 663 292 l 242 292 l 135 0 l 10 0 l 400 1017 l 504 1017 m 619 403 l 447 851 l 283 403 l 619 403 z "},"Ą":{"ha":922,"x_min":10,"x_max":989,"o":"m 989 -272 q 922 -321 963 -303 q 833 -339 882 -339 q 710 -303 761 -339 q 658 -190 658 -267 q 776 0 658 -85 l 775 0 l 663 292 l 242 292 l 135 0 l 10 0 l 400 1017 l 504 1017 l 913 0 q 797 -88 833 -47 q 760 -178 760 -129 q 782 -236 760 -218 q 839 -254 804 -254 q 943 -210 893 -254 l 989 -272 m 447 851 l 283 403 l 619 403 l 447 851 z "},"Å":{"ha":922,"x_min":10,"x_max":913,"o":"m 315 1197 q 358 1263 315 1236 q 465 1289 401 1289 q 569 1263 528 1289 q 611 1197 611 1236 q 569 1131 611 1157 q 465 1104 528 1104 q 358 1131 401 1104 q 315 1197 315 1157 m 394 1197 q 414 1163 394 1176 q 465 1150 433 1150 q 515 1163 496 1150 q 533 1197 533 1176 q 515 1231 533 1218 q 465 1243 496 1243 q 414 1231 433 1243 q 394 1197 394 1218 m 504 1017 l 913 0 l 775 0 l 663 292 l 242 292 l 135 0 l 10 0 l 400 1017 l 504 1017 m 619 403 l 447 851 l 283 403 l 619 403 z "},"Ǻ":{"ha":922,"x_min":10,"x_max":913,"o":"m 404 1214 l 518 1289 l 649 1289 l 508 1214 l 404 1214 m 331 1126 q 369 1169 331 1153 q 465 1186 408 1186 q 559 1169 522 1186 q 596 1126 596 1153 q 559 1085 596 1101 q 465 1069 522 1069 q 369 1085 407 1069 q 331 1126 331 1101 m 410 1126 q 425 1113 410 1118 q 465 1107 440 1107 q 503 1113 489 1107 q 518 1126 518 1118 q 503 1142 518 1136 q 465 1147 489 1147 q 425 1142 440 1147 q 410 1126 410 1136 m 504 1017 l 913 0 l 775 0 l 663 292 l 242 292 l 135 0 l 10 0 l 400 1017 l 504 1017 m 619 403 l 447 851 l 283 403 l 619 403 z "},"Ḁ":{"ha":922,"x_min":10,"x_max":913,"o":"m 504 1017 l 913 0 l 775 0 l 663 292 l 242 292 l 135 0 l 10 0 l 400 1017 l 504 1017 m 619 403 l 447 851 l 283 403 l 619 403 m 318 -196 q 361 -93 318 -133 q 468 -53 404 -53 q 572 -93 531 -53 q 614 -196 614 -133 q 572 -299 614 -258 q 468 -339 531 -339 q 361 -299 404 -339 q 318 -196 318 -258 m 397 -196 q 417 -248 397 -228 q 468 -268 436 -268 q 517 -248 499 -268 q 536 -196 536 -228 q 517 -144 536 -164 q 468 -124 499 -124 q 417 -144 436 -124 q 397 -196 397 -164 z "},"Ã":{"ha":922,"x_min":10,"x_max":913,"o":"m 236 1146 q 278 1249 239 1210 q 379 1289 317 1289 q 442 1277 418 1289 q 492 1243 465 1265 q 520 1222 508 1229 q 546 1215 532 1215 q 580 1232 567 1215 q 597 1274 593 1249 l 694 1274 q 653 1170 692 1210 q 551 1131 614 1131 q 489 1142 513 1131 q 439 1176 465 1154 q 410 1197 422 1190 q 385 1204 399 1204 q 333 1146 344 1204 l 236 1146 m 504 1017 l 913 0 l 775 0 l 663 292 l 242 292 l 135 0 l 10 0 l 400 1017 l 504 1017 m 619 403 l 447 851 l 283 403 l 619 403 z "},"Æ":{"ha":1401,"x_min":1,"x_max":1333,"o":"m 1265 471 l 818 471 l 818 110 l 1333 110 l 1333 0 l 694 0 l 694 300 l 328 300 l 136 0 l 1 0 l 660 1018 l 1318 1018 l 1318 908 l 818 908 l 818 581 l 1265 581 l 1265 471 m 694 411 l 694 872 l 400 411 l 694 411 z "},"Ǽ":{"ha":1401,"x_min":1,"x_max":1333,"o":"m 813 1126 l 926 1289 l 1057 1289 l 917 1126 l 813 1126 m 1265 471 l 818 471 l 818 110 l 1333 110 l 1333 0 l 694 0 l 694 300 l 328 300 l 136 0 l 1 0 l 660 1018 l 1318 1018 l 1318 908 l 818 908 l 818 581 l 1265 581 l 1265 471 m 694 411 l 694 872 l 400 411 l 694 411 z "},"B":{"ha":904,"x_min":121,"x_max":853,"o":"m 663 533 q 853 288 853 479 q 760 76 853 151 q 485 0 667 0 l 121 0 l 121 1017 l 442 1017 q 628 983 549 1017 q 750 888 707 950 q 793 742 793 825 q 663 533 793 596 m 244 907 l 244 574 l 421 574 q 599 618 536 574 q 663 742 663 663 q 599 863 663 818 q 421 907 535 907 l 244 907 m 463 108 q 658 156 593 108 q 722 288 722 203 q 658 422 722 374 q 463 471 593 471 l 244 471 l 244 108 l 463 108 z "},"C":{"ha":904,"x_min":69,"x_max":874,"o":"m 529 99 q 774 253 696 99 l 874 194 q 740 40 831 96 q 532 -15 650 -15 q 297 51 403 -15 q 131 238 192 118 q 69 510 69 357 q 131 782 69 663 q 297 967 192 901 q 532 1033 403 1033 q 740 978 650 1033 q 874 824 831 922 l 774 765 q 529 919 696 919 q 357 868 432 919 q 241 724 282 817 q 200 510 200 631 q 241 295 200 389 q 357 150 282 201 q 529 99 432 99 z "},"Ć":{"ha":904,"x_min":69,"x_max":874,"o":"m 451 1125 l 565 1289 l 696 1289 l 556 1125 l 451 1125 m 529 99 q 774 253 696 99 l 874 194 q 740 40 831 96 q 532 -15 650 -15 q 297 51 403 -15 q 131 238 192 118 q 69 510 69 357 q 131 782 69 663 q 297 967 192 901 q 532 1033 403 1033 q 740 978 650 1033 q 874 824 831 922 l 774 765 q 529 919 696 919 q 357 868 432 919 q 241 724 282 817 q 200 510 200 631 q 241 295 200 389 q 357 150 282 201 q 529 99 432 99 z "},"Č":{"ha":904,"x_min":69,"x_max":874,"o":"m 393 1289 l 494 1189 l 594 1289 l 721 1289 l 551 1125 l 436 1125 l 267 1289 l 393 1289 m 529 99 q 774 253 696 99 l 874 194 q 740 40 831 96 q 532 -15 650 -15 q 297 51 403 -15 q 131 238 192 118 q 69 510 69 357 q 131 782 69 663 q 297 967 192 901 q 532 1033 403 1033 q 740 978 650 1033 q 874 824 831 922 l 774 765 q 529 919 696 919 q 357 868 432 919 q 241 724 282 817 q 200 510 200 631 q 241 295 200 389 q 357 150 282 201 q 529 99 432 99 z "},"Ç":{"ha":904,"x_min":69,"x_max":874,"o":"m 529 99 q 774 253 696 99 l 874 194 q 751 47 833 103 q 563 -14 669 -8 l 536 -79 q 647 -110 603 -78 q 692 -201 692 -142 q 635 -303 692 -268 q 499 -339 578 -339 q 397 -324 450 -339 l 397 -242 q 496 -257 446 -257 q 565 -244 540 -257 q 590 -207 590 -232 q 478 -157 590 -157 q 431 -158 447 -157 l 422 -107 l 461 -10 q 260 78 349 8 q 120 259 171 147 q 69 510 69 371 q 131 782 69 663 q 297 967 192 901 q 532 1033 403 1033 q 740 978 650 1033 q 874 824 831 922 l 774 765 q 529 919 696 919 q 357 868 432 919 q 241 724 282 817 q 200 510 200 631 q 241 295 200 389 q 357 150 282 201 q 529 99 432 99 z "},"Ĉ":{"ha":904,"x_min":69,"x_max":874,"o":"m 436 1289 l 551 1289 l 721 1125 l 594 1125 l 494 1225 l 393 1125 l 267 1125 l 436 1289 m 529 99 q 774 253 696 99 l 874 194 q 740 40 831 96 q 532 -15 650 -15 q 297 51 403 -15 q 131 238 192 118 q 69 510 69 357 q 131 782 69 663 q 297 967 192 901 q 532 1033 403 1033 q 740 978 650 1033 q 874 824 831 922 l 774 765 q 529 919 696 919 q 357 868 432 919 q 241 724 282 817 q 200 510 200 631 q 241 295 200 389 q 357 150 282 201 q 529 99 432 99 z "},"Ċ":{"ha":904,"x_min":69,"x_max":874,"o":"m 494 1151 q 440 1172 463 1151 q 417 1221 417 1193 q 440 1269 417 1249 q 494 1289 463 1289 q 551 1269 528 1289 q 574 1221 574 1249 q 550 1172 574 1193 q 494 1151 526 1151 m 529 99 q 774 253 696 99 l 874 194 q 740 40 831 96 q 532 -15 650 -15 q 297 51 403 -15 q 131 238 192 118 q 69 510 69 357 q 131 782 69 663 q 297 967 192 901 q 532 1033 403 1033 q 740 978 650 1033 q 874 824 831 922 l 774 765 q 529 919 696 919 q 357 868 432 919 q 241 724 282 817 q 200 510 200 631 q 241 295 200 389 q 357 150 282 201 q 529 99 432 99 z "},"D":{"ha":992,"x_min":121,"x_max":921,"o":"m 399 1017 q 666 957 547 1017 q 853 783 785 897 q 921 510 921 668 q 853 235 921 350 q 667 60 786 121 q 399 0 549 0 l 121 0 l 121 1017 l 399 1017 m 382 110 q 682 214 574 110 q 790 510 790 318 q 681 803 790 699 q 382 908 572 908 l 244 908 l 244 110 l 382 110 z "},"Ð":{"ha":1018,"x_min":31,"x_max":947,"o":"m 425 1017 q 692 957 574 1017 q 879 783 811 897 q 947 510 947 668 q 880 235 947 350 q 694 60 813 121 q 425 0 575 0 l 147 0 l 147 463 l 31 463 l 31 574 l 147 574 l 147 1017 l 425 1017 m 408 110 q 708 214 600 110 q 817 510 817 318 q 708 803 817 699 q 408 908 599 908 l 271 908 l 271 574 l 461 574 l 461 463 l 271 463 l 271 110 l 408 110 z "},"Ď":{"ha":992,"x_min":121,"x_max":921,"o":"m 315 1289 l 417 1189 l 517 1289 l 643 1289 l 474 1125 l 358 1125 l 189 1289 l 315 1289 m 399 1017 q 666 957 547 1017 q 853 783 785 897 q 921 510 921 668 q 853 235 921 350 q 667 60 786 121 q 399 0 549 0 l 121 0 l 121 1017 l 399 1017 m 382 110 q 682 214 574 110 q 790 510 790 318 q 681 803 790 699 q 382 908 572 908 l 244 908 l 244 110 l 382 110 z "},"Đ":{"ha":1018,"x_min":31,"x_max":947,"o":"m 425 1017 q 692 957 574 1017 q 879 783 811 897 q 947 510 947 668 q 880 235 947 350 q 694 60 813 121 q 425 0 575 0 l 147 0 l 147 463 l 31 463 l 31 574 l 147 574 l 147 1017 l 425 1017 m 408 110 q 708 214 600 110 q 817 510 817 318 q 708 803 817 699 q 408 908 599 908 l 271 908 l 271 574 l 461 574 l 461 463 l 271 463 l 271 110 l 408 110 z "},"E":{"ha":828,"x_min":121,"x_max":760,"o":"m 692 471 l 244 471 l 244 110 l 760 110 l 760 0 l 121 0 l 121 1018 l 744 1018 l 744 908 l 244 908 l 244 581 l 692 581 l 692 471 z "},"É":{"ha":828,"x_min":121,"x_max":760,"o":"m 390 1125 l 504 1289 l 635 1289 l 494 1125 l 390 1125 m 692 471 l 244 471 l 244 110 l 760 110 l 760 0 l 121 0 l 121 1018 l 744 1018 l 744 908 l 244 908 l 244 581 l 692 581 l 692 471 z "},"Ĕ":{"ha":828,"x_min":121,"x_max":760,"o":"m 433 1125 q 278 1169 335 1125 q 222 1289 222 1213 l 331 1289 q 360 1220 333 1244 q 433 1196 386 1196 q 508 1220 482 1196 q 538 1289 535 1244 l 646 1289 q 590 1168 646 1211 q 433 1125 533 1125 m 692 471 l 244 471 l 244 110 l 760 110 l 760 0 l 121 0 l 121 1018 l 744 1018 l 744 908 l 244 908 l 244 581 l 692 581 l 692 471 z "},"Ě":{"ha":828,"x_min":121,"x_max":760,"o":"m 332 1289 l 433 1189 l 533 1289 l 660 1289 l 490 1125 l 375 1125 l 206 1289 l 332 1289 m 692 471 l 244 471 l 244 110 l 760 110 l 760 0 l 121 0 l 121 1018 l 744 1018 l 744 908 l 244 908 l 244 581 l 692 581 l 692 471 z "},"Ê":{"ha":828,"x_min":121,"x_max":760,"o":"m 375 1289 l 490 1289 l 660 1125 l 533 1125 l 433 1225 l 332 1125 l 206 1125 l 375 1289 m 692 471 l 244 471 l 244 110 l 760 110 l 760 0 l 121 0 l 121 1018 l 744 1018 l 744 908 l 244 908 l 244 581 l 692 581 l 692 471 z "},"Ế":{"ha":828,"x_min":121,"x_max":786,"o":"m 542 1201 l 656 1289 l 786 1289 l 646 1201 l 542 1201 m 375 1186 l 490 1186 l 660 1099 l 518 1099 l 433 1139 l 347 1099 l 206 1099 l 375 1186 m 692 471 l 244 471 l 244 110 l 760 110 l 760 0 l 121 0 l 121 1018 l 744 1018 l 744 908 l 244 908 l 244 581 l 692 581 l 692 471 z "},"Ệ":{"ha":828,"x_min":121,"x_max":760,"o":"m 375 1289 l 490 1289 l 660 1125 l 533 1125 l 433 1226 l 332 1125 l 206 1125 l 375 1289 m 692 471 l 244 471 l 244 110 l 760 110 l 760 0 l 121 0 l 121 1018 l 744 1018 l 744 908 l 244 908 l 244 581 l 692 581 l 692 471 m 433 -261 q 378 -237 401 -261 q 356 -181 356 -212 q 378 -124 356 -149 q 433 -100 401 -100 q 490 -124 467 -100 q 513 -181 513 -147 q 489 -237 513 -212 q 433 -261 465 -261 z "},"Ề":{"ha":828,"x_min":121,"x_max":760,"o":"m 383 1289 l 514 1289 l 628 1201 l 524 1201 l 383 1289 m 375 1186 l 490 1186 l 660 1099 l 518 1099 l 433 1139 l 347 1099 l 206 1099 l 375 1186 m 692 471 l 244 471 l 244 110 l 760 110 l 760 0 l 121 0 l 121 1018 l 744 1018 l 744 908 l 244 908 l 244 581 l 692 581 l 692 471 z "},"Ể":{"ha":828,"x_min":121,"x_max":760,"o":"m 460 1276 q 567 1288 507 1288 q 671 1276 631 1288 q 711 1239 711 1264 q 578 1176 711 1196 l 531 1203 q 617 1231 617 1213 q 599 1243 617 1238 q 551 1249 581 1249 q 475 1240 518 1249 l 460 1276 m 375 1183 l 490 1183 l 660 1099 l 518 1099 l 433 1138 l 347 1099 l 206 1099 l 375 1183 m 692 471 l 244 471 l 244 110 l 760 110 l 760 0 l 121 0 l 121 1018 l 744 1018 l 744 908 l 244 908 l 244 581 l 692 581 l 692 471 z "},"Ễ":{"ha":828,"x_min":121,"x_max":760,"o":"m 206 1215 q 247 1269 207 1249 q 349 1289 286 1289 q 413 1284 388 1289 q 461 1269 438 1279 q 481 1263 464 1268 q 515 1258 497 1258 q 567 1282 556 1258 l 664 1282 q 623 1228 663 1249 q 521 1208 583 1208 q 457 1213 482 1208 q 408 1228 432 1218 q 389 1234 406 1229 q 354 1239 372 1239 q 303 1215 313 1239 l 206 1215 m 376 1185 l 492 1185 l 661 1099 l 519 1099 l 435 1138 l 349 1099 l 207 1099 l 376 1185 m 692 471 l 244 471 l 244 110 l 760 110 l 760 0 l 121 0 l 121 1018 l 744 1018 l 744 908 l 244 908 l 244 581 l 692 581 l 692 471 z "},"Ë":{"ha":828,"x_min":121,"x_max":760,"o":"m 290 1151 q 235 1172 258 1151 q 213 1221 213 1192 q 235 1269 213 1249 q 290 1289 258 1289 q 347 1269 324 1289 q 369 1221 369 1249 q 347 1172 369 1192 q 290 1151 324 1151 m 575 1151 q 520 1172 543 1151 q 497 1221 497 1192 q 520 1269 497 1249 q 575 1289 543 1289 q 631 1269 608 1289 q 654 1221 654 1249 q 631 1172 654 1192 q 575 1151 608 1151 m 692 471 l 244 471 l 244 110 l 760 110 l 760 0 l 121 0 l 121 1018 l 744 1018 l 744 908 l 244 908 l 244 581 l 692 581 l 692 471 z "},"Ė":{"ha":828,"x_min":121,"x_max":760,"o":"m 433 1151 q 378 1172 401 1151 q 356 1221 356 1193 q 378 1269 356 1249 q 433 1289 401 1289 q 490 1269 467 1289 q 513 1221 513 1249 q 489 1172 513 1193 q 433 1151 465 1151 m 692 471 l 244 471 l 244 110 l 760 110 l 760 0 l 121 0 l 121 1018 l 744 1018 l 744 908 l 244 908 l 244 581 l 692 581 l 692 471 z "},"Ẹ":{"ha":828,"x_min":121,"x_max":760,"o":"m 692 471 l 244 471 l 244 110 l 760 110 l 760 0 l 121 0 l 121 1018 l 744 1018 l 744 908 l 244 908 l 244 581 l 692 581 l 692 471 m 433 -261 q 378 -237 401 -261 q 356 -181 356 -212 q 378 -124 356 -149 q 433 -100 401 -100 q 490 -124 467 -100 q 513 -181 513 -147 q 489 -237 513 -212 q 433 -261 465 -261 z "},"È":{"ha":828,"x_min":121,"x_max":760,"o":"m 232 1289 l 363 1289 l 476 1125 l 372 1125 l 232 1289 m 692 471 l 244 471 l 244 110 l 760 110 l 760 0 l 121 0 l 121 1018 l 744 1018 l 744 908 l 244 908 l 244 581 l 692 581 l 692 471 z "},"Ẻ":{"ha":828,"x_min":121,"x_max":760,"o":"m 308 1269 q 415 1289 354 1289 q 519 1267 479 1289 q 560 1201 560 1246 q 426 1090 560 1124 l 376 1138 q 438 1161 417 1149 q 458 1192 458 1174 q 441 1218 458 1207 q 396 1229 424 1229 q 324 1211 364 1229 l 308 1269 m 692 471 l 244 471 l 244 110 l 760 110 l 760 0 l 121 0 l 121 1018 l 744 1018 l 744 908 l 244 908 l 244 581 l 692 581 l 692 471 z "},"Ē":{"ha":828,"x_min":121,"x_max":760,"o":"m 211 1181 l 211 1283 l 656 1283 l 656 1181 l 211 1181 m 692 471 l 244 471 l 244 110 l 760 110 l 760 0 l 121 0 l 121 1018 l 744 1018 l 744 908 l 244 908 l 244 581 l 692 581 l 692 471 z "},"Ę":{"ha":828,"x_min":121,"x_max":836,"o":"m 836 -272 q 769 -321 810 -303 q 681 -339 729 -339 q 557 -303 608 -339 q 506 -190 506 -267 q 624 0 506 -83 l 121 0 l 121 1018 l 744 1018 l 744 908 l 244 908 l 244 581 l 692 581 l 692 471 l 244 471 l 244 110 l 760 110 l 760 0 q 644 -88 681 -47 q 607 -178 607 -129 q 629 -236 607 -218 q 686 -254 651 -254 q 790 -210 740 -254 l 836 -272 z "},"Ẽ":{"ha":828,"x_min":121,"x_max":760,"o":"m 204 1144 q 246 1249 207 1210 q 347 1289 285 1289 q 410 1276 386 1289 q 460 1242 435 1264 q 488 1221 476 1228 q 514 1214 500 1214 q 548 1231 535 1214 q 565 1274 561 1247 l 663 1274 q 621 1169 660 1208 q 519 1129 582 1129 q 456 1142 481 1129 q 407 1176 432 1154 q 378 1197 390 1190 q 353 1204 367 1204 q 301 1144 311 1204 l 204 1144 m 692 471 l 244 471 l 244 110 l 760 110 l 760 0 l 121 0 l 121 1018 l 744 1018 l 744 908 l 244 908 l 244 581 l 692 581 l 692 471 z "},"F":{"ha":785,"x_min":121,"x_max":744,"o":"m 121 1017 l 744 1017 l 744 907 l 244 907 l 244 564 l 692 564 l 692 454 l 244 454 l 244 0 l 121 0 l 121 1017 z "},"G":{"ha":972,"x_min":69,"x_max":907,"o":"m 568 421 l 568 532 l 907 532 l 907 136 q 769 28 863 71 q 560 -15 676 -15 q 308 51 419 -15 q 133 237 196 117 q 69 511 69 357 q 133 783 69 664 q 306 967 196 901 q 551 1033 417 1033 q 765 982 671 1033 q 901 839 858 931 l 801 781 q 701 881 768 843 q 546 919 635 919 q 366 868 444 919 q 244 724 288 817 q 200 511 200 632 q 246 295 200 389 q 375 150 292 201 q 568 99 458 99 q 783 176 710 99 l 783 421 l 568 421 z "},"Ğ":{"ha":972,"x_min":69,"x_max":907,"o":"m 544 1126 q 390 1169 446 1126 q 333 1289 333 1213 l 442 1289 q 471 1220 444 1244 q 544 1196 497 1196 q 619 1220 593 1196 q 649 1289 646 1244 l 757 1289 q 701 1169 757 1213 q 544 1126 644 1126 m 568 421 l 568 532 l 907 532 l 907 136 q 769 28 863 71 q 560 -15 676 -15 q 308 51 419 -15 q 133 237 196 117 q 69 511 69 357 q 133 783 69 664 q 306 967 196 901 q 551 1033 417 1033 q 765 982 671 1033 q 901 839 858 931 l 801 781 q 701 881 768 843 q 546 919 635 919 q 366 868 444 919 q 244 724 288 817 q 200 511 200 632 q 246 295 200 389 q 375 150 292 201 q 568 99 458 99 q 783 176 710 99 l 783 421 l 568 421 z "},"Ĝ":{"ha":972,"x_min":69,"x_max":907,"o":"m 486 1289 l 601 1289 l 771 1126 l 644 1126 l 544 1226 l 443 1126 l 317 1126 l 486 1289 m 568 421 l 568 532 l 907 532 l 907 136 q 769 28 863 71 q 560 -15 676 -15 q 308 51 419 -15 q 133 237 196 117 q 69 511 69 357 q 133 783 69 664 q 306 967 196 901 q 551 1033 417 1033 q 765 982 671 1033 q 901 839 858 931 l 801 781 q 701 881 768 843 q 546 919 635 919 q 366 868 444 919 q 244 724 288 817 q 200 511 200 632 q 246 295 200 389 q 375 150 292 201 q 568 99 458 99 q 783 176 710 99 l 783 421 l 568 421 z "},"Ģ":{"ha":972,"x_min":69,"x_max":907,"o":"m 783 421 l 568 421 l 568 532 l 907 532 l 907 136 q 769 28 863 71 q 560 -15 676 -15 q 308 51 419 -15 q 133 237 196 117 q 69 511 69 357 q 133 783 69 664 q 306 967 196 901 q 551 1033 417 1033 q 765 982 671 1033 q 901 839 858 931 l 801 781 q 701 881 768 843 q 546 919 635 919 q 366 868 444 919 q 244 724 288 817 q 200 511 200 632 q 246 295 200 389 q 375 150 292 201 q 568 99 458 99 q 783 176 710 99 l 783 421 m 538 -56 q 597 -82 574 -56 q 621 -164 621 -108 q 576 -281 621 -235 q 456 -339 531 -326 l 456 -282 q 519 -249 497 -269 q 546 -197 542 -229 l 536 -197 q 486 -176 504 -197 q 468 -126 468 -156 q 488 -76 468 -96 q 538 -56 507 -56 z "},"Ġ":{"ha":972,"x_min":69,"x_max":907,"o":"m 544 1153 q 490 1173 513 1153 q 467 1221 467 1193 q 490 1269 467 1249 q 544 1289 513 1289 q 601 1269 578 1289 q 624 1221 624 1249 q 600 1173 624 1193 q 544 1153 576 1153 m 568 421 l 568 532 l 907 532 l 907 136 q 769 28 863 71 q 560 -15 676 -15 q 308 51 419 -15 q 133 237 196 117 q 69 511 69 357 q 133 783 69 664 q 306 967 196 901 q 551 1033 417 1033 q 765 982 671 1033 q 901 839 858 931 l 801 781 q 701 881 768 843 q 546 919 635 919 q 366 868 444 919 q 244 724 288 817 q 200 511 200 632 q 246 295 200 389 q 375 150 292 201 q 568 99 458 99 q 783 176 710 99 l 783 421 l 568 421 z "},"H":{"ha":1035,"x_min":121,"x_max":914,"o":"m 244 583 l 790 583 l 790 1017 l 914 1017 l 914 0 l 790 0 l 790 472 l 244 472 l 244 0 l 121 0 l 121 1017 l 244 1017 l 244 583 z "},"Ħ":{"ha":1068,"x_min":44,"x_max":1024,"o":"m 931 1017 l 931 849 l 1024 849 l 1024 749 l 931 749 l 931 0 l 806 0 l 806 472 l 261 472 l 261 0 l 138 0 l 138 749 l 44 749 l 44 849 l 138 849 l 138 1017 l 261 1017 l 261 849 l 806 849 l 806 1017 l 931 1017 m 261 749 l 261 583 l 806 583 l 806 749 l 261 749 z "},"Ĥ":{"ha":1035,"x_min":121,"x_max":914,"o":"m 458 1289 l 574 1289 l 743 1125 l 617 1125 l 517 1225 l 415 1125 l 289 1125 l 458 1289 m 244 583 l 790 583 l 790 1017 l 914 1017 l 914 0 l 790 0 l 790 472 l 244 472 l 244 0 l 121 0 l 121 1017 l 244 1017 l 244 583 z "},"I":{"ha":365,"x_min":121,"x_max":244,"o":"m 244 0 l 121 0 l 121 1017 l 244 1017 l 244 0 z "},"Ĳ":{"ha":996,"x_min":121,"x_max":885,"o":"m 244 0 l 121 0 l 121 1017 l 244 1017 l 244 0 m 611 -15 q 451 29 519 -15 q 361 165 383 74 l 458 222 q 611 99 493 99 q 724 154 689 99 q 760 317 760 210 l 760 1017 l 885 1017 l 885 304 q 808 62 885 139 q 611 -15 732 -15 z "},"Í":{"ha":365,"x_min":121,"x_max":385,"o":"m 140 1125 l 254 1289 l 385 1289 l 244 1125 l 140 1125 m 244 0 l 121 0 l 121 1017 l 244 1017 l 244 0 z "},"Ĭ":{"ha":365,"x_min":-28,"x_max":396,"o":"m 183 1125 q 28 1169 85 1125 q -28 1289 -28 1213 l 81 1289 q 110 1220 83 1244 q 183 1196 136 1196 q 258 1220 232 1196 q 288 1289 285 1244 l 396 1289 q 340 1168 396 1211 q 183 1125 283 1125 m 244 0 l 121 0 l 121 1017 l 244 1017 l 244 0 z "},"Ǐ":{"ha":365,"x_min":-44,"x_max":410,"o":"m 82 1289 l 183 1189 l 283 1289 l 410 1289 l 240 1125 l 125 1125 l -44 1289 l 82 1289 m 244 0 l 121 0 l 121 1017 l 244 1017 l 244 0 z "},"Î":{"ha":365,"x_min":-44,"x_max":410,"o":"m 125 1289 l 240 1289 l 410 1125 l 283 1125 l 183 1225 l 82 1125 l -44 1125 l 125 1289 m 244 0 l 121 0 l 121 1017 l 244 1017 l 244 0 z "},"Ï":{"ha":365,"x_min":-37,"x_max":404,"o":"m 40 1151 q -15 1172 8 1151 q -37 1221 -37 1192 q -15 1269 -37 1249 q 40 1289 8 1289 q 97 1269 74 1289 q 119 1221 119 1249 q 97 1172 119 1192 q 40 1151 74 1151 m 325 1151 q 270 1172 293 1151 q 247 1221 247 1192 q 270 1269 247 1249 q 325 1289 293 1289 q 381 1269 358 1289 q 404 1221 404 1249 q 381 1172 404 1192 q 325 1151 358 1151 m 244 0 l 121 0 l 121 1017 l 244 1017 l 244 0 z "},"İ":{"ha":365,"x_min":106,"x_max":263,"o":"m 183 1151 q 128 1172 151 1151 q 106 1221 106 1193 q 128 1269 106 1249 q 183 1289 151 1289 q 240 1269 217 1289 q 263 1221 263 1249 q 239 1172 263 1193 q 183 1151 215 1151 m 244 0 l 121 0 l 121 1017 l 244 1017 l 244 0 z "},"Ị":{"ha":365,"x_min":106,"x_max":263,"o":"m 244 0 l 121 0 l 121 1017 l 244 1017 l 244 0 m 183 -261 q 128 -237 151 -261 q 106 -181 106 -212 q 128 -124 106 -149 q 183 -100 151 -100 q 240 -124 217 -100 q 263 -181 263 -147 q 239 -237 263 -212 q 183 -261 215 -261 z "},"Ì":{"ha":365,"x_min":-18,"x_max":244,"o":"m -18 1289 l 113 1289 l 226 1125 l 122 1125 l -18 1289 m 244 0 l 121 0 l 121 1017 l 244 1017 l 244 0 z "},"Ỉ":{"ha":365,"x_min":58,"x_max":310,"o":"m 58 1269 q 165 1289 104 1289 q 269 1267 229 1289 q 310 1201 310 1246 q 176 1090 310 1124 l 126 1138 q 188 1161 167 1149 q 208 1192 208 1174 q 191 1218 208 1207 q 146 1229 174 1229 q 74 1211 114 1229 l 58 1269 m 244 0 l 121 0 l 121 1017 l 244 1017 l 244 0 z "},"Ī":{"ha":365,"x_min":-39,"x_max":406,"o":"m -39 1181 l -39 1283 l 406 1283 l 406 1181 l -39 1181 m 244 0 l 121 0 l 121 1017 l 244 1017 l 244 0 z "},"Į":{"ha":365,"x_min":-10,"x_max":321,"o":"m 321 -272 q 254 -321 294 -303 q 165 -339 214 -339 q 42 -303 93 -339 q -10 -190 -10 -267 q 26 -81 -10 -128 q 121 8 61 -33 l 121 1017 l 244 1017 l 244 0 q 128 -88 165 -47 q 92 -178 92 -129 q 114 -236 92 -218 q 171 -254 136 -254 q 275 -210 225 -254 l 321 -272 z "},"Ĩ":{"ha":365,"x_min":-46,"x_max":413,"o":"m -46 1144 q -4 1249 -43 1210 q 97 1289 35 1289 q 160 1276 136 1289 q 210 1242 185 1264 q 238 1221 226 1228 q 264 1214 250 1214 q 298 1231 285 1214 q 315 1274 311 1247 l 413 1274 q 371 1169 410 1208 q 269 1129 332 1129 q 206 1142 231 1129 q 157 1176 182 1154 q 128 1197 140 1190 q 103 1204 117 1204 q 51 1144 61 1204 l -46 1144 m 244 0 l 121 0 l 121 1017 l 244 1017 l 244 0 z "},"J":{"ha":635,"x_min":0,"x_max":524,"o":"m 250 -15 q 90 29 158 -15 q 0 165 22 74 l 97 222 q 250 99 132 99 q 365 154 329 99 q 400 317 400 210 l 400 1017 l 524 1017 l 524 304 q 447 62 524 139 q 250 -15 371 -15 z "},"Ĵ":{"ha":631,"x_min":-4,"x_max":683,"o":"m 399 1289 l 514 1289 l 683 1125 l 557 1125 l 457 1225 l 356 1125 l 229 1125 l 399 1289 m 246 -15 q 86 29 154 -15 q -4 165 18 74 l 93 222 q 246 99 128 99 q 360 154 325 99 q 396 317 396 210 l 396 1017 l 519 1017 l 519 304 q 443 62 519 139 q 246 -15 367 -15 z "},"K":{"ha":942,"x_min":121,"x_max":938,"o":"m 490 583 l 938 0 l 779 0 l 404 492 l 244 324 l 244 0 l 121 0 l 121 1017 l 244 1017 l 244 476 l 742 1017 l 903 1017 l 490 583 z "},"Ķ":{"ha":942,"x_min":121,"x_max":938,"o":"m 742 1017 l 903 1017 l 490 583 l 938 0 l 779 0 l 404 492 l 244 324 l 244 0 l 121 0 l 121 1017 l 244 1017 l 244 476 l 742 1017 m 504 -56 q 564 -82 540 -56 q 588 -164 588 -108 q 542 -281 588 -235 q 422 -339 497 -326 l 422 -282 q 486 -249 464 -269 q 513 -197 508 -229 l 503 -197 q 453 -176 471 -197 q 435 -126 435 -156 q 454 -76 435 -96 q 504 -56 474 -56 z "},"L":{"ha":786,"x_min":121,"x_max":746,"o":"m 121 1017 l 244 1017 l 244 111 l 746 111 l 746 0 l 121 0 l 121 1017 z "},"Ĺ":{"ha":786,"x_min":121,"x_max":746,"o":"m 140 1126 l 254 1289 l 385 1289 l 244 1126 l 140 1126 m 121 1017 l 244 1017 l 244 111 l 746 111 l 746 0 l 121 0 l 121 1017 z "},"Ľ":{"ha":786,"x_min":121,"x_max":746,"o":"m 603 921 q 558 799 603 847 q 438 739 513 751 l 438 799 q 501 832 479 811 q 528 886 524 853 l 518 886 q 468 908 486 886 q 450 960 450 929 q 469 1013 450 992 q 519 1033 489 1033 q 579 1006 556 1033 q 603 921 603 978 m 121 1017 l 244 1017 l 244 111 l 746 111 l 746 0 l 121 0 l 121 1017 z "},"Ļ":{"ha":786,"x_min":121,"x_max":746,"o":"m 121 1017 l 244 1017 l 244 111 l 746 111 l 746 0 l 121 0 l 121 1017 m 443 -56 q 503 -82 479 -56 q 526 -164 526 -108 q 481 -281 526 -235 q 361 -339 436 -326 l 361 -282 q 425 -249 403 -269 q 451 -197 447 -229 l 442 -197 q 392 -176 410 -197 q 374 -126 374 -156 q 393 -76 374 -96 q 443 -56 413 -56 z "},"Ŀ":{"ha":786,"x_min":121,"x_max":746,"o":"m 121 1017 l 244 1017 l 244 111 l 746 111 l 746 0 l 121 0 l 121 1017 m 503 458 q 448 483 471 458 q 425 539 425 507 q 448 596 425 572 q 503 619 471 619 q 559 596 536 619 q 582 539 582 572 q 559 482 582 506 q 503 458 536 458 z "},"Ł":{"ha":814,"x_min":32,"x_max":774,"o":"m 482 586 l 272 476 l 272 111 l 774 111 l 774 0 l 149 0 l 149 411 l 32 350 l 32 468 l 149 529 l 149 1017 l 272 1017 l 272 594 l 482 704 l 482 586 z "},"M":{"ha":1200,"x_min":121,"x_max":1079,"o":"m 978 1017 l 1079 1017 l 1079 0 l 958 0 l 958 775 l 638 263 l 564 263 l 240 778 l 240 0 l 121 0 l 121 1017 l 229 1017 l 604 413 l 978 1017 z "},"Ḿ":{"ha":1200,"x_min":121,"x_max":1079,"o":"m 557 1126 l 671 1289 l 801 1289 l 661 1126 l 557 1126 m 978 1017 l 1079 1017 l 1079 0 l 958 0 l 958 775 l 638 263 l 564 263 l 240 778 l 240 0 l 121 0 l 121 1017 l 229 1017 l 604 413 l 978 1017 z "},"N":{"ha":1028,"x_min":121,"x_max":907,"o":"m 225 1017 l 790 221 l 790 1017 l 907 1017 l 907 0 l 803 0 l 238 797 l 238 0 l 121 0 l 121 1017 l 225 1017 z "},"Ń":{"ha":1028,"x_min":121,"x_max":907,"o":"m 471 1126 l 585 1289 l 715 1289 l 575 1126 l 471 1126 m 225 1017 l 790 221 l 790 1017 l 907 1017 l 907 0 l 803 0 l 238 797 l 238 0 l 121 0 l 121 1017 l 225 1017 z "},"Ň":{"ha":1028,"x_min":121,"x_max":907,"o":"m 413 1289 l 514 1189 l 614 1289 l 740 1289 l 571 1126 l 456 1126 l 286 1289 l 413 1289 m 225 1017 l 790 221 l 790 1017 l 907 1017 l 907 0 l 803 0 l 238 797 l 238 0 l 121 0 l 121 1017 l 225 1017 z "},"Ņ":{"ha":1028,"x_min":121,"x_max":907,"o":"m 225 1017 l 790 221 l 790 1017 l 907 1017 l 907 0 l 803 0 l 238 797 l 238 0 l 121 0 l 121 1017 l 225 1017 m 507 -56 q 567 -82 543 -56 q 590 -164 590 -108 q 545 -281 590 -235 q 425 -339 500 -326 l 425 -282 q 489 -249 467 -269 q 515 -197 511 -229 l 506 -197 q 456 -176 474 -197 q 438 -126 438 -156 q 457 -76 438 -96 q 507 -56 476 -56 z "},"Ŋ":{"ha":1028,"x_min":121,"x_max":907,"o":"m 790 1017 l 907 1017 l 907 -83 q 848 -276 907 -214 q 700 -339 789 -339 q 586 -306 632 -339 l 633 -211 q 694 -228 661 -228 q 790 -79 790 -228 l 790 18 l 238 797 l 238 0 l 121 0 l 121 1017 l 225 1017 l 790 221 l 790 1017 z "},"Ñ":{"ha":1028,"x_min":121,"x_max":907,"o":"m 285 1146 q 326 1249 288 1210 q 428 1289 365 1289 q 490 1277 467 1289 q 540 1243 514 1265 q 569 1222 557 1229 q 594 1215 581 1215 q 628 1232 615 1215 q 646 1274 642 1249 l 743 1274 q 701 1170 740 1210 q 600 1131 663 1131 q 538 1142 561 1131 q 488 1176 514 1154 q 459 1197 471 1190 q 433 1204 447 1204 q 382 1146 393 1204 l 285 1146 m 225 1017 l 790 221 l 790 1017 l 907 1017 l 907 0 l 803 0 l 238 797 l 238 0 l 121 0 l 121 1017 l 225 1017 z "},"O":{"ha":1060,"x_min":69,"x_max":989,"o":"m 69 510 q 129 786 69 667 q 294 969 189 906 q 529 1033 399 1033 q 765 969 660 1033 q 929 785 869 904 q 989 510 989 667 q 928 233 989 351 q 764 49 868 114 q 529 -15 660 -15 q 294 49 399 -15 q 129 232 189 113 q 69 510 69 351 m 200 510 q 240 296 200 389 q 354 151 279 203 q 529 99 429 99 q 703 151 629 99 q 818 296 778 203 q 858 510 858 389 q 818 725 858 632 q 703 869 778 818 q 529 921 629 921 q 355 869 429 921 q 240 725 281 818 q 200 510 200 632 z "},"Ó":{"ha":1060,"x_min":69,"x_max":989,"o":"m 486 1125 l 600 1289 l 731 1289 l 590 1125 l 486 1125 m 69 510 q 129 786 69 667 q 294 969 189 906 q 529 1033 399 1033 q 765 969 660 1033 q 929 785 869 904 q 989 510 989 667 q 928 233 989 351 q 764 49 868 114 q 529 -15 660 -15 q 294 49 399 -15 q 129 232 189 113 q 69 510 69 351 m 200 510 q 240 296 200 389 q 354 151 279 203 q 529 99 429 99 q 703 151 629 99 q 818 296 778 203 q 858 510 858 389 q 818 725 858 632 q 703 869 778 818 q 529 921 629 921 q 355 869 429 921 q 240 725 281 818 q 200 510 200 632 z "},"Ŏ":{"ha":1060,"x_min":69,"x_max":989,"o":"m 529 1125 q 374 1169 431 1125 q 318 1289 318 1213 l 426 1289 q 456 1220 429 1244 q 529 1196 482 1196 q 604 1220 578 1196 q 633 1289 631 1244 l 742 1289 q 685 1168 742 1211 q 529 1125 629 1125 m 69 510 q 129 786 69 667 q 294 969 189 906 q 529 1033 399 1033 q 765 969 660 1033 q 929 785 869 904 q 989 510 989 667 q 928 233 989 351 q 764 49 868 114 q 529 -15 660 -15 q 294 49 399 -15 q 129 232 189 113 q 69 510 69 351 m 200 510 q 240 296 200 389 q 354 151 279 203 q 529 99 429 99 q 703 151 629 99 q 818 296 778 203 q 858 510 858 389 q 818 725 858 632 q 703 869 778 818 q 529 921 629 921 q 355 869 429 921 q 240 725 281 818 q 200 510 200 632 z "},"Ǒ":{"ha":1060,"x_min":69,"x_max":989,"o":"m 428 1289 l 529 1189 l 629 1289 l 756 1289 l 586 1125 l 471 1125 l 301 1289 l 428 1289 m 69 510 q 129 786 69 667 q 294 969 189 906 q 529 1033 399 1033 q 765 969 660 1033 q 929 785 869 904 q 989 510 989 667 q 928 233 989 351 q 764 49 868 114 q 529 -15 660 -15 q 294 49 399 -15 q 129 232 189 113 q 69 510 69 351 m 200 510 q 240 296 200 389 q 354 151 279 203 q 529 99 429 99 q 703 151 629 99 q 818 296 778 203 q 858 510 858 389 q 818 725 858 632 q 703 869 778 818 q 529 921 629 921 q 355 869 429 921 q 240 725 281 818 q 200 510 200 632 z "},"Ô":{"ha":1060,"x_min":69,"x_max":989,"o":"m 471 1289 l 586 1289 l 756 1125 l 629 1125 l 529 1225 l 428 1125 l 301 1125 l 471 1289 m 69 510 q 129 786 69 667 q 294 969 189 906 q 529 1033 399 1033 q 765 969 660 1033 q 929 785 869 904 q 989 510 989 667 q 928 233 989 351 q 764 49 868 114 q 529 -15 660 -15 q 294 49 399 -15 q 129 232 189 113 q 69 510 69 351 m 200 510 q 240 296 200 389 q 354 151 279 203 q 529 99 429 99 q 703 151 629 99 q 818 296 778 203 q 858 510 858 389 q 818 725 858 632 q 703 869 778 818 q 529 921 629 921 q 355 869 429 921 q 240 725 281 818 q 200 510 200 632 z "},"Ố":{"ha":1060,"x_min":69,"x_max":989,"o":"m 638 1201 l 751 1289 l 882 1289 l 742 1201 l 638 1201 m 471 1186 l 586 1186 l 756 1099 l 614 1099 l 529 1139 l 443 1099 l 301 1099 l 471 1186 m 69 510 q 129 786 69 667 q 294 969 189 906 q 529 1033 399 1033 q 765 969 660 1033 q 929 785 869 904 q 989 510 989 667 q 928 233 989 351 q 764 49 868 114 q 529 -15 660 -15 q 294 49 399 -15 q 129 232 189 113 q 69 510 69 351 m 200 510 q 240 296 200 389 q 354 151 279 203 q 529 99 429 99 q 703 151 629 99 q 818 296 778 203 q 858 510 858 389 q 818 725 858 632 q 703 869 778 818 q 529 921 629 921 q 355 869 429 921 q 240 725 281 818 q 200 510 200 632 z "},"Ộ":{"ha":1060,"x_min":69,"x_max":989,"o":"m 471 1289 l 586 1289 l 756 1125 l 629 1125 l 529 1226 l 428 1125 l 301 1125 l 471 1289 m 69 510 q 129 786 69 667 q 294 969 189 906 q 529 1033 399 1033 q 765 969 660 1033 q 929 785 869 904 q 989 510 989 667 q 928 233 989 351 q 764 49 868 114 q 529 -15 660 -15 q 294 49 399 -15 q 129 232 189 113 q 69 510 69 351 m 200 510 q 240 296 200 389 q 354 151 279 203 q 529 99 429 99 q 703 151 629 99 q 818 296 778 203 q 858 510 858 389 q 818 725 858 632 q 703 869 778 818 q 529 921 629 921 q 355 869 429 921 q 240 725 281 818 q 200 510 200 632 m 529 -261 q 474 -237 497 -261 q 451 -181 451 -212 q 474 -124 451 -149 q 529 -100 497 -100 q 585 -124 563 -100 q 608 -181 608 -147 q 585 -237 608 -212 q 529 -261 561 -261 z "},"Ồ":{"ha":1060,"x_min":69,"x_max":989,"o":"m 479 1289 l 610 1289 l 724 1201 l 619 1201 l 479 1289 m 471 1186 l 586 1186 l 756 1099 l 614 1099 l 529 1139 l 443 1099 l 301 1099 l 471 1186 m 69 510 q 129 786 69 667 q 294 969 189 906 q 529 1033 399 1033 q 765 969 660 1033 q 929 785 869 904 q 989 510 989 667 q 928 233 989 351 q 764 49 868 114 q 529 -15 660 -15 q 294 49 399 -15 q 129 232 189 113 q 69 510 69 351 m 200 510 q 240 296 200 389 q 354 151 279 203 q 529 99 429 99 q 703 151 629 99 q 818 296 778 203 q 858 510 858 389 q 818 725 858 632 q 703 869 778 818 q 529 921 629 921 q 355 869 429 921 q 240 725 281 818 q 200 510 200 632 z "},"Ổ":{"ha":1058,"x_min":69,"x_max":989,"o":"m 556 1278 q 663 1289 603 1289 q 766 1276 725 1289 q 807 1240 807 1264 q 674 1176 807 1196 l 626 1203 q 713 1232 713 1215 q 694 1244 713 1239 q 647 1249 676 1249 q 571 1240 606 1249 l 556 1278 m 471 1183 l 586 1183 l 756 1099 l 614 1099 l 529 1138 l 443 1099 l 301 1099 l 471 1183 m 69 510 q 129 786 69 667 q 294 969 189 906 q 529 1033 399 1033 q 765 969 660 1033 q 929 785 869 904 q 989 510 989 667 q 928 233 989 351 q 764 49 868 114 q 529 -15 660 -15 q 294 49 399 -15 q 129 232 189 113 q 69 510 69 351 m 200 510 q 240 296 200 389 q 354 151 279 203 q 529 99 429 99 q 703 151 629 99 q 818 296 778 203 q 858 510 858 389 q 818 725 858 632 q 703 869 778 818 q 529 921 629 921 q 355 869 429 921 q 240 725 281 818 q 200 510 200 632 z "},"Ỗ":{"ha":1060,"x_min":69,"x_max":989,"o":"m 301 1215 q 342 1269 303 1249 q 444 1289 382 1289 q 508 1284 483 1289 q 557 1269 533 1279 q 576 1263 560 1268 q 611 1258 593 1258 q 663 1282 651 1258 l 760 1282 q 719 1228 758 1249 q 617 1208 679 1208 q 553 1213 578 1208 q 504 1228 528 1218 q 485 1234 501 1229 q 450 1239 468 1239 q 399 1215 408 1239 l 301 1215 m 472 1185 l 588 1185 l 757 1099 l 615 1099 l 531 1138 l 444 1099 l 303 1099 l 472 1185 m 69 510 q 129 786 69 667 q 294 969 189 906 q 529 1033 399 1033 q 765 969 660 1033 q 929 785 869 904 q 989 510 989 667 q 928 233 989 351 q 764 49 868 114 q 529 -15 660 -15 q 294 49 399 -15 q 129 232 189 113 q 69 510 69 351 m 200 510 q 240 296 200 389 q 354 151 279 203 q 529 99 429 99 q 703 151 629 99 q 818 296 778 203 q 858 510 858 389 q 818 725 858 632 q 703 869 778 818 q 529 921 629 921 q 355 869 429 921 q 240 725 281 818 q 200 510 200 632 z "},"Ö":{"ha":1060,"x_min":69,"x_max":989,"o":"m 386 1151 q 331 1172 354 1151 q 308 1221 308 1192 q 331 1269 308 1249 q 386 1289 354 1289 q 442 1269 419 1289 q 465 1221 465 1249 q 442 1172 465 1192 q 386 1151 419 1151 m 671 1151 q 616 1172 639 1151 q 593 1221 593 1192 q 616 1269 593 1249 q 671 1289 639 1289 q 727 1269 704 1289 q 750 1221 750 1249 q 727 1172 750 1192 q 671 1151 704 1151 m 69 510 q 129 786 69 667 q 294 969 189 906 q 529 1033 399 1033 q 765 969 660 1033 q 929 785 869 904 q 989 510 989 667 q 928 233 989 351 q 764 49 868 114 q 529 -15 660 -15 q 294 49 399 -15 q 129 232 189 113 q 69 510 69 351 m 200 510 q 240 296 200 389 q 354 151 279 203 q 529 99 429 99 q 703 151 629 99 q 818 296 778 203 q 858 510 858 389 q 818 725 858 632 q 703 869 778 818 q 529 921 629 921 q 355 869 429 921 q 240 725 281 818 q 200 510 200 632 z "},"Ọ":{"ha":1060,"x_min":69,"x_max":989,"o":"m 69 510 q 129 786 69 667 q 294 969 189 906 q 529 1033 399 1033 q 765 969 660 1033 q 929 785 869 904 q 989 510 989 667 q 928 233 989 351 q 764 49 868 114 q 529 -15 660 -15 q 294 49 399 -15 q 129 232 189 113 q 69 510 69 351 m 200 510 q 240 296 200 389 q 354 151 279 203 q 529 99 429 99 q 703 151 629 99 q 818 296 778 203 q 858 510 858 389 q 818 725 858 632 q 703 869 778 818 q 529 921 629 921 q 355 869 429 921 q 240 725 281 818 q 200 510 200 632 m 529 -261 q 474 -237 497 -261 q 451 -181 451 -212 q 474 -124 451 -149 q 529 -100 497 -100 q 585 -124 563 -100 q 608 -181 608 -147 q 585 -237 608 -212 q 529 -261 561 -261 z "},"Ò":{"ha":1060,"x_min":69,"x_max":989,"o":"m 328 1289 l 458 1289 l 572 1125 l 468 1125 l 328 1289 m 69 510 q 129 786 69 667 q 294 969 189 906 q 529 1033 399 1033 q 765 969 660 1033 q 929 785 869 904 q 989 510 989 667 q 928 233 989 351 q 764 49 868 114 q 529 -15 660 -15 q 294 49 399 -15 q 129 232 189 113 q 69 510 69 351 m 200 510 q 240 296 200 389 q 354 151 279 203 q 529 99 429 99 q 703 151 629 99 q 818 296 778 203 q 858 510 858 389 q 818 725 858 632 q 703 869 778 818 q 529 921 629 921 q 355 869 429 921 q 240 725 281 818 q 200 510 200 632 z "},"Ỏ":{"ha":1060,"x_min":69,"x_max":989,"o":"m 404 1269 q 511 1289 450 1289 q 615 1267 575 1289 q 656 1201 656 1246 q 522 1090 656 1124 l 472 1138 q 533 1161 513 1149 q 554 1192 554 1174 q 537 1218 554 1207 q 492 1229 519 1229 q 419 1211 460 1229 l 404 1269 m 69 510 q 129 786 69 667 q 294 969 189 906 q 529 1033 399 1033 q 765 969 660 1033 q 929 785 869 904 q 989 510 989 667 q 928 233 989 351 q 764 49 868 114 q 529 -15 660 -15 q 294 49 399 -15 q 129 232 189 113 q 69 510 69 351 m 200 510 q 240 296 200 389 q 354 151 279 203 q 529 99 429 99 q 703 151 629 99 q 818 296 778 203 q 858 510 858 389 q 818 725 858 632 q 703 869 778 818 q 529 921 629 921 q 355 869 429 921 q 240 725 281 818 q 200 510 200 632 z "},"Ơ":{"ha":1060,"x_min":69,"x_max":1000,"o":"m 801 929 q 940 758 892 865 q 989 510 989 651 q 928 238 989 357 q 763 51 868 118 q 529 -15 658 -15 q 294 51 399 -15 q 129 236 189 117 q 69 510 69 356 q 131 782 69 663 q 299 967 192 901 q 543 1033 407 1033 q 604 1031 571 1033 q 651 1026 638 1028 q 771 1018 726 1018 q 864 1038 835 1018 q 893 1114 893 1057 q 883 1193 893 1153 l 990 1193 q 1000 1106 1000 1149 q 950 966 1000 1001 q 801 929 900 931 m 529 99 q 703 151 629 99 q 817 296 778 203 q 857 510 857 389 q 817 725 857 632 q 702 869 776 818 q 529 921 628 921 q 355 869 429 921 q 240 725 281 818 q 200 510 200 632 q 240 296 200 389 q 354 151 279 203 q 529 99 429 99 z "},"Ớ":{"ha":1060,"x_min":69,"x_max":1000,"o":"m 600 1289 l 731 1289 l 590 1125 l 486 1125 l 600 1289 m 801 929 q 940 758 892 865 q 989 510 989 651 q 928 238 989 357 q 763 51 868 118 q 529 -15 658 -15 q 294 51 399 -15 q 129 236 189 117 q 69 510 69 356 q 131 782 69 663 q 299 967 192 901 q 543 1033 407 1033 q 604 1031 571 1033 q 651 1026 638 1028 q 771 1018 726 1018 q 864 1038 835 1018 q 893 1114 893 1057 q 883 1193 893 1153 l 990 1193 q 1000 1106 1000 1149 q 950 966 1000 1001 q 801 929 900 931 m 529 99 q 703 151 629 99 q 817 296 778 203 q 857 510 857 389 q 817 725 857 632 q 702 869 776 818 q 529 921 628 921 q 355 869 429 921 q 240 725 281 818 q 200 510 200 632 q 240 296 200 389 q 354 151 279 203 q 529 99 429 99 z "},"Ợ":{"ha":1060,"x_min":69,"x_max":1000,"o":"m 801 929 q 940 758 892 865 q 989 510 989 651 q 928 238 989 357 q 763 51 868 118 q 529 -15 658 -15 q 294 51 399 -15 q 129 236 189 117 q 69 510 69 356 q 131 782 69 663 q 299 967 192 901 q 543 1033 407 1033 q 604 1031 571 1033 q 651 1026 638 1028 q 771 1018 726 1018 q 864 1038 835 1018 q 893 1114 893 1057 q 883 1193 893 1153 l 990 1193 q 1000 1106 1000 1149 q 950 966 1000 1001 q 801 929 900 931 m 529 99 q 703 151 629 99 q 817 296 778 203 q 857 510 857 389 q 817 725 857 632 q 702 869 776 818 q 529 921 628 921 q 355 869 429 921 q 240 725 281 818 q 200 510 200 632 q 240 296 200 389 q 354 151 279 203 q 529 99 429 99 m 529 -100 q 585 -124 563 -100 q 608 -181 608 -147 q 585 -237 608 -212 q 529 -261 561 -261 q 474 -237 497 -261 q 451 -181 451 -212 q 474 -124 451 -149 q 529 -100 497 -100 z "},"Ờ":{"ha":1060,"x_min":69,"x_max":1000,"o":"m 458 1289 l 572 1125 l 468 1125 l 328 1289 l 458 1289 m 801 929 q 940 758 892 865 q 989 510 989 651 q 928 238 989 357 q 763 51 868 118 q 529 -15 658 -15 q 294 51 399 -15 q 129 236 189 117 q 69 510 69 356 q 131 782 69 663 q 299 967 192 901 q 543 1033 407 1033 q 604 1031 571 1033 q 651 1026 638 1028 q 771 1018 726 1018 q 864 1038 835 1018 q 893 1114 893 1057 q 883 1193 893 1153 l 990 1193 q 1000 1106 1000 1149 q 950 966 1000 1001 q 801 929 900 931 m 529 99 q 703 151 629 99 q 817 296 778 203 q 857 510 857 389 q 817 725 857 632 q 702 869 776 818 q 529 921 628 921 q 355 869 429 921 q 240 725 281 818 q 200 510 200 632 q 240 296 200 389 q 354 151 279 203 q 529 99 429 99 z "},"Ở":{"ha":1060,"x_min":69,"x_max":1000,"o":"m 492 1229 q 419 1211 460 1229 l 404 1269 q 511 1289 450 1289 q 615 1267 575 1289 q 656 1201 656 1246 q 522 1090 656 1124 l 472 1138 q 533 1161 513 1149 q 554 1192 554 1174 q 537 1218 554 1207 q 492 1229 519 1229 m 801 929 q 940 758 892 865 q 989 510 989 651 q 928 238 989 357 q 763 51 868 118 q 529 -15 658 -15 q 294 51 399 -15 q 129 236 189 117 q 69 510 69 356 q 131 782 69 663 q 299 967 192 901 q 543 1033 407 1033 q 604 1031 571 1033 q 651 1026 638 1028 q 771 1018 726 1018 q 864 1038 835 1018 q 893 1114 893 1057 q 883 1193 893 1153 l 990 1193 q 1000 1106 1000 1149 q 950 966 1000 1001 q 801 929 900 931 m 529 99 q 703 151 629 99 q 817 296 778 203 q 857 510 857 389 q 817 725 857 632 q 702 869 776 818 q 529 921 628 921 q 355 869 429 921 q 240 725 281 818 q 200 510 200 632 q 240 296 200 389 q 354 151 279 203 q 529 99 429 99 z "},"Ỡ":{"ha":1060,"x_min":69,"x_max":1000,"o":"m 449 1204 q 397 1144 407 1204 l 300 1144 q 342 1249 303 1210 q 443 1289 381 1289 q 506 1276 482 1289 q 556 1242 531 1264 q 584 1221 572 1228 q 610 1214 596 1214 q 644 1231 631 1214 q 661 1274 657 1247 l 758 1274 q 717 1169 756 1208 q 615 1129 678 1129 q 552 1142 576 1129 q 503 1176 528 1154 q 474 1197 486 1190 q 449 1204 463 1204 m 801 929 q 940 758 892 865 q 989 510 989 651 q 928 238 989 357 q 763 51 868 118 q 529 -15 658 -15 q 294 51 399 -15 q 129 236 189 117 q 69 510 69 356 q 131 782 69 663 q 299 967 192 901 q 543 1033 407 1033 q 604 1031 571 1033 q 651 1026 638 1028 q 771 1018 726 1018 q 864 1038 835 1018 q 893 1114 893 1057 q 883 1193 893 1153 l 990 1193 q 1000 1106 1000 1149 q 950 966 1000 1001 q 801 929 900 931 m 529 99 q 703 151 629 99 q 817 296 778 203 q 857 510 857 389 q 817 725 857 632 q 702 869 776 818 q 529 921 628 921 q 355 869 429 921 q 240 725 281 818 q 200 510 200 632 q 240 296 200 389 q 354 151 279 203 q 529 99 429 99 z "},"Ő":{"ha":1060,"x_min":69,"x_max":989,"o":"m 368 1125 l 482 1289 l 610 1289 l 469 1125 l 368 1125 m 578 1125 l 692 1289 l 819 1289 l 679 1125 l 578 1125 m 69 510 q 129 786 69 667 q 294 969 189 906 q 529 1033 399 1033 q 765 969 660 1033 q 929 785 869 904 q 989 510 989 667 q 928 233 989 351 q 764 49 868 114 q 529 -15 660 -15 q 294 49 399 -15 q 129 232 189 113 q 69 510 69 351 m 200 510 q 240 296 200 389 q 354 151 279 203 q 529 99 429 99 q 703 151 629 99 q 818 296 778 203 q 858 510 858 389 q 818 725 858 632 q 703 869 778 818 q 529 921 629 921 q 355 869 429 921 q 240 725 281 818 q 200 510 200 632 z "},"Ō":{"ha":1060,"x_min":69,"x_max":989,"o":"m 307 1181 l 307 1283 l 751 1283 l 751 1181 l 307 1181 m 69 510 q 129 786 69 667 q 294 969 189 906 q 529 1033 399 1033 q 765 969 660 1033 q 929 785 869 904 q 989 510 989 667 q 928 233 989 351 q 764 49 868 114 q 529 -15 660 -15 q 294 49 399 -15 q 129 232 189 113 q 69 510 69 351 m 200 510 q 240 296 200 389 q 354 151 279 203 q 529 99 429 99 q 703 151 629 99 q 818 296 778 203 q 858 510 858 389 q 818 725 858 632 q 703 869 778 818 q 529 921 629 921 q 355 869 429 921 q 240 725 281 818 q 200 510 200 632 z "},"Ø":{"ha":1067,"x_min":71,"x_max":996,"o":"m 867 1065 l 996 1065 l 865 883 q 960 717 926 813 q 994 510 994 622 q 934 238 994 357 q 769 51 874 118 q 535 -15 664 -15 q 279 64 390 -15 l 200 -47 l 71 -47 l 201 136 q 108 301 140 207 q 75 510 75 396 q 135 782 75 663 q 301 967 196 901 q 535 1033 406 1033 q 788 954 676 1033 l 867 1065 m 206 510 q 275 239 206 347 l 721 861 q 535 921 642 921 q 360 869 435 921 q 246 725 286 818 q 206 510 206 632 m 863 510 q 793 781 863 672 l 347 160 q 535 99 428 99 q 709 151 635 99 q 823 296 783 203 q 863 510 863 389 z "},"Ǿ":{"ha":1067,"x_min":71,"x_max":996,"o":"m 492 1125 l 606 1289 l 736 1289 l 596 1125 l 492 1125 m 867 1065 l 996 1065 l 865 883 q 960 717 926 813 q 994 510 994 622 q 934 238 994 357 q 769 51 874 118 q 535 -15 664 -15 q 279 64 390 -15 l 200 -47 l 71 -47 l 201 136 q 108 301 140 207 q 75 510 75 396 q 135 782 75 663 q 301 967 196 901 q 535 1033 406 1033 q 788 954 676 1033 l 867 1065 m 206 510 q 275 239 206 347 l 721 861 q 535 921 642 921 q 360 869 435 921 q 246 725 286 818 q 206 510 206 632 m 863 510 q 793 781 863 672 l 347 160 q 535 99 428 99 q 709 151 635 99 q 823 296 783 203 q 863 510 863 389 z "},"Õ":{"ha":1060,"x_min":69,"x_max":989,"o":"m 300 1144 q 342 1249 303 1210 q 443 1289 381 1289 q 506 1276 482 1289 q 556 1242 531 1264 q 584 1221 572 1228 q 610 1214 596 1214 q 644 1231 631 1214 q 661 1274 657 1247 l 758 1274 q 717 1169 756 1208 q 615 1129 678 1129 q 552 1142 576 1129 q 503 1176 528 1154 q 474 1197 486 1190 q 449 1204 463 1204 q 397 1144 407 1204 l 300 1144 m 69 510 q 129 786 69 667 q 294 969 189 906 q 529 1033 399 1033 q 765 969 660 1033 q 929 785 869 904 q 989 510 989 667 q 928 233 989 351 q 764 49 868 114 q 529 -15 660 -15 q 294 49 399 -15 q 129 232 189 113 q 69 510 69 351 m 200 510 q 240 296 200 389 q 354 151 279 203 q 529 99 429 99 q 703 151 629 99 q 818 296 778 203 q 858 510 858 389 q 818 725 858 632 q 703 869 778 818 q 529 921 629 921 q 355 869 429 921 q 240 725 281 818 q 200 510 200 632 z "},"Œ":{"ha":1564,"x_min":69,"x_max":1496,"o":"m 981 471 l 981 110 l 1496 110 l 1496 0 l 857 0 l 857 164 q 719 31 803 78 q 529 -15 636 -15 q 294 51 399 -15 q 129 236 189 117 q 69 510 69 356 q 130 782 69 663 q 295 967 190 901 q 529 1033 400 1033 q 719 987 636 1033 q 857 854 803 940 l 857 1018 l 1481 1018 l 1481 908 l 981 908 l 981 581 l 1428 581 l 1428 471 l 981 471 m 529 99 q 703 151 629 99 q 817 296 778 203 q 857 510 857 389 q 817 725 857 632 q 702 869 776 818 q 529 921 628 921 q 355 869 429 921 q 240 725 281 818 q 200 510 200 632 q 240 296 200 389 q 354 151 279 203 q 529 99 429 99 z "},"P":{"ha":825,"x_min":121,"x_max":790,"o":"m 433 1017 q 617 976 536 1017 q 744 865 699 936 q 790 701 790 793 q 745 538 790 610 q 619 427 700 467 q 433 388 538 388 l 244 388 l 244 0 l 121 0 l 121 1017 l 433 1017 m 418 496 q 597 553 535 496 q 660 701 660 611 q 597 850 660 792 q 418 908 535 908 l 244 908 l 244 496 l 418 496 z "},"Þ":{"ha":825,"x_min":121,"x_max":790,"o":"m 433 825 q 617 785 536 825 q 744 673 699 744 q 790 510 790 601 q 745 347 790 418 q 619 235 700 275 q 433 196 538 196 l 244 196 l 244 0 l 121 0 l 121 1017 l 244 1017 l 244 825 l 433 825 m 417 304 q 595 362 533 304 q 657 510 657 419 q 595 658 657 600 q 417 717 533 717 l 244 717 l 244 304 l 417 304 z "},"Q":{"ha":1060,"x_min":69,"x_max":1069,"o":"m 1069 -211 l 883 -211 l 617 -7 q 529 -15 574 -15 q 294 49 399 -15 q 129 232 189 113 q 69 510 69 351 q 129 786 69 667 q 294 969 189 906 q 529 1033 399 1033 q 765 969 660 1033 q 929 785 869 904 q 989 510 989 667 q 924 224 989 346 q 749 40 860 103 l 1069 -211 m 200 510 q 240 296 200 389 q 354 151 279 203 q 529 99 429 99 q 703 151 629 99 q 818 296 778 203 q 858 510 858 389 q 818 725 858 632 q 703 869 778 818 q 529 921 629 921 q 355 869 429 921 q 240 725 281 818 q 200 510 200 632 z "},"R":{"ha":892,"x_min":121,"x_max":892,"o":"m 892 0 l 740 0 l 446 417 l 433 417 l 244 417 l 244 0 l 121 0 l 121 1017 l 433 1017 q 619 979 538 1017 q 745 873 700 942 q 790 715 790 804 q 733 542 790 615 q 576 438 676 469 l 892 0 m 244 908 l 244 525 l 418 525 q 598 577 536 525 q 660 715 660 629 q 598 855 660 801 q 418 908 536 908 l 244 908 z "},"Ŕ":{"ha":871,"x_min":121,"x_max":892,"o":"m 354 1126 l 468 1289 l 599 1289 l 458 1126 l 354 1126 m 892 0 l 740 0 l 446 417 l 433 417 l 244 417 l 244 0 l 121 0 l 121 1017 l 433 1017 q 619 979 538 1017 q 745 873 700 942 q 790 715 790 804 q 733 542 790 615 q 576 438 676 469 l 892 0 m 244 908 l 244 525 l 418 525 q 598 577 536 525 q 660 715 660 629 q 598 855 660 801 q 418 908 536 908 l 244 908 z "},"Ř":{"ha":871,"x_min":121,"x_max":892,"o":"m 296 1289 l 397 1189 l 497 1289 l 624 1289 l 454 1126 l 339 1126 l 169 1289 l 296 1289 m 892 0 l 740 0 l 446 417 l 433 417 l 244 417 l 244 0 l 121 0 l 121 1017 l 433 1017 q 619 979 538 1017 q 745 873 700 942 q 790 715 790 804 q 733 542 790 615 q 576 438 676 469 l 892 0 m 244 908 l 244 525 l 418 525 q 598 577 536 525 q 660 715 660 629 q 598 855 660 801 q 418 908 536 908 l 244 908 z "},"Ŗ":{"ha":871,"x_min":121,"x_max":892,"o":"m 892 0 l 740 0 l 446 417 l 433 417 l 244 417 l 244 0 l 121 0 l 121 1017 l 433 1017 q 619 979 538 1017 q 745 873 700 942 q 790 715 790 804 q 733 542 790 615 q 576 438 676 469 l 892 0 m 418 525 q 598 577 536 525 q 660 715 660 629 q 598 855 660 801 q 418 908 536 908 l 244 908 l 244 525 l 418 525 m 489 -56 q 549 -82 525 -56 q 572 -164 572 -108 q 527 -281 572 -235 q 407 -339 482 -326 l 407 -282 q 471 -249 449 -269 q 497 -197 493 -229 l 488 -197 q 438 -176 456 -197 q 419 -126 419 -156 q 439 -76 419 -96 q 489 -56 458 -56 z "},"S":{"ha":796,"x_min":24,"x_max":760,"o":"m 760 282 q 719 127 760 194 q 601 22 679 60 q 417 -15 524 -15 q 163 54 268 -15 q 24 239 57 124 l 124 297 q 235 150 161 201 q 418 99 308 99 q 574 143 518 99 q 629 267 629 188 q 594 370 629 331 q 509 432 560 410 q 369 481 458 454 q 210 536 271 510 q 108 615 150 563 q 67 754 67 668 q 111 905 67 842 q 234 1001 156 968 q 410 1033 313 1033 q 630 974 546 1033 q 743 822 714 914 l 643 764 q 555 879 611 838 q 406 921 499 921 q 254 878 311 921 q 197 765 197 836 q 228 679 197 713 q 307 626 260 646 q 436 583 354 607 q 604 524 540 553 q 714 436 668 494 q 760 282 760 378 z "},"Ś":{"ha":796,"x_min":24,"x_max":760,"o":"m 372 1126 l 486 1289 l 617 1289 l 476 1126 l 372 1126 m 760 282 q 719 127 760 194 q 601 22 679 60 q 417 -15 524 -15 q 163 54 268 -15 q 24 239 57 124 l 124 297 q 235 150 161 201 q 418 99 308 99 q 574 143 518 99 q 629 267 629 188 q 594 370 629 331 q 509 432 560 410 q 369 481 458 454 q 210 536 271 510 q 108 615 150 563 q 67 754 67 668 q 111 905 67 842 q 234 1001 156 968 q 410 1033 313 1033 q 630 974 546 1033 q 743 822 714 914 l 643 764 q 555 879 611 838 q 406 921 499 921 q 254 878 311 921 q 197 765 197 836 q 228 679 197 713 q 307 626 260 646 q 436 583 354 607 q 604 524 540 553 q 714 436 668 494 q 760 282 760 378 z "},"Š":{"ha":796,"x_min":24,"x_max":760,"o":"m 314 1289 l 415 1189 l 515 1289 l 642 1289 l 472 1126 l 357 1126 l 188 1289 l 314 1289 m 760 282 q 719 127 760 194 q 601 22 679 60 q 417 -15 524 -15 q 163 54 268 -15 q 24 239 57 124 l 124 297 q 235 150 161 201 q 418 99 308 99 q 574 143 518 99 q 629 267 629 188 q 594 370 629 331 q 509 432 560 410 q 369 481 458 454 q 210 536 271 510 q 108 615 150 563 q 67 754 67 668 q 111 905 67 842 q 234 1001 156 968 q 410 1033 313 1033 q 630 974 546 1033 q 743 822 714 914 l 643 764 q 555 879 611 838 q 406 921 499 921 q 254 878 311 921 q 197 765 197 836 q 228 679 197 713 q 307 626 260 646 q 436 583 354 607 q 604 524 540 553 q 714 436 668 494 q 760 282 760 378 z "},"Ş":{"ha":796,"x_min":24,"x_max":760,"o":"m 760 282 q 720 129 760 196 q 605 24 681 63 q 425 -15 529 -14 l 400 -79 q 511 -110 467 -78 q 556 -201 556 -142 q 499 -303 556 -268 q 363 -339 442 -339 q 261 -324 314 -339 l 261 -242 q 360 -256 304 -256 q 454 -207 454 -256 q 342 -157 454 -157 q 294 -158 311 -157 l 286 -107 l 325 -8 q 131 77 211 11 q 24 239 51 143 l 124 297 q 235 150 161 201 q 418 99 308 99 q 574 142 519 99 q 629 267 629 186 q 594 370 629 331 q 509 432 560 410 q 369 481 458 454 q 210 536 271 510 q 108 615 150 563 q 67 754 67 668 q 111 905 67 842 q 234 1001 156 968 q 410 1033 313 1033 q 630 974 546 1033 q 743 822 714 914 l 643 764 q 555 879 611 838 q 406 921 499 921 q 254 878 311 921 q 197 765 197 836 q 228 679 197 713 q 307 626 260 646 q 436 583 354 607 q 604 524 540 553 q 714 436 668 494 q 760 282 760 378 z "},"Ŝ":{"ha":796,"x_min":24,"x_max":760,"o":"m 357 1289 l 472 1289 l 642 1126 l 515 1126 l 415 1226 l 314 1126 l 188 1126 l 357 1289 m 760 282 q 719 127 760 194 q 601 22 679 60 q 417 -15 524 -15 q 163 54 268 -15 q 24 239 57 124 l 124 297 q 235 150 161 201 q 418 99 308 99 q 574 143 518 99 q 629 267 629 188 q 594 370 629 331 q 509 432 560 410 q 369 481 458 454 q 210 536 271 510 q 108 615 150 563 q 67 754 67 668 q 111 905 67 842 q 234 1001 156 968 q 410 1033 313 1033 q 630 974 546 1033 q 743 822 714 914 l 643 764 q 555 879 611 838 q 406 921 499 921 q 254 878 311 921 q 197 765 197 836 q 228 679 197 713 q 307 626 260 646 q 436 583 354 607 q 604 524 540 553 q 714 436 668 494 q 760 282 760 378 z "},"Ș":{"ha":796,"x_min":24,"x_max":760,"o":"m 760 282 q 719 127 760 194 q 601 22 679 60 q 417 -15 524 -15 q 163 54 268 -15 q 24 239 57 124 l 124 297 q 235 150 161 201 q 418 99 308 99 q 574 143 518 99 q 629 267 629 188 q 594 370 629 331 q 509 432 560 410 q 369 481 458 454 q 210 536 271 510 q 108 615 150 563 q 67 754 67 668 q 111 905 67 842 q 234 1001 156 968 q 410 1033 313 1033 q 630 974 546 1033 q 743 822 714 914 l 643 764 q 555 879 611 838 q 406 921 499 921 q 254 878 311 921 q 197 765 197 836 q 228 679 197 713 q 307 626 260 646 q 436 583 354 607 q 604 524 540 553 q 714 436 668 494 q 760 282 760 378 m 389 -56 q 449 -82 425 -56 q 472 -164 472 -108 q 427 -281 472 -235 q 307 -339 382 -326 l 307 -282 q 371 -249 349 -269 q 397 -197 393 -229 l 388 -197 q 338 -176 356 -197 q 319 -126 319 -156 q 339 -76 319 -96 q 389 -56 358 -56 z "},"Ə":{"ha":988,"x_min":69,"x_max":917,"o":"m 474 1033 q 707 972 607 1033 q 862 793 807 911 q 917 510 917 675 q 861 226 917 344 q 707 47 806 108 q 481 -15 608 -15 q 260 44 353 -15 q 118 206 167 104 q 69 435 69 308 q 78 542 69 488 l 785 542 q 468 919 769 919 q 309 879 374 919 q 194 753 244 839 l 103 818 q 249 978 150 922 q 474 1033 349 1033 m 486 99 q 690 181 613 99 q 782 431 768 264 l 201 431 q 273 186 196 274 q 486 99 350 99 z "},"T":{"ha":789,"x_min":17,"x_max":772,"o":"m 17 1017 l 772 1017 l 772 907 l 456 907 l 456 0 l 332 0 l 332 907 l 17 907 l 17 1017 z "},"Ŧ":{"ha":790,"x_min":17,"x_max":772,"o":"m 17 1017 l 772 1017 l 772 907 l 456 907 l 456 576 l 672 576 l 672 467 l 456 467 l 456 0 l 332 0 l 332 467 l 118 467 l 118 576 l 332 576 l 332 907 l 17 907 l 17 1017 z "},"Ť":{"ha":789,"x_min":17,"x_max":772,"o":"m 293 1289 l 394 1189 l 494 1289 l 621 1289 l 451 1125 l 336 1125 l 167 1289 l 293 1289 m 17 1017 l 772 1017 l 772 907 l 456 907 l 456 0 l 332 0 l 332 907 l 17 907 l 17 1017 z "},"Ţ":{"ha":790,"x_min":17,"x_max":772,"o":"m 456 907 l 456 0 l 449 0 l 417 -79 q 528 -110 483 -78 q 572 -200 572 -142 q 515 -303 572 -268 q 379 -339 458 -339 q 278 -324 331 -339 l 278 -242 q 376 -256 321 -256 q 471 -207 471 -256 q 358 -157 471 -157 q 311 -158 328 -157 l 303 -107 l 346 0 l 332 0 l 332 907 l 17 907 l 17 1017 l 772 1017 l 772 907 l 456 907 z "},"Ț":{"ha":789,"x_min":17,"x_max":772,"o":"m 332 907 l 17 907 l 17 1017 l 772 1017 l 772 907 l 456 907 l 456 0 l 332 0 l 332 907 m 388 -56 q 447 -82 424 -56 q 471 -164 471 -108 q 426 -281 471 -235 q 306 -339 381 -326 l 306 -282 q 369 -249 347 -269 q 396 -197 392 -229 l 386 -197 q 336 -176 354 -197 q 318 -126 318 -156 q 338 -76 318 -96 q 388 -56 357 -56 z "},"U":{"ha":1015,"x_min":111,"x_max":904,"o":"m 781 1017 l 904 1017 l 904 411 q 857 184 904 281 q 720 36 810 88 q 507 -15 631 -15 q 216 99 321 -15 q 111 411 111 213 l 111 1017 l 235 1017 l 235 431 q 304 184 235 269 q 507 99 374 99 q 710 184 640 99 q 781 431 781 269 l 781 1017 z "},"Ú":{"ha":1015,"x_min":111,"x_max":904,"o":"m 464 1125 l 578 1289 l 708 1289 l 568 1125 l 464 1125 m 781 1017 l 904 1017 l 904 411 q 857 184 904 281 q 720 36 810 88 q 507 -15 631 -15 q 216 99 321 -15 q 111 411 111 213 l 111 1017 l 235 1017 l 235 431 q 304 184 235 269 q 507 99 374 99 q 710 184 640 99 q 781 431 781 269 l 781 1017 z "},"Ŭ":{"ha":1015,"x_min":111,"x_max":904,"o":"m 507 1125 q 352 1169 408 1125 q 296 1289 296 1213 l 404 1289 q 433 1220 407 1244 q 507 1196 460 1196 q 582 1220 556 1196 q 611 1289 608 1244 l 719 1289 q 663 1168 719 1211 q 507 1125 607 1125 m 781 1017 l 904 1017 l 904 411 q 857 184 904 281 q 720 36 810 88 q 507 -15 631 -15 q 216 99 321 -15 q 111 411 111 213 l 111 1017 l 235 1017 l 235 431 q 304 184 235 269 q 507 99 374 99 q 710 184 640 99 q 781 431 781 269 l 781 1017 z "},"Ǔ":{"ha":1015,"x_min":111,"x_max":904,"o":"m 406 1289 l 507 1189 l 607 1289 l 733 1289 l 564 1125 l 449 1125 l 279 1289 l 406 1289 m 781 1017 l 904 1017 l 904 411 q 857 184 904 281 q 720 36 810 88 q 507 -15 631 -15 q 216 99 321 -15 q 111 411 111 213 l 111 1017 l 235 1017 l 235 431 q 304 184 235 269 q 507 99 374 99 q 710 184 640 99 q 781 431 781 269 l 781 1017 z "},"Û":{"ha":1015,"x_min":111,"x_max":904,"o":"m 449 1289 l 564 1289 l 733 1125 l 607 1125 l 507 1225 l 406 1125 l 279 1125 l 449 1289 m 781 1017 l 904 1017 l 904 411 q 857 184 904 281 q 720 36 810 88 q 507 -15 631 -15 q 216 99 321 -15 q 111 411 111 213 l 111 1017 l 235 1017 l 235 431 q 304 184 235 269 q 507 99 374 99 q 710 184 640 99 q 781 431 781 269 l 781 1017 z "},"Ü":{"ha":1015,"x_min":111,"x_max":904,"o":"m 364 1151 q 309 1172 332 1151 q 286 1221 286 1192 q 309 1269 286 1249 q 364 1289 332 1289 q 420 1269 397 1289 q 443 1221 443 1249 q 420 1172 443 1192 q 364 1151 397 1151 m 649 1151 q 594 1172 617 1151 q 571 1221 571 1192 q 594 1269 571 1249 q 649 1289 617 1289 q 705 1269 682 1289 q 728 1221 728 1249 q 705 1172 728 1192 q 649 1151 682 1151 m 781 1017 l 904 1017 l 904 411 q 857 184 904 281 q 720 36 810 88 q 507 -15 631 -15 q 216 99 321 -15 q 111 411 111 213 l 111 1017 l 235 1017 l 235 431 q 304 184 235 269 q 507 99 374 99 q 710 184 640 99 q 781 431 781 269 l 781 1017 z "},"Ǘ":{"ha":1015,"x_min":111,"x_max":904,"o":"m 464 1207 l 578 1289 l 708 1289 l 568 1207 l 464 1207 m 364 1096 q 309 1109 332 1096 q 286 1142 286 1122 q 309 1173 286 1160 q 364 1186 332 1186 q 420 1173 397 1186 q 443 1142 443 1160 q 420 1109 443 1122 q 364 1096 397 1096 m 649 1096 q 594 1109 617 1096 q 571 1142 571 1122 q 594 1173 571 1160 q 649 1186 617 1186 q 705 1173 682 1186 q 728 1142 728 1160 q 705 1109 728 1122 q 649 1096 682 1096 m 781 1017 l 904 1017 l 904 411 q 857 184 904 281 q 720 36 810 88 q 507 -15 631 -15 q 216 99 321 -15 q 111 411 111 213 l 111 1017 l 235 1017 l 235 431 q 304 184 235 269 q 507 99 374 99 q 710 184 640 99 q 781 431 781 269 l 781 1017 z "},"Ǚ":{"ha":1015,"x_min":111,"x_max":904,"o":"m 733 1289 l 564 1207 l 449 1207 l 279 1289 l 421 1289 l 507 1251 l 592 1289 l 733 1289 m 364 1096 q 309 1109 332 1096 q 286 1142 286 1122 q 309 1173 286 1160 q 364 1186 332 1186 q 420 1173 397 1186 q 443 1142 443 1160 q 420 1109 443 1122 q 364 1096 397 1096 m 649 1096 q 594 1109 617 1096 q 571 1142 571 1122 q 594 1173 571 1160 q 649 1186 617 1186 q 705 1173 682 1186 q 728 1142 728 1160 q 705 1109 728 1122 q 649 1096 682 1096 m 781 1017 l 904 1017 l 904 411 q 857 184 904 281 q 720 36 810 88 q 507 -15 631 -15 q 216 99 321 -15 q 111 411 111 213 l 111 1017 l 235 1017 l 235 431 q 304 184 235 269 q 507 99 374 99 q 710 184 640 99 q 781 431 781 269 l 781 1017 z "},"Ǜ":{"ha":1015,"x_min":111,"x_max":904,"o":"m 306 1289 l 436 1289 l 550 1207 l 446 1207 l 306 1289 m 364 1096 q 309 1109 332 1096 q 286 1142 286 1122 q 309 1173 286 1160 q 364 1186 332 1186 q 420 1173 397 1186 q 443 1142 443 1160 q 420 1109 443 1122 q 364 1096 397 1096 m 649 1096 q 594 1109 617 1096 q 571 1142 571 1122 q 594 1173 571 1160 q 649 1186 617 1186 q 705 1173 682 1186 q 728 1142 728 1160 q 705 1109 728 1122 q 649 1096 682 1096 m 781 1017 l 904 1017 l 904 411 q 857 184 904 281 q 720 36 810 88 q 507 -15 631 -15 q 216 99 321 -15 q 111 411 111 213 l 111 1017 l 235 1017 l 235 431 q 304 184 235 269 q 507 99 374 99 q 710 184 640 99 q 781 431 781 269 l 781 1017 z "},"Ǖ":{"ha":1015,"x_min":111,"x_max":904,"o":"m 285 1233 l 285 1289 l 729 1289 l 729 1233 l 285 1233 m 364 1096 q 309 1110 332 1096 q 286 1144 286 1125 q 309 1178 286 1164 q 364 1192 332 1192 q 420 1178 397 1192 q 443 1144 443 1164 q 420 1110 443 1125 q 364 1096 397 1096 m 649 1096 q 594 1110 617 1096 q 571 1144 571 1125 q 594 1178 571 1164 q 649 1192 617 1192 q 705 1178 682 1192 q 728 1144 728 1164 q 705 1110 728 1125 q 649 1096 682 1096 m 781 1017 l 904 1017 l 904 411 q 857 184 904 281 q 720 36 810 88 q 507 -15 631 -15 q 216 99 321 -15 q 111 411 111 213 l 111 1017 l 235 1017 l 235 431 q 304 184 235 269 q 507 99 374 99 q 710 184 640 99 q 781 431 781 269 l 781 1017 z "},"Ụ":{"ha":1015,"x_min":111,"x_max":904,"o":"m 781 1017 l 904 1017 l 904 411 q 857 184 904 281 q 720 36 810 88 q 507 -15 631 -15 q 216 99 321 -15 q 111 411 111 213 l 111 1017 l 235 1017 l 235 431 q 304 184 235 269 q 507 99 374 99 q 710 184 640 99 q 781 431 781 269 l 781 1017 m 507 -261 q 452 -237 475 -261 q 429 -181 429 -212 q 452 -124 429 -149 q 507 -100 475 -100 q 563 -124 540 -100 q 586 -181 586 -147 q 563 -237 586 -212 q 507 -261 539 -261 z "},"Ù":{"ha":1015,"x_min":111,"x_max":904,"o":"m 306 1289 l 436 1289 l 550 1125 l 446 1125 l 306 1289 m 781 1017 l 904 1017 l 904 411 q 857 184 904 281 q 720 36 810 88 q 507 -15 631 -15 q 216 99 321 -15 q 111 411 111 213 l 111 1017 l 235 1017 l 235 431 q 304 184 235 269 q 507 99 374 99 q 710 184 640 99 q 781 431 781 269 l 781 1017 z "},"Ủ":{"ha":1015,"x_min":111,"x_max":904,"o":"m 382 1269 q 489 1289 428 1289 q 593 1267 553 1289 q 633 1201 633 1246 q 500 1090 633 1124 l 450 1138 q 511 1161 490 1149 q 532 1192 532 1174 q 515 1218 532 1207 q 469 1229 497 1229 q 397 1211 438 1229 l 382 1269 m 781 1017 l 904 1017 l 904 411 q 857 184 904 281 q 720 36 810 88 q 507 -15 631 -15 q 216 99 321 -15 q 111 411 111 213 l 111 1017 l 235 1017 l 235 431 q 304 184 235 269 q 507 99 374 99 q 710 184 640 99 q 781 431 781 269 l 781 1017 z "},"Ư":{"ha":1015,"x_min":111,"x_max":1065,"o":"m 1065 1104 q 1026 975 1065 1013 q 904 931 986 938 l 904 411 q 857 184 904 281 q 720 36 810 88 q 507 -15 631 -15 q 216 99 321 -15 q 111 411 111 213 l 111 1017 l 235 1017 l 235 431 q 304 184 235 269 q 507 99 374 99 q 710 184 640 99 q 779 431 779 269 l 779 1017 l 831 1017 q 928 1035 899 1017 q 958 1113 958 1054 q 949 1192 958 1151 l 1056 1192 q 1065 1104 1065 1147 z "},"Ứ":{"ha":1015,"x_min":111,"x_max":1065,"o":"m 464 1125 l 578 1289 l 708 1289 l 568 1125 l 464 1125 m 1065 1104 q 1026 975 1065 1013 q 904 931 986 938 l 904 411 q 857 184 904 281 q 720 36 810 88 q 507 -15 631 -15 q 216 99 321 -15 q 111 411 111 213 l 111 1017 l 235 1017 l 235 431 q 304 184 235 269 q 507 99 374 99 q 710 184 640 99 q 779 431 779 269 l 779 1017 l 831 1017 q 928 1035 899 1017 q 958 1113 958 1054 q 949 1192 958 1151 l 1056 1192 q 1065 1104 1065 1147 z "},"Ự":{"ha":1015,"x_min":111,"x_max":1065,"o":"m 1065 1104 q 1026 975 1065 1013 q 904 931 986 938 l 904 411 q 857 184 904 281 q 720 36 810 88 q 507 -15 631 -15 q 216 99 321 -15 q 111 411 111 213 l 111 1017 l 235 1017 l 235 431 q 304 184 235 269 q 507 99 374 99 q 710 184 640 99 q 779 431 779 269 l 779 1017 l 831 1017 q 928 1035 899 1017 q 958 1113 958 1054 q 949 1192 958 1151 l 1056 1192 q 1065 1104 1065 1147 m 507 -261 q 452 -237 475 -261 q 429 -181 429 -212 q 452 -124 429 -149 q 507 -100 475 -100 q 563 -124 540 -100 q 586 -181 586 -147 q 563 -237 586 -212 q 507 -261 539 -261 z "},"Ừ":{"ha":1015,"x_min":111,"x_max":1065,"o":"m 306 1289 l 436 1289 l 550 1125 l 446 1125 l 306 1289 m 1065 1104 q 1026 975 1065 1013 q 904 931 986 938 l 904 411 q 857 184 904 281 q 720 36 810 88 q 507 -15 631 -15 q 216 99 321 -15 q 111 411 111 213 l 111 1017 l 235 1017 l 235 431 q 304 184 235 269 q 507 99 374 99 q 710 184 640 99 q 779 431 779 269 l 779 1017 l 831 1017 q 928 1035 899 1017 q 958 1113 958 1054 q 949 1192 958 1151 l 1056 1192 q 1065 1104 1065 1147 z "},"Ử":{"ha":1015,"x_min":111,"x_max":1065,"o":"m 382 1269 q 489 1289 428 1289 q 593 1267 553 1289 q 633 1201 633 1246 q 500 1090 633 1124 l 450 1138 q 511 1161 490 1149 q 532 1192 532 1174 q 515 1218 532 1207 q 469 1229 497 1229 q 397 1211 438 1229 l 382 1269 m 1065 1104 q 1026 975 1065 1013 q 904 931 986 938 l 904 411 q 857 184 904 281 q 720 36 810 88 q 507 -15 631 -15 q 216 99 321 -15 q 111 411 111 213 l 111 1017 l 235 1017 l 235 431 q 304 184 235 269 q 507 99 374 99 q 710 184 640 99 q 779 431 779 269 l 779 1017 l 831 1017 q 928 1035 899 1017 q 958 1113 958 1054 q 949 1192 958 1151 l 1056 1192 q 1065 1104 1065 1147 z "},"Ữ":{"ha":1015,"x_min":111,"x_max":1065,"o":"m 278 1144 q 319 1249 281 1210 q 421 1289 358 1289 q 484 1276 460 1289 q 533 1242 508 1264 q 562 1221 550 1228 q 588 1214 574 1214 q 622 1231 608 1214 q 639 1274 635 1247 l 736 1274 q 694 1169 733 1208 q 593 1129 656 1129 q 530 1142 554 1129 q 481 1176 506 1154 q 452 1197 464 1190 q 426 1204 440 1204 q 375 1144 385 1204 l 278 1144 m 1065 1104 q 1026 975 1065 1013 q 904 931 986 938 l 904 411 q 857 184 904 281 q 720 36 810 88 q 507 -15 631 -15 q 216 99 321 -15 q 111 411 111 213 l 111 1017 l 235 1017 l 235 431 q 304 184 235 269 q 507 99 374 99 q 710 184 640 99 q 779 431 779 269 l 779 1017 l 831 1017 q 928 1035 899 1017 q 958 1113 958 1054 q 949 1192 958 1151 l 1056 1192 q 1065 1104 1065 1147 z "},"Ű":{"ha":1015,"x_min":111,"x_max":904,"o":"m 346 1125 l 460 1289 l 588 1289 l 447 1125 l 346 1125 m 556 1125 l 669 1289 l 797 1289 l 657 1125 l 556 1125 m 781 1017 l 904 1017 l 904 411 q 857 184 904 281 q 720 36 810 88 q 507 -15 631 -15 q 216 99 321 -15 q 111 411 111 213 l 111 1017 l 235 1017 l 235 431 q 304 184 235 269 q 507 99 374 99 q 710 184 640 99 q 781 431 781 269 l 781 1017 z "},"Ū":{"ha":1015,"x_min":111,"x_max":904,"o":"m 285 1181 l 285 1283 l 729 1283 l 729 1181 l 285 1181 m 781 1017 l 904 1017 l 904 411 q 857 184 904 281 q 720 36 810 88 q 507 -15 631 -15 q 216 99 321 -15 q 111 411 111 213 l 111 1017 l 235 1017 l 235 431 q 304 184 235 269 q 507 99 374 99 q 710 184 640 99 q 781 431 781 269 l 781 1017 z "},"Ų":{"ha":1015,"x_min":111,"x_max":904,"o":"m 904 411 q 865 201 904 292 q 750 56 825 110 q 613 -65 649 -15 q 578 -168 578 -115 q 600 -233 578 -212 q 658 -254 622 -254 q 761 -211 710 -254 l 807 -272 q 740 -322 781 -304 q 651 -339 700 -339 q 527 -301 578 -339 q 476 -181 476 -262 q 494 -93 476 -133 q 546 -14 511 -53 q 507 -15 533 -15 q 216 99 321 -15 q 111 411 111 213 l 111 1017 l 235 1017 l 235 431 q 304 184 235 269 q 507 99 374 99 q 710 184 640 99 q 779 431 779 269 l 779 1017 l 904 1017 l 904 411 z "},"Ů":{"ha":1015,"x_min":111,"x_max":904,"o":"m 357 1196 q 400 1263 357 1236 q 507 1289 443 1289 q 611 1263 569 1289 q 653 1196 653 1236 q 611 1129 653 1156 q 507 1103 569 1103 q 400 1129 443 1103 q 357 1196 357 1156 m 436 1196 q 456 1162 436 1175 q 507 1149 475 1149 q 556 1162 538 1149 q 575 1196 575 1175 q 556 1230 575 1217 q 507 1243 538 1243 q 456 1230 475 1243 q 436 1196 436 1217 m 781 1017 l 904 1017 l 904 411 q 857 184 904 281 q 720 36 810 88 q 507 -15 631 -15 q 216 99 321 -15 q 111 411 111 213 l 111 1017 l 235 1017 l 235 431 q 304 184 235 269 q 507 99 374 99 q 710 184 640 99 q 781 431 781 269 l 781 1017 z "},"Ũ":{"ha":1015,"x_min":111,"x_max":904,"o":"m 278 1144 q 319 1249 281 1210 q 421 1289 358 1289 q 484 1276 460 1289 q 533 1242 508 1264 q 562 1221 550 1228 q 588 1214 574 1214 q 622 1231 608 1214 q 639 1274 635 1247 l 736 1274 q 694 1169 733 1208 q 593 1129 656 1129 q 530 1142 554 1129 q 481 1176 506 1154 q 452 1197 464 1190 q 426 1204 440 1204 q 375 1144 385 1204 l 278 1144 m 781 1017 l 904 1017 l 904 411 q 857 184 904 281 q 720 36 810 88 q 507 -15 631 -15 q 216 99 321 -15 q 111 411 111 213 l 111 1017 l 235 1017 l 235 431 q 304 184 235 269 q 507 99 374 99 q 710 184 640 99 q 781 431 781 269 l 781 1017 z "},"V":{"ha":914,"x_min":10,"x_max":904,"o":"m 147 1017 l 471 165 l 779 1017 l 904 1017 l 518 0 l 414 0 l 10 1017 l 147 1017 z "},"W":{"ha":1342,"x_min":13,"x_max":1329,"o":"m 729 1018 l 979 204 l 1210 1017 l 1329 1017 l 1022 0 l 924 0 l 674 788 l 435 0 l 338 0 l 13 1017 l 143 1017 l 393 204 l 625 1018 l 729 1018 z "},"Ẃ":{"ha":1342,"x_min":13,"x_max":1329,"o":"m 635 1125 l 749 1289 l 879 1289 l 739 1125 l 635 1125 m 729 1018 l 979 204 l 1210 1017 l 1329 1017 l 1022 0 l 924 0 l 674 788 l 435 0 l 338 0 l 13 1017 l 143 1017 l 393 204 l 625 1018 l 729 1018 z "},"Ŵ":{"ha":1342,"x_min":13,"x_max":1329,"o":"m 619 1289 l 735 1289 l 904 1125 l 778 1125 l 678 1225 l 576 1125 l 450 1125 l 619 1289 m 729 1018 l 979 204 l 1210 1017 l 1329 1017 l 1022 0 l 924 0 l 674 788 l 435 0 l 338 0 l 13 1017 l 143 1017 l 393 204 l 625 1018 l 729 1018 z "},"Ẅ":{"ha":1342,"x_min":13,"x_max":1329,"o":"m 535 1151 q 480 1172 503 1151 q 457 1221 457 1192 q 480 1269 457 1249 q 535 1289 503 1289 q 591 1269 568 1289 q 614 1221 614 1249 q 591 1172 614 1192 q 535 1151 568 1151 m 819 1151 q 765 1172 788 1151 q 742 1221 742 1192 q 765 1269 742 1249 q 819 1289 788 1289 q 876 1269 853 1289 q 899 1221 899 1249 q 876 1172 899 1192 q 819 1151 853 1151 m 729 1018 l 979 204 l 1210 1017 l 1329 1017 l 1022 0 l 924 0 l 674 788 l 435 0 l 338 0 l 13 1017 l 143 1017 l 393 204 l 625 1018 l 729 1018 z "},"Ẁ":{"ha":1342,"x_min":13,"x_max":1329,"o":"m 476 1289 l 607 1289 l 721 1125 l 617 1125 l 476 1289 m 729 1018 l 979 204 l 1210 1017 l 1329 1017 l 1022 0 l 924 0 l 674 788 l 435 0 l 338 0 l 13 1017 l 143 1017 l 393 204 l 625 1018 l 729 1018 z "},"X":{"ha":914,"x_min":17,"x_max":897,"o":"m 888 1017 l 528 515 l 897 0 l 746 0 l 451 415 l 160 0 l 17 0 l 386 514 l 26 1017 l 179 1017 l 463 613 l 744 1017 l 888 1017 z "},"Y":{"ha":856,"x_min":10,"x_max":846,"o":"m 443 556 l 711 1018 l 846 1018 l 497 431 l 497 0 l 374 0 l 374 435 l 10 1018 l 157 1018 l 443 556 z "},"Ý":{"ha":856,"x_min":10,"x_max":846,"o":"m 393 1126 l 507 1289 l 638 1289 l 497 1126 l 393 1126 m 443 556 l 711 1018 l 846 1018 l 497 431 l 497 0 l 374 0 l 374 435 l 10 1018 l 157 1018 l 443 556 z "},"Ŷ":{"ha":856,"x_min":10,"x_max":846,"o":"m 378 1289 l 493 1289 l 663 1126 l 536 1126 l 436 1226 l 335 1126 l 208 1126 l 378 1289 m 443 556 l 711 1018 l 846 1018 l 497 431 l 497 0 l 374 0 l 374 435 l 10 1018 l 157 1018 l 443 556 z "},"Ÿ":{"ha":856,"x_min":10,"x_max":846,"o":"m 293 1153 q 238 1173 261 1153 q 215 1221 215 1193 q 238 1269 215 1249 q 293 1289 261 1289 q 349 1269 326 1289 q 372 1221 372 1249 q 349 1173 372 1193 q 293 1153 326 1153 m 578 1153 q 523 1173 546 1153 q 500 1221 500 1193 q 523 1269 500 1249 q 578 1289 546 1289 q 634 1269 611 1289 q 657 1221 657 1249 q 634 1173 657 1193 q 578 1153 611 1153 m 443 556 l 711 1018 l 846 1018 l 497 431 l 497 0 l 374 0 l 374 435 l 10 1018 l 157 1018 l 443 556 z "},"Ỵ":{"ha":856,"x_min":10,"x_max":846,"o":"m 443 556 l 711 1018 l 846 1018 l 497 431 l 497 0 l 374 0 l 374 435 l 10 1018 l 157 1018 l 443 556 m 436 -261 q 381 -237 404 -261 q 358 -181 358 -212 q 381 -124 358 -149 q 436 -100 404 -100 q 492 -124 469 -100 q 515 -181 515 -147 q 492 -237 515 -212 q 436 -261 468 -261 z "},"Ỳ":{"ha":856,"x_min":10,"x_max":846,"o":"m 235 1289 l 365 1289 l 479 1126 l 375 1126 l 235 1289 m 443 556 l 711 1018 l 846 1018 l 497 431 l 497 0 l 374 0 l 374 435 l 10 1018 l 157 1018 l 443 556 z "},"Ỷ":{"ha":856,"x_min":10,"x_max":846,"o":"m 311 1269 q 418 1289 357 1289 q 522 1267 482 1289 q 563 1201 563 1246 q 429 1092 563 1125 l 379 1139 q 440 1163 419 1151 q 461 1193 461 1175 q 444 1219 461 1208 q 399 1229 426 1229 q 326 1211 363 1229 l 311 1269 m 443 556 l 711 1018 l 846 1018 l 497 431 l 497 0 l 374 0 l 374 435 l 10 1018 l 157 1018 l 443 556 z "},"Ỹ":{"ha":856,"x_min":10,"x_max":846,"o":"m 207 1146 q 249 1249 210 1210 q 350 1289 288 1289 q 413 1277 389 1289 q 463 1243 436 1265 q 491 1222 479 1229 q 517 1215 503 1215 q 551 1232 538 1215 q 568 1274 564 1249 l 665 1274 q 624 1170 663 1210 q 522 1131 585 1131 q 460 1142 483 1131 q 410 1176 436 1154 q 381 1197 393 1190 q 356 1204 369 1204 q 304 1146 315 1204 l 207 1146 m 443 556 l 711 1018 l 846 1018 l 497 431 l 497 0 l 374 0 l 374 435 l 10 1018 l 157 1018 l 443 556 z "},"Z":{"ha":800,"x_min":35,"x_max":769,"o":"m 750 1017 l 750 957 l 206 111 l 769 111 l 769 0 l 35 0 l 35 61 l 579 907 l 76 907 l 76 1017 l 750 1017 z "},"Ź":{"ha":800,"x_min":35,"x_max":769,"o":"m 371 1126 l 485 1289 l 615 1289 l 475 1126 l 371 1126 m 750 1017 l 750 957 l 206 111 l 769 111 l 769 0 l 35 0 l 35 61 l 579 907 l 76 907 l 76 1017 l 750 1017 z "},"Ž":{"ha":800,"x_min":35,"x_max":769,"o":"m 313 1289 l 414 1197 l 514 1289 l 640 1289 l 471 1126 l 356 1126 l 186 1289 l 313 1289 m 750 1017 l 750 957 l 206 111 l 769 111 l 769 0 l 35 0 l 35 61 l 579 907 l 76 907 l 76 1017 l 750 1017 z "},"Ż":{"ha":800,"x_min":35,"x_max":769,"o":"m 414 1153 q 359 1173 382 1153 q 336 1221 336 1193 q 359 1269 336 1249 q 414 1289 382 1289 q 470 1269 447 1289 q 493 1221 493 1249 q 469 1173 493 1193 q 414 1153 446 1153 m 750 1017 l 750 957 l 206 111 l 769 111 l 769 0 l 35 0 l 35 61 l 579 907 l 76 907 l 76 1017 l 750 1017 z "},"a":{"ha":758,"x_min":72,"x_max":663,"o":"m 385 738 q 585 663 507 738 q 663 451 663 589 l 663 0 l 558 0 q 553 92 554 71 q 463 12 519 39 q 335 -15 407 -15 q 205 10 265 -15 q 108 87 144 36 q 72 208 72 138 q 159 377 72 315 q 383 439 246 439 q 544 418 461 439 l 544 431 q 503 581 544 532 q 379 631 463 631 q 268 603 313 631 q 193 521 224 575 l 103 572 q 212 692 136 647 q 385 738 288 738 m 544 319 q 385 342 457 342 q 245 307 294 342 q 196 210 196 272 q 238 119 196 151 q 346 86 279 86 q 486 134 428 86 q 544 267 544 182 l 544 319 z "},"á":{"ha":758,"x_min":72,"x_max":663,"o":"m 436 1036 l 567 1036 l 426 822 l 322 822 l 436 1036 m 385 738 q 585 663 507 738 q 663 451 663 589 l 663 0 l 558 0 q 553 92 554 71 q 463 12 519 39 q 335 -15 407 -15 q 205 10 265 -15 q 108 87 144 36 q 72 208 72 138 q 159 377 72 315 q 383 439 246 439 q 544 418 461 439 l 544 431 q 503 581 544 532 q 379 631 463 631 q 268 603 313 631 q 193 521 224 575 l 103 572 q 212 692 136 647 q 385 738 288 738 m 544 319 q 385 342 457 342 q 245 307 294 342 q 196 210 196 272 q 238 119 196 151 q 346 86 279 86 q 486 134 428 86 q 544 267 544 182 l 544 319 z "},"ă":{"ha":758,"x_min":72,"x_max":663,"o":"m 383 821 q 226 878 285 821 q 167 1035 167 936 l 275 1035 q 305 944 278 976 q 383 913 332 913 q 493 1035 486 913 l 601 1035 q 542 878 601 936 q 383 821 483 821 m 385 738 q 585 663 507 738 q 663 451 663 589 l 663 0 l 558 0 q 553 92 554 71 q 463 12 519 39 q 335 -15 407 -15 q 205 10 265 -15 q 108 87 144 36 q 72 208 72 138 q 159 377 72 315 q 383 439 246 439 q 544 418 461 439 l 544 431 q 503 581 544 532 q 379 631 463 631 q 268 603 313 631 q 193 521 224 575 l 103 572 q 212 692 136 647 q 385 738 288 738 m 544 319 q 385 342 457 342 q 245 307 294 342 q 196 210 196 272 q 238 119 196 151 q 346 86 279 86 q 486 134 428 86 q 544 267 544 182 l 544 319 z "},"ắ":{"ha":758,"x_min":72,"x_max":663,"o":"m 424 1253 l 554 1253 l 426 1063 l 322 1063 l 424 1253 m 383 821 q 226 878 285 821 q 167 1035 167 936 l 275 1035 q 305 944 278 976 q 383 913 332 913 q 493 1035 486 913 l 601 1035 q 542 878 601 936 q 383 821 483 821 m 385 738 q 585 663 507 738 q 663 451 663 589 l 663 0 l 558 0 q 553 92 554 71 q 463 12 519 39 q 335 -15 407 -15 q 205 10 265 -15 q 108 87 144 36 q 72 208 72 138 q 159 377 72 315 q 383 439 246 439 q 544 418 461 439 l 544 431 q 503 581 544 532 q 379 631 463 631 q 268 603 313 631 q 193 521 224 575 l 103 572 q 212 692 136 647 q 385 738 288 738 m 544 319 q 385 342 457 342 q 245 307 294 342 q 196 210 196 272 q 238 119 196 151 q 346 86 279 86 q 486 134 428 86 q 544 267 544 182 l 544 319 z "},"ặ":{"ha":758,"x_min":72,"x_max":663,"o":"m 383 821 q 226 878 285 821 q 167 1035 167 936 l 275 1035 q 305 944 278 976 q 383 913 332 913 q 493 1035 486 913 l 601 1035 q 542 878 601 936 q 383 821 483 821 m 385 738 q 585 663 507 738 q 663 451 663 589 l 663 0 l 558 0 q 553 92 554 71 q 463 12 519 39 q 335 -15 407 -15 q 205 10 265 -15 q 108 87 144 36 q 72 208 72 138 q 159 377 72 315 q 383 439 246 439 q 544 418 461 439 l 544 431 q 503 581 544 532 q 379 631 463 631 q 268 603 313 631 q 193 521 224 575 l 103 572 q 212 692 136 647 q 385 738 288 738 m 544 319 q 385 342 457 342 q 245 307 294 342 q 196 210 196 272 q 238 119 196 151 q 346 86 279 86 q 486 134 428 86 q 544 267 544 182 l 544 319 m 396 -100 q 452 -124 429 -100 q 475 -181 475 -147 q 451 -237 475 -212 q 396 -261 428 -261 q 341 -237 364 -261 q 318 -181 318 -212 q 341 -124 318 -149 q 396 -100 364 -100 z "},"ằ":{"ha":758,"x_min":72,"x_max":663,"o":"m 343 1253 l 444 1063 l 340 1063 l 213 1253 l 343 1253 m 383 821 q 226 878 285 821 q 167 1035 167 936 l 275 1035 q 305 944 278 976 q 383 913 332 913 q 493 1035 486 913 l 601 1035 q 542 878 601 936 q 383 821 483 821 m 385 738 q 585 663 507 738 q 663 451 663 589 l 663 0 l 558 0 q 553 92 554 71 q 463 12 519 39 q 335 -15 407 -15 q 205 10 265 -15 q 108 87 144 36 q 72 208 72 138 q 159 377 72 315 q 383 439 246 439 q 544 418 461 439 l 544 431 q 503 581 544 532 q 379 631 463 631 q 268 603 313 631 q 193 521 224 575 l 103 572 q 212 692 136 647 q 385 738 288 738 m 544 319 q 385 342 457 342 q 245 307 294 342 q 196 210 196 272 q 238 119 196 151 q 346 86 279 86 q 486 134 428 86 q 544 267 544 182 l 544 319 z "},"ẳ":{"ha":758,"x_min":72,"x_max":663,"o":"m 346 1208 q 274 1188 311 1208 l 258 1263 q 365 1289 304 1289 q 469 1260 428 1289 q 510 1172 510 1231 q 474 1083 510 1118 q 376 1028 438 1047 l 326 1090 q 388 1121 367 1106 q 408 1160 408 1136 q 391 1195 408 1182 q 346 1208 374 1208 m 383 821 q 226 876 285 821 q 167 1028 167 932 l 275 1028 q 305 940 278 971 q 383 910 332 910 q 493 1028 486 910 l 601 1028 q 542 876 601 932 q 383 821 483 821 m 385 738 q 585 663 507 738 q 663 451 663 589 l 663 0 l 558 0 q 553 92 554 71 q 463 12 519 39 q 335 -15 407 -15 q 205 10 265 -15 q 108 87 144 36 q 72 208 72 138 q 159 377 72 315 q 383 439 246 439 q 544 418 461 439 l 544 431 q 503 581 544 532 q 379 631 463 631 q 268 603 313 631 q 193 521 224 575 l 103 572 q 212 692 136 647 q 385 738 288 738 m 544 319 q 385 342 457 342 q 245 307 294 342 q 196 210 196 272 q 238 119 196 151 q 346 86 279 86 q 486 134 428 86 q 544 267 544 182 l 544 319 z "},"ẵ":{"ha":758,"x_min":72,"x_max":663,"o":"m 303 1164 q 251 1090 263 1164 l 154 1090 q 196 1218 157 1169 q 297 1267 235 1267 q 360 1252 336 1267 q 410 1210 383 1238 q 439 1183 428 1192 q 464 1175 450 1175 q 498 1196 485 1175 q 515 1249 511 1217 l 613 1249 q 571 1121 610 1169 q 469 1072 532 1072 q 407 1087 431 1072 q 357 1129 383 1101 q 328 1156 339 1147 q 303 1164 317 1164 m 383 913 q 493 1035 486 913 l 601 1035 q 542 878 601 936 q 383 821 483 821 q 226 878 285 821 q 167 1035 167 936 l 275 1035 q 305 944 278 976 q 383 913 332 913 m 385 738 q 585 663 507 738 q 663 451 663 589 l 663 0 l 558 0 q 553 92 554 71 q 463 12 519 39 q 335 -15 407 -15 q 205 10 265 -15 q 108 87 144 36 q 72 208 72 138 q 159 377 72 315 q 383 439 246 439 q 544 418 461 439 l 544 431 q 503 581 544 532 q 379 631 463 631 q 268 603 313 631 q 193 521 224 575 l 103 572 q 212 692 136 647 q 385 738 288 738 m 544 319 q 385 342 457 342 q 245 307 294 342 q 196 210 196 272 q 238 119 196 151 q 346 86 279 86 q 486 134 428 86 q 544 267 544 182 l 544 319 z "},"ǎ":{"ha":758,"x_min":72,"x_max":663,"o":"m 597 1036 l 438 822 l 328 822 l 168 1036 l 288 1036 l 383 907 l 478 1036 l 597 1036 m 385 738 q 585 663 507 738 q 663 451 663 589 l 663 0 l 558 0 q 553 92 554 71 q 463 12 519 39 q 335 -15 407 -15 q 205 10 265 -15 q 108 87 144 36 q 72 208 72 138 q 159 377 72 315 q 383 439 246 439 q 544 418 461 439 l 544 431 q 503 581 544 532 q 379 631 463 631 q 268 603 313 631 q 193 521 224 575 l 103 572 q 212 692 136 647 q 385 738 288 738 m 544 319 q 385 342 457 342 q 245 307 294 342 q 196 210 196 272 q 238 119 196 151 q 346 86 279 86 q 486 134 428 86 q 544 267 544 182 l 544 319 z "},"â":{"ha":758,"x_min":72,"x_max":663,"o":"m 478 822 l 382 950 l 286 822 l 167 822 l 326 1036 l 438 1036 l 597 822 l 478 822 m 385 738 q 585 663 507 738 q 663 451 663 589 l 663 0 l 558 0 q 553 92 554 71 q 463 12 519 39 q 335 -15 407 -15 q 205 10 265 -15 q 108 87 144 36 q 72 208 72 138 q 159 377 72 315 q 383 439 246 439 q 544 418 461 439 l 544 431 q 503 581 544 532 q 379 631 463 631 q 268 603 313 631 q 193 521 224 575 l 103 572 q 212 692 136 647 q 385 738 288 738 m 544 319 q 385 342 457 342 q 245 307 294 342 q 196 210 196 272 q 238 119 196 151 q 346 86 279 86 q 486 134 428 86 q 544 267 544 182 l 544 319 z "},"ấ":{"ha":758,"x_min":72,"x_max":706,"o":"m 575 1253 l 706 1253 l 578 1063 l 474 1063 l 575 1253 m 475 822 l 381 951 l 285 822 l 165 822 l 325 1036 l 435 1036 l 594 822 l 475 822 m 385 738 q 585 663 507 738 q 663 451 663 589 l 663 0 l 558 0 q 553 92 554 71 q 463 12 519 39 q 335 -15 407 -15 q 205 10 265 -15 q 108 87 144 36 q 72 208 72 138 q 159 377 72 315 q 383 439 246 439 q 544 418 461 439 l 544 431 q 503 581 544 532 q 379 631 463 631 q 268 603 313 631 q 193 521 224 575 l 103 572 q 212 692 136 647 q 385 738 288 738 m 544 319 q 385 342 457 342 q 245 307 294 342 q 196 210 196 272 q 238 119 196 151 q 346 86 279 86 q 486 134 428 86 q 544 267 544 182 l 544 319 z "},"ậ":{"ha":758,"x_min":72,"x_max":663,"o":"m 478 822 l 382 950 l 286 822 l 167 822 l 326 1036 l 438 1036 l 597 822 l 478 822 m 385 738 q 585 663 507 738 q 663 451 663 589 l 663 0 l 558 0 q 553 92 554 71 q 463 12 519 39 q 335 -15 407 -15 q 205 10 265 -15 q 108 87 144 36 q 72 208 72 138 q 159 377 72 315 q 383 439 246 439 q 544 418 461 439 l 544 431 q 503 581 544 532 q 379 631 463 631 q 268 603 313 631 q 193 521 224 575 l 103 572 q 212 692 136 647 q 385 738 288 738 m 544 319 q 385 342 457 342 q 245 307 294 342 q 196 210 196 272 q 238 119 196 151 q 346 86 279 86 q 486 134 428 86 q 544 267 544 182 l 544 319 m 396 -100 q 452 -124 429 -100 q 475 -181 475 -147 q 451 -237 475 -212 q 396 -261 428 -261 q 341 -237 364 -261 q 318 -181 318 -212 q 341 -124 318 -149 q 396 -100 364 -100 z "},"ầ":{"ha":758,"x_min":72,"x_max":663,"o":"m 494 1253 l 596 1063 l 492 1063 l 364 1253 l 494 1253 m 475 822 l 381 951 l 285 822 l 165 822 l 325 1036 l 435 1036 l 594 822 l 475 822 m 385 738 q 585 663 507 738 q 663 451 663 589 l 663 0 l 558 0 q 553 92 554 71 q 463 12 519 39 q 335 -15 407 -15 q 205 10 265 -15 q 108 87 144 36 q 72 208 72 138 q 159 377 72 315 q 383 439 246 439 q 544 418 461 439 l 544 431 q 503 581 544 532 q 379 631 463 631 q 268 603 313 631 q 193 521 224 575 l 103 572 q 212 692 136 647 q 385 738 288 738 m 544 319 q 385 342 457 342 q 245 307 294 342 q 196 210 196 272 q 238 119 196 151 q 346 86 279 86 q 486 134 428 86 q 544 267 544 182 l 544 319 z "},"ẩ":{"ha":758,"x_min":72,"x_max":674,"o":"m 510 1194 q 438 1172 475 1194 l 422 1250 q 529 1278 467 1278 q 633 1247 592 1278 q 674 1157 674 1217 q 540 1007 674 1053 l 490 1072 q 551 1104 531 1088 q 572 1144 572 1121 q 555 1181 572 1167 q 510 1194 538 1194 m 475 822 l 381 951 l 285 822 l 165 822 l 325 1036 l 435 1036 l 594 822 l 475 822 m 385 738 q 585 663 507 738 q 663 451 663 589 l 663 0 l 558 0 q 553 92 554 71 q 463 12 519 39 q 335 -15 407 -15 q 205 10 265 -15 q 108 87 144 36 q 72 208 72 138 q 159 377 72 315 q 383 439 246 439 q 544 418 461 439 l 544 431 q 503 581 544 532 q 379 631 463 631 q 268 603 313 631 q 193 521 224 575 l 103 572 q 212 692 136 647 q 385 738 288 738 m 544 319 q 385 342 457 342 q 245 307 294 342 q 196 210 196 272 q 238 119 196 151 q 346 86 279 86 q 486 134 428 86 q 544 267 544 182 l 544 319 z "},"ẫ":{"ha":758,"x_min":72,"x_max":663,"o":"m 300 1164 q 249 1090 260 1164 l 151 1090 q 193 1218 154 1169 q 294 1267 232 1267 q 357 1252 333 1267 q 407 1210 381 1238 q 436 1183 425 1192 q 461 1175 447 1175 q 495 1196 482 1175 q 513 1249 508 1217 l 610 1249 q 568 1121 607 1169 q 467 1072 529 1072 q 404 1087 428 1072 q 354 1129 381 1101 q 325 1156 336 1147 q 300 1164 314 1164 m 164 822 l 324 1036 l 433 1036 l 593 822 l 474 822 l 379 951 l 283 822 l 164 822 m 385 738 q 585 663 507 738 q 663 451 663 589 l 663 0 l 558 0 q 553 92 554 71 q 463 12 519 39 q 335 -15 407 -15 q 205 10 265 -15 q 108 87 144 36 q 72 208 72 138 q 159 377 72 315 q 383 439 246 439 q 544 418 461 439 l 544 431 q 503 581 544 532 q 379 631 463 631 q 268 603 313 631 q 193 521 224 575 l 103 572 q 212 692 136 647 q 385 738 288 738 m 544 319 q 385 342 457 342 q 245 307 294 342 q 196 210 196 272 q 238 119 196 151 q 346 86 279 86 q 486 134 428 86 q 544 267 544 182 l 544 319 z "},"ä":{"ha":758,"x_min":72,"x_max":663,"o":"m 240 849 q 185 872 208 849 q 163 929 163 896 q 185 986 163 963 q 240 1010 208 1010 q 297 986 274 1010 q 319 929 319 963 q 297 872 319 896 q 240 849 274 849 m 525 849 q 470 872 493 849 q 447 929 447 896 q 470 986 447 963 q 525 1010 493 1010 q 581 986 558 1010 q 604 929 604 963 q 581 872 604 896 q 525 849 558 849 m 385 738 q 585 663 507 738 q 663 451 663 589 l 663 0 l 558 0 q 553 92 554 71 q 463 12 519 39 q 335 -15 407 -15 q 205 10 265 -15 q 108 87 144 36 q 72 208 72 138 q 159 377 72 315 q 383 439 246 439 q 544 418 461 439 l 544 431 q 503 581 544 532 q 379 631 463 631 q 268 603 313 631 q 193 521 224 575 l 103 572 q 212 692 136 647 q 385 738 288 738 m 544 319 q 385 342 457 342 q 245 307 294 342 q 196 210 196 272 q 238 119 196 151 q 346 86 279 86 q 486 134 428 86 q 544 267 544 182 l 544 319 z "},"ạ":{"ha":758,"x_min":72,"x_max":663,"o":"m 385 738 q 585 663 507 738 q 663 451 663 589 l 663 0 l 558 0 q 553 92 554 71 q 463 12 519 39 q 335 -15 407 -15 q 205 10 265 -15 q 108 87 144 36 q 72 208 72 138 q 159 377 72 315 q 383 439 246 439 q 544 418 461 439 l 544 431 q 503 581 544 532 q 379 631 463 631 q 268 603 313 631 q 193 521 224 575 l 103 572 q 212 692 136 647 q 385 738 288 738 m 544 319 q 385 342 457 342 q 245 307 294 342 q 196 210 196 272 q 238 119 196 151 q 346 86 279 86 q 486 134 428 86 q 544 267 544 182 l 544 319 m 396 -100 q 452 -124 429 -100 q 475 -181 475 -147 q 451 -237 475 -212 q 396 -261 428 -261 q 341 -237 364 -261 q 318 -181 318 -212 q 341 -124 318 -149 q 396 -100 364 -100 z "},"à":{"ha":758,"x_min":72,"x_max":663,"o":"m 331 1036 l 444 822 l 340 822 l 200 1036 l 331 1036 m 385 738 q 585 663 507 738 q 663 451 663 589 l 663 0 l 558 0 q 553 92 554 71 q 463 12 519 39 q 335 -15 407 -15 q 205 10 265 -15 q 108 87 144 36 q 72 208 72 138 q 159 377 72 315 q 383 439 246 439 q 544 418 461 439 l 544 431 q 503 581 544 532 q 379 631 463 631 q 268 603 313 631 q 193 521 224 575 l 103 572 q 212 692 136 647 q 385 738 288 738 m 544 319 q 385 342 457 342 q 245 307 294 342 q 196 210 196 272 q 238 119 196 151 q 346 86 279 86 q 486 134 428 86 q 544 267 544 182 l 544 319 z "},"ả":{"ha":758,"x_min":72,"x_max":663,"o":"m 346 982 q 274 960 311 982 l 258 1038 q 365 1065 303 1065 q 469 1035 428 1065 q 510 944 510 1004 q 376 794 510 840 l 326 860 q 388 892 367 875 q 408 932 408 908 q 391 968 408 954 q 346 982 374 982 m 385 738 q 585 663 507 738 q 663 451 663 589 l 663 0 l 558 0 q 553 92 554 71 q 463 12 519 39 q 335 -15 407 -15 q 205 10 265 -15 q 108 87 144 36 q 72 208 72 138 q 159 377 72 315 q 383 439 246 439 q 544 418 461 439 l 544 431 q 503 581 544 532 q 379 631 463 631 q 268 603 313 631 q 193 521 224 575 l 103 572 q 212 692 136 647 q 385 738 288 738 m 544 319 q 385 342 457 342 q 245 307 294 342 q 196 210 196 272 q 238 119 196 151 q 346 86 279 86 q 486 134 428 86 q 544 267 544 182 l 544 319 z "},"ɑ":{"ha":843,"x_min":65,"x_max":736,"o":"m 736 722 l 736 0 l 632 0 q 624 122 629 72 q 520 19 585 53 q 383 -15 456 -15 q 227 29 300 -15 q 110 159 154 74 q 65 361 65 244 q 110 562 65 476 q 227 692 154 647 q 383 738 300 738 q 520 703 456 738 q 624 600 585 668 q 632 722 629 650 l 736 722 m 397 96 q 553 160 488 96 q 618 361 618 224 q 553 561 618 497 q 397 625 488 625 q 246 556 303 625 q 189 361 189 486 q 246 165 189 235 q 397 96 303 96 z "},"ā":{"ha":758,"x_min":72,"x_max":663,"o":"m 161 981 l 606 981 l 606 878 l 161 878 l 161 981 m 385 738 q 585 663 507 738 q 663 451 663 589 l 663 0 l 558 0 q 553 92 554 71 q 463 12 519 39 q 335 -15 407 -15 q 205 10 265 -15 q 108 87 144 36 q 72 208 72 138 q 159 377 72 315 q 383 439 246 439 q 544 418 461 439 l 544 431 q 503 581 544 532 q 379 631 463 631 q 268 603 313 631 q 193 521 224 575 l 103 572 q 212 692 136 647 q 385 738 288 738 m 544 319 q 385 342 457 342 q 245 307 294 342 q 196 210 196 272 q 238 119 196 151 q 346 86 279 86 q 486 134 428 86 q 544 267 544 182 l 544 319 z "},"ą":{"ha":758,"x_min":72,"x_max":739,"o":"m 739 -268 q 672 -320 713 -301 q 583 -339 632 -339 q 460 -299 511 -339 q 408 -183 408 -258 q 449 -68 408 -118 q 557 22 490 -18 l 553 92 q 463 12 519 39 q 335 -15 407 -15 q 205 10 265 -15 q 108 87 144 36 q 72 208 72 138 q 159 377 72 315 q 383 439 246 439 q 544 418 461 439 l 544 431 q 503 581 544 532 q 379 631 463 631 q 268 603 313 631 q 193 521 224 575 l 103 572 q 212 692 136 647 q 385 738 288 738 q 585 663 507 738 q 663 451 663 589 l 663 0 q 547 -85 583 -44 q 510 -172 510 -125 q 531 -230 510 -211 q 589 -249 553 -249 q 693 -201 646 -249 l 739 -268 m 544 319 q 385 342 457 342 q 245 307 294 342 q 196 210 196 272 q 238 119 196 151 q 346 86 279 86 q 486 134 428 86 q 544 267 544 182 l 544 319 z "},"å":{"ha":758,"x_min":72,"x_max":663,"o":"m 383 807 q 276 849 319 807 q 233 954 233 890 q 276 1060 233 1018 q 383 1101 319 1101 q 488 1060 446 1101 q 529 954 529 1018 q 488 849 529 890 q 383 807 446 807 m 383 1029 q 332 1008 351 1029 q 313 954 313 988 q 332 900 313 921 q 383 879 351 879 q 433 900 414 879 q 451 954 451 921 q 433 1008 451 988 q 383 1029 414 1029 m 385 738 q 585 663 507 738 q 663 451 663 589 l 663 0 l 558 0 q 553 92 554 71 q 463 12 519 39 q 335 -15 407 -15 q 205 10 265 -15 q 108 87 144 36 q 72 208 72 138 q 159 377 72 315 q 383 439 246 439 q 544 418 461 439 l 544 431 q 503 581 544 532 q 379 631 463 631 q 268 603 313 631 q 193 521 224 575 l 103 572 q 212 692 136 647 q 385 738 288 738 m 544 319 q 385 342 457 342 q 245 307 294 342 q 196 210 196 272 q 238 119 196 151 q 346 86 279 86 q 486 134 428 86 q 544 267 544 182 l 544 319 z "},"ǻ":{"ha":758,"x_min":72,"x_max":663,"o":"m 436 1289 l 567 1289 l 426 1122 l 322 1122 l 436 1289 m 383 800 q 287 836 325 800 q 249 931 249 872 q 287 1022 249 986 q 383 1058 325 1058 q 477 1022 440 1058 q 514 931 514 986 q 477 836 514 872 q 383 800 440 800 m 383 996 q 337 978 354 996 q 319 931 319 960 q 337 882 319 901 q 383 863 354 863 q 428 882 411 863 q 444 931 444 901 q 428 978 444 960 q 383 996 411 996 m 385 738 q 585 663 507 738 q 663 451 663 589 l 663 0 l 558 0 q 553 92 554 71 q 463 12 519 39 q 335 -15 407 -15 q 205 10 265 -15 q 108 87 144 36 q 72 208 72 138 q 159 377 72 315 q 383 439 246 439 q 544 418 461 439 l 544 431 q 503 581 544 532 q 379 631 463 631 q 268 603 313 631 q 193 521 224 575 l 103 572 q 212 692 136 647 q 385 738 288 738 m 544 319 q 385 342 457 342 q 245 307 294 342 q 196 210 196 272 q 238 119 196 151 q 346 86 279 86 q 486 134 428 86 q 544 267 544 182 l 544 319 z "},"ḁ":{"ha":758,"x_min":72,"x_max":663,"o":"m 385 738 q 585 663 507 738 q 663 451 663 589 l 663 0 l 558 0 q 553 92 554 71 q 463 12 519 39 q 335 -15 407 -15 q 205 10 265 -15 q 108 87 144 36 q 72 208 72 138 q 159 377 72 315 q 383 439 246 439 q 544 418 461 439 l 544 431 q 503 581 544 532 q 379 631 463 631 q 268 603 313 631 q 193 521 224 575 l 103 572 q 212 692 136 647 q 385 738 288 738 m 544 319 q 385 342 457 342 q 245 307 294 342 q 196 210 196 272 q 238 119 196 151 q 346 86 279 86 q 486 134 428 86 q 544 267 544 182 l 544 319 m 396 -53 q 500 -93 458 -53 q 542 -196 542 -133 q 500 -299 542 -258 q 396 -339 458 -339 q 289 -299 332 -339 q 246 -196 246 -258 q 289 -93 246 -133 q 396 -53 332 -53 m 396 -268 q 445 -248 426 -268 q 464 -196 464 -228 q 445 -144 464 -164 q 396 -124 426 -124 q 344 -144 364 -124 q 325 -196 325 -164 q 344 -248 325 -228 q 396 -268 364 -268 z "},"ã":{"ha":758,"x_min":72,"x_max":663,"o":"m 303 924 q 251 850 263 924 l 154 850 q 196 978 157 929 q 297 1026 235 1026 q 360 1012 336 1026 q 410 969 383 997 q 439 943 428 951 q 464 935 450 935 q 498 956 485 935 q 515 1008 511 976 l 613 1008 q 571 881 610 929 q 469 832 532 832 q 407 847 431 832 q 357 889 383 861 q 328 915 339 907 q 303 924 317 924 m 385 738 q 585 663 507 738 q 663 451 663 589 l 663 0 l 558 0 q 553 92 554 71 q 463 12 519 39 q 335 -15 407 -15 q 205 10 265 -15 q 108 87 144 36 q 72 208 72 138 q 159 377 72 315 q 383 439 246 439 q 544 418 461 439 l 544 431 q 503 581 544 532 q 379 631 463 631 q 268 603 313 631 q 193 521 224 575 l 103 572 q 212 692 136 647 q 385 738 288 738 m 544 319 q 385 342 457 342 q 245 307 294 342 q 196 210 196 272 q 238 119 196 151 q 346 86 279 86 q 486 134 428 86 q 544 267 544 182 l 544 319 z "},"æ":{"ha":1242,"x_min":72,"x_max":1197,"o":"m 889 738 q 1052 694 982 738 q 1160 575 1122 650 q 1197 408 1197 500 q 1192 338 1197 369 l 672 338 q 743 153 679 214 q 904 93 807 93 q 1079 190 1025 93 l 1169 139 q 1066 25 1142 65 q 897 -15 990 -15 q 734 24 807 -15 q 618 136 661 63 q 517 24 589 63 q 349 -15 446 -15 q 151 44 231 -15 q 72 208 72 103 q 158 377 72 315 q 386 439 244 439 q 553 418 465 439 q 510 576 553 522 q 375 631 467 631 q 267 603 311 631 q 193 518 222 575 l 103 569 q 210 692 136 647 q 382 738 285 738 q 531 701 468 738 q 625 597 593 665 q 737 701 668 665 q 889 738 806 738 m 1069 433 q 1015 578 1065 526 q 885 629 965 629 q 749 579 807 629 q 676 433 692 529 l 1069 433 m 553 319 q 385 343 454 343 q 244 308 293 343 q 196 210 196 272 q 239 119 196 151 q 353 86 282 86 q 496 133 439 86 q 553 267 553 181 l 553 319 z "},"ǽ":{"ha":1242,"x_min":72,"x_max":1197,"o":"m 685 1036 l 815 1036 l 675 822 l 571 822 l 685 1036 m 889 738 q 1052 694 982 738 q 1160 575 1122 650 q 1197 408 1197 500 q 1192 338 1197 369 l 672 338 q 743 153 679 214 q 904 93 807 93 q 1079 190 1025 93 l 1169 139 q 1066 25 1142 65 q 897 -15 990 -15 q 734 24 807 -15 q 618 136 661 63 q 517 24 589 63 q 349 -15 446 -15 q 151 44 231 -15 q 72 208 72 103 q 158 377 72 315 q 386 439 244 439 q 553 418 465 439 q 510 576 553 522 q 375 631 467 631 q 267 603 311 631 q 193 518 222 575 l 103 569 q 210 692 136 647 q 382 738 285 738 q 531 701 468 738 q 625 597 593 665 q 737 701 668 665 q 889 738 806 738 m 1069 433 q 1015 578 1065 526 q 885 629 965 629 q 749 579 807 629 q 676 433 692 529 l 1069 433 m 553 319 q 385 343 454 343 q 244 308 293 343 q 196 210 196 272 q 239 119 196 151 q 353 86 282 86 q 496 133 439 86 q 553 267 553 181 l 553 319 z "},"b":{"ha":843,"x_min":107,"x_max":778,"o":"m 461 738 q 616 692 543 738 q 733 562 689 647 q 778 361 778 476 q 733 159 778 244 q 616 29 689 74 q 461 -15 543 -15 q 324 19 389 -15 q 219 124 258 54 q 211 0 214 64 l 107 0 l 107 1057 l 225 1057 l 225 608 q 328 705 265 672 q 461 738 390 738 m 446 96 q 597 165 540 96 q 654 361 654 235 q 597 556 654 486 q 446 625 540 625 q 290 561 356 625 q 225 361 225 497 q 257 208 225 268 q 339 122 289 149 q 446 96 389 96 z "},"c":{"ha":685,"x_min":65,"x_max":668,"o":"m 410 96 q 575 190 515 96 l 668 136 q 563 22 629 60 q 413 -15 497 -15 q 236 32 315 -15 q 111 165 157 79 q 65 361 65 250 q 111 558 65 472 q 236 690 157 643 q 413 738 315 738 q 563 700 497 738 q 668 586 629 663 l 575 532 q 410 626 515 626 q 251 556 313 626 q 190 361 190 485 q 251 167 190 238 q 410 96 313 96 z "},"ć":{"ha":685,"x_min":65,"x_max":668,"o":"m 338 824 l 451 1038 l 582 1038 l 442 824 l 338 824 m 410 96 q 575 190 515 96 l 668 136 q 563 22 629 60 q 413 -15 497 -15 q 236 32 315 -15 q 111 165 157 79 q 65 361 65 250 q 111 558 65 472 q 236 690 157 643 q 413 738 315 738 q 563 700 497 738 q 668 586 629 663 l 575 532 q 410 626 515 626 q 251 556 313 626 q 190 361 190 485 q 251 167 190 238 q 410 96 313 96 z "},"č":{"ha":685,"x_min":65,"x_max":668,"o":"m 303 1038 l 399 908 l 493 1038 l 613 1038 l 453 824 l 343 824 l 183 1038 l 303 1038 m 410 96 q 575 190 515 96 l 668 136 q 563 22 629 60 q 413 -15 497 -15 q 236 32 315 -15 q 111 165 157 79 q 65 361 65 250 q 111 558 65 472 q 236 690 157 643 q 413 738 315 738 q 563 700 497 738 q 668 586 629 663 l 575 532 q 410 626 515 626 q 251 556 313 626 q 190 361 190 485 q 251 167 190 238 q 410 96 313 96 z "},"ç":{"ha":685,"x_min":65,"x_max":668,"o":"m 410 96 q 575 190 515 96 l 668 136 q 577 31 633 68 q 449 -14 521 -7 l 422 -79 q 533 -110 489 -78 q 578 -201 578 -142 q 524 -303 578 -268 q 390 -339 471 -339 q 283 -324 347 -339 l 283 -237 q 382 -254 336 -254 q 476 -206 476 -254 q 451 -167 476 -181 q 382 -154 425 -154 q 317 -161 356 -154 l 308 -107 l 347 -10 q 201 56 265 6 q 101 185 138 106 q 65 361 65 264 q 111 558 65 472 q 236 690 157 643 q 413 738 315 738 q 563 700 497 738 q 668 586 629 663 l 575 532 q 410 626 515 626 q 251 556 313 626 q 190 361 190 485 q 251 167 190 238 q 410 96 313 96 z "},"ĉ":{"ha":685,"x_min":65,"x_max":668,"o":"m 342 1038 l 453 1038 l 613 824 l 493 824 l 397 951 l 301 824 l 182 824 l 342 1038 m 410 96 q 575 190 515 96 l 668 136 q 563 22 629 60 q 413 -15 497 -15 q 236 32 315 -15 q 111 165 157 79 q 65 361 65 250 q 111 558 65 472 q 236 690 157 643 q 413 738 315 738 q 563 700 497 738 q 668 586 629 663 l 575 532 q 410 626 515 626 q 251 556 313 626 q 190 361 190 485 q 251 167 190 238 q 410 96 313 96 z "},"ċ":{"ha":685,"x_min":65,"x_max":668,"o":"m 399 850 q 344 874 367 850 q 321 931 321 899 q 344 987 321 963 q 399 1011 367 1011 q 455 988 432 1011 q 478 931 478 964 q 454 874 478 899 q 399 850 431 850 m 410 96 q 575 190 515 96 l 668 136 q 563 22 629 60 q 413 -15 497 -15 q 236 32 315 -15 q 111 165 157 79 q 65 361 65 250 q 111 558 65 472 q 236 690 157 643 q 413 738 315 738 q 563 700 497 738 q 668 586 629 663 l 575 532 q 410 626 515 626 q 251 556 313 626 q 190 361 190 485 q 251 167 190 238 q 410 96 313 96 z "},"d":{"ha":843,"x_min":65,"x_max":736,"o":"m 618 1057 l 736 1057 l 736 0 l 632 0 q 624 122 629 72 q 520 19 585 53 q 383 -15 456 -15 q 227 29 300 -15 q 110 159 154 74 q 65 361 65 244 q 110 562 65 476 q 227 692 154 647 q 383 738 300 738 q 515 706 453 738 q 618 610 578 674 l 618 1057 m 397 96 q 553 160 488 96 q 618 361 618 224 q 553 561 618 497 q 397 625 488 625 q 246 556 303 625 q 189 361 189 486 q 246 165 189 235 q 397 96 303 96 z "},"ð":{"ha":821,"x_min":65,"x_max":756,"o":"m 522 903 q 695 665 635 799 q 756 394 756 531 q 710 181 756 275 q 587 36 665 88 q 411 -15 508 -15 q 234 33 313 -15 q 110 168 156 82 q 65 363 65 254 q 113 557 65 471 q 238 691 160 643 q 406 739 317 739 q 492 725 451 739 q 561 688 532 711 q 419 847 510 775 l 229 744 l 183 833 l 326 911 q 181 982 260 953 l 242 1072 q 436 972 340 1036 l 619 1072 l 668 982 l 522 903 m 411 96 q 570 169 510 96 q 631 363 631 242 q 570 556 631 483 q 411 628 510 628 q 251 555 313 628 q 190 363 190 482 q 251 169 190 242 q 411 96 313 96 z "},"ď":{"ha":901,"x_min":65,"x_max":957,"o":"m 878 1072 q 935 1046 913 1072 q 957 967 957 1019 q 914 852 957 897 q 800 794 871 807 l 800 851 q 886 933 878 875 l 876 933 q 830 953 847 933 q 813 1003 813 974 q 831 1052 813 1032 q 878 1072 849 1072 m 618 1057 l 736 1057 l 736 0 l 632 0 q 624 122 629 72 q 520 19 585 53 q 383 -15 456 -15 q 227 29 300 -15 q 110 159 154 74 q 65 361 65 244 q 110 562 65 476 q 227 692 154 647 q 383 738 300 738 q 515 706 453 738 q 618 610 578 674 l 618 1057 m 397 96 q 553 160 488 96 q 618 361 618 224 q 553 561 618 497 q 397 625 488 625 q 246 556 303 625 q 189 361 189 486 q 246 165 189 235 q 397 96 303 96 z "},"đ":{"ha":843,"x_min":65,"x_max":842,"o":"m 736 931 l 842 931 l 842 831 l 736 831 l 736 0 l 632 0 q 624 122 629 72 q 520 19 585 53 q 383 -15 456 -15 q 227 29 300 -15 q 110 159 154 74 q 65 361 65 244 q 110 562 65 476 q 227 692 154 647 q 383 738 300 738 q 515 706 453 738 q 618 610 578 674 l 618 831 l 424 831 l 424 931 l 618 931 l 618 1057 l 736 1057 l 736 931 m 397 96 q 553 160 488 96 q 618 361 618 224 q 553 561 618 497 q 397 625 488 625 q 246 556 303 625 q 189 361 189 486 q 246 165 189 235 q 397 96 303 96 z "},"e":{"ha":760,"x_min":65,"x_max":715,"o":"m 407 738 q 570 694 500 738 q 678 575 640 650 q 715 408 715 500 q 710 338 715 369 l 190 338 q 261 153 197 214 q 422 93 325 93 q 597 190 543 93 l 688 139 q 584 25 660 65 q 415 -15 508 -15 q 238 29 318 -15 q 112 159 158 74 q 65 364 65 244 q 112 564 65 479 q 236 693 158 649 q 407 738 314 738 m 403 629 q 267 579 325 629 q 194 433 210 529 l 588 433 q 533 578 583 526 q 403 629 483 629 z "},"é":{"ha":760,"x_min":65,"x_max":715,"o":"m 346 822 l 460 1036 l 590 1036 l 450 822 l 346 822 m 407 738 q 570 694 500 738 q 678 575 640 650 q 715 408 715 500 q 710 338 715 369 l 190 338 q 261 153 197 214 q 422 93 325 93 q 597 190 543 93 l 688 139 q 584 25 660 65 q 415 -15 508 -15 q 238 29 318 -15 q 112 159 158 74 q 65 364 65 244 q 112 564 65 479 q 236 693 158 649 q 407 738 314 738 m 403 629 q 267 579 325 629 q 194 433 210 529 l 588 433 q 533 578 583 526 q 403 629 483 629 z "},"ĕ":{"ha":760,"x_min":65,"x_max":715,"o":"m 407 821 q 249 878 308 821 q 190 1035 190 936 l 299 1035 q 328 944 301 976 q 407 913 356 913 q 517 1035 510 913 l 625 1035 q 566 878 625 936 q 407 821 507 821 m 407 738 q 570 694 500 738 q 678 575 640 650 q 715 408 715 500 q 710 338 715 369 l 190 338 q 261 153 197 214 q 422 93 325 93 q 597 190 543 93 l 688 139 q 584 25 660 65 q 415 -15 508 -15 q 238 29 318 -15 q 112 159 158 74 q 65 364 65 244 q 112 564 65 479 q 236 693 158 649 q 407 738 314 738 m 403 629 q 267 579 325 629 q 194 433 210 529 l 588 433 q 533 578 583 526 q 403 629 483 629 z "},"ě":{"ha":760,"x_min":65,"x_max":715,"o":"m 311 1036 l 407 907 l 501 1036 l 621 1036 l 461 822 l 351 822 l 192 1036 l 311 1036 m 407 738 q 570 694 500 738 q 678 575 640 650 q 715 408 715 500 q 710 338 715 369 l 190 338 q 261 153 197 214 q 422 93 325 93 q 597 190 543 93 l 688 139 q 584 25 660 65 q 415 -15 508 -15 q 238 29 318 -15 q 112 159 158 74 q 65 364 65 244 q 112 564 65 479 q 236 693 158 649 q 407 738 314 738 m 403 629 q 267 579 325 629 q 194 433 210 529 l 588 433 q 533 578 583 526 q 403 629 483 629 z "},"ê":{"ha":760,"x_min":65,"x_max":715,"o":"m 350 1036 l 461 1036 l 621 822 l 501 822 l 406 950 l 310 822 l 190 822 l 350 1036 m 407 738 q 570 694 500 738 q 678 575 640 650 q 715 408 715 500 q 710 338 715 369 l 190 338 q 261 153 197 214 q 422 93 325 93 q 597 190 543 93 l 688 139 q 584 25 660 65 q 415 -15 508 -15 q 238 29 318 -15 q 112 159 158 74 q 65 364 65 244 q 112 564 65 479 q 236 693 158 649 q 407 738 314 738 m 403 629 q 267 579 325 629 q 194 433 210 529 l 588 433 q 533 578 583 526 q 403 629 483 629 z "},"ế":{"ha":760,"x_min":65,"x_max":742,"o":"m 497 1063 l 611 1276 l 742 1276 l 601 1063 l 497 1063 m 349 1036 l 458 1036 l 618 822 l 499 822 l 404 951 l 308 822 l 189 822 l 349 1036 m 407 738 q 570 694 500 738 q 678 575 640 650 q 715 408 715 500 q 710 338 715 369 l 190 338 q 261 153 197 214 q 422 93 325 93 q 597 190 543 93 l 688 139 q 584 25 660 65 q 415 -15 508 -15 q 238 29 318 -15 q 112 159 158 74 q 65 364 65 244 q 112 564 65 479 q 236 693 158 649 q 407 738 314 738 m 403 629 q 267 579 325 629 q 194 433 210 529 l 588 433 q 533 578 583 526 q 403 629 483 629 z "},"ệ":{"ha":760,"x_min":65,"x_max":715,"o":"m 350 1036 l 461 1036 l 621 822 l 501 822 l 406 950 l 310 822 l 190 822 l 350 1036 m 407 738 q 570 694 500 738 q 678 575 640 650 q 715 408 715 500 q 710 338 715 369 l 190 338 q 261 153 197 214 q 422 93 325 93 q 597 190 543 93 l 688 139 q 584 25 660 65 q 415 -15 508 -15 q 238 29 318 -15 q 112 159 158 74 q 65 364 65 244 q 112 564 65 479 q 236 693 158 649 q 407 738 314 738 m 403 629 q 267 579 325 629 q 194 433 210 529 l 588 433 q 533 578 583 526 q 403 629 483 629 m 414 -261 q 359 -237 382 -261 q 336 -181 336 -212 q 359 -124 336 -149 q 414 -100 382 -100 q 470 -124 447 -100 q 493 -181 493 -147 q 469 -237 493 -212 q 414 -261 446 -261 z "},"ề":{"ha":760,"x_min":65,"x_max":715,"o":"m 375 1276 l 506 1276 l 619 1063 l 515 1063 l 375 1276 m 349 1036 l 458 1036 l 618 822 l 499 822 l 404 951 l 308 822 l 189 822 l 349 1036 m 407 738 q 570 694 500 738 q 678 575 640 650 q 715 408 715 500 q 710 338 715 369 l 190 338 q 261 153 197 214 q 422 93 325 93 q 597 190 543 93 l 688 139 q 584 25 660 65 q 415 -15 508 -15 q 238 29 318 -15 q 112 159 158 74 q 65 364 65 244 q 112 564 65 479 q 236 693 158 649 q 407 738 314 738 m 403 629 q 267 579 325 629 q 194 433 210 529 l 588 433 q 533 578 583 526 q 403 629 483 629 z "},"ể":{"ha":760,"x_min":65,"x_max":715,"o":"m 446 1250 q 553 1278 490 1278 q 656 1247 615 1278 q 697 1157 697 1217 q 564 1007 697 1053 l 514 1072 q 575 1104 554 1088 q 596 1144 596 1121 q 578 1181 596 1167 q 533 1194 561 1194 q 461 1172 499 1194 l 446 1250 m 349 1036 l 458 1036 l 618 822 l 499 822 l 404 951 l 308 822 l 189 822 l 349 1036 m 407 738 q 570 694 500 738 q 678 575 640 650 q 715 408 715 500 q 710 338 715 369 l 190 338 q 261 153 197 214 q 422 93 325 93 q 597 190 543 93 l 688 139 q 584 25 660 65 q 415 -15 508 -15 q 238 29 318 -15 q 112 159 158 74 q 65 364 65 244 q 112 564 65 479 q 236 693 158 649 q 407 738 314 738 m 403 629 q 267 579 325 629 q 194 433 210 529 l 588 433 q 533 578 583 526 q 403 629 483 629 z "},"ễ":{"ha":760,"x_min":65,"x_max":715,"o":"m 324 1164 q 272 1090 283 1164 l 175 1090 q 217 1218 178 1169 q 318 1267 256 1267 q 381 1252 357 1267 q 431 1210 404 1238 q 460 1183 449 1192 q 485 1175 471 1175 q 519 1196 506 1175 q 536 1249 532 1217 l 633 1249 q 592 1121 631 1169 q 490 1072 553 1072 q 428 1087 451 1072 q 378 1129 404 1101 q 349 1156 360 1147 q 324 1164 338 1164 m 347 1036 l 457 1036 l 617 822 l 497 822 l 403 951 l 307 822 l 188 822 l 347 1036 m 407 738 q 570 694 500 738 q 678 575 640 650 q 715 408 715 500 q 710 338 715 369 l 190 338 q 261 153 197 214 q 422 93 325 93 q 597 190 543 93 l 688 139 q 584 25 660 65 q 415 -15 508 -15 q 238 29 318 -15 q 112 159 158 74 q 65 364 65 244 q 112 564 65 479 q 236 693 158 649 q 407 738 314 738 m 403 629 q 267 579 325 629 q 194 433 210 529 l 588 433 q 533 578 583 526 q 403 629 483 629 z "},"ë":{"ha":760,"x_min":65,"x_max":715,"o":"m 264 849 q 209 872 232 849 q 186 929 186 896 q 209 986 186 963 q 264 1010 232 1010 q 320 986 297 1010 q 343 929 343 963 q 320 872 343 896 q 264 849 297 849 m 549 849 q 494 872 517 849 q 471 929 471 896 q 494 986 471 963 q 549 1010 517 1010 q 605 986 582 1010 q 628 929 628 963 q 605 872 628 896 q 549 849 582 849 m 407 738 q 570 694 500 738 q 678 575 640 650 q 715 408 715 500 q 710 338 715 369 l 190 338 q 261 153 197 214 q 422 93 325 93 q 597 190 543 93 l 688 139 q 584 25 660 65 q 415 -15 508 -15 q 238 29 318 -15 q 112 159 158 74 q 65 364 65 244 q 112 564 65 479 q 236 693 158 649 q 407 738 314 738 m 403 629 q 267 579 325 629 q 194 433 210 529 l 588 433 q 533 578 583 526 q 403 629 483 629 z "},"ė":{"ha":760,"x_min":65,"x_max":715,"o":"m 407 849 q 352 873 375 849 q 329 929 329 897 q 352 985 329 961 q 407 1010 375 1010 q 463 986 440 1010 q 486 929 486 963 q 463 873 486 897 q 407 849 439 849 m 407 738 q 570 694 500 738 q 678 575 640 650 q 715 408 715 500 q 710 338 715 369 l 190 338 q 261 153 197 214 q 422 93 325 93 q 597 190 543 93 l 688 139 q 584 25 660 65 q 415 -15 508 -15 q 238 29 318 -15 q 112 159 158 74 q 65 364 65 244 q 112 564 65 479 q 236 693 158 649 q 407 738 314 738 m 403 629 q 267 579 325 629 q 194 433 210 529 l 588 433 q 533 578 583 526 q 403 629 483 629 z "},"ẹ":{"ha":760,"x_min":65,"x_max":715,"o":"m 407 738 q 570 694 500 738 q 678 575 640 650 q 715 408 715 500 q 710 338 715 369 l 190 338 q 261 153 197 214 q 422 93 325 93 q 597 190 543 93 l 688 139 q 584 25 660 65 q 415 -15 508 -15 q 238 29 318 -15 q 112 159 158 74 q 65 364 65 244 q 112 564 65 479 q 236 693 158 649 q 407 738 314 738 m 403 629 q 267 579 325 629 q 194 433 210 529 l 588 433 q 533 578 583 526 q 403 629 483 629 m 414 -261 q 359 -237 382 -261 q 336 -181 336 -212 q 359 -124 336 -149 q 414 -100 382 -100 q 470 -124 447 -100 q 493 -181 493 -147 q 469 -237 493 -212 q 414 -261 446 -261 z "},"è":{"ha":760,"x_min":65,"x_max":715,"o":"m 224 1036 l 354 1036 l 468 822 l 364 822 l 224 1036 m 407 738 q 570 694 500 738 q 678 575 640 650 q 715 408 715 500 q 710 338 715 369 l 190 338 q 261 153 197 214 q 422 93 325 93 q 597 190 543 93 l 688 139 q 584 25 660 65 q 415 -15 508 -15 q 238 29 318 -15 q 112 159 158 74 q 65 364 65 244 q 112 564 65 479 q 236 693 158 649 q 407 738 314 738 m 403 629 q 267 579 325 629 q 194 433 210 529 l 588 433 q 533 578 583 526 q 403 629 483 629 z "},"ẻ":{"ha":760,"x_min":65,"x_max":715,"o":"m 282 1038 q 389 1065 326 1065 q 492 1035 451 1065 q 533 944 533 1004 q 400 794 533 840 l 350 860 q 411 892 390 875 q 432 932 432 908 q 415 968 432 954 q 369 982 397 982 q 297 960 335 982 l 282 1038 m 407 738 q 570 694 500 738 q 678 575 640 650 q 715 408 715 500 q 710 338 715 369 l 190 338 q 261 153 197 214 q 422 93 325 93 q 597 190 543 93 l 688 139 q 584 25 660 65 q 415 -15 508 -15 q 238 29 318 -15 q 112 159 158 74 q 65 364 65 244 q 112 564 65 479 q 236 693 158 649 q 407 738 314 738 m 403 629 q 267 579 325 629 q 194 433 210 529 l 588 433 q 533 578 583 526 q 403 629 483 629 z "},"ē":{"ha":760,"x_min":65,"x_max":715,"o":"m 185 878 l 185 981 l 629 981 l 629 878 l 185 878 m 407 738 q 570 694 500 738 q 678 575 640 650 q 715 408 715 500 q 710 338 715 369 l 190 338 q 261 153 197 214 q 422 93 325 93 q 597 190 543 93 l 688 139 q 584 25 660 65 q 415 -15 508 -15 q 238 29 318 -15 q 112 159 158 74 q 65 364 65 244 q 112 564 65 479 q 236 693 158 649 q 407 738 314 738 m 403 629 q 267 579 325 629 q 194 433 210 529 l 588 433 q 533 578 583 526 q 403 629 483 629 z "},"ę":{"ha":760,"x_min":65,"x_max":715,"o":"m 407 738 q 570 694 500 738 q 678 575 640 650 q 715 408 715 500 q 710 338 715 369 l 190 338 q 261 153 197 214 q 422 93 325 93 q 597 190 543 93 l 688 139 q 608 42 665 82 q 469 -76 508 -32 q 431 -169 431 -121 q 453 -228 431 -211 q 515 -244 475 -244 q 615 -207 571 -244 l 661 -275 q 594 -322 635 -306 q 507 -339 554 -339 q 381 -302 432 -339 q 329 -185 329 -265 q 351 -95 329 -136 q 414 -15 372 -54 q 238 29 317 -15 q 112 159 158 74 q 65 364 65 244 q 112 564 65 479 q 236 693 158 649 q 407 738 314 738 m 588 433 q 533 578 583 526 q 403 629 483 629 q 267 579 325 629 q 194 433 210 529 l 588 433 z "},"ẽ":{"ha":760,"x_min":65,"x_max":715,"o":"m 178 850 q 219 978 181 929 q 321 1026 258 1026 q 383 1012 360 1026 q 433 969 407 997 q 463 943 451 951 q 488 935 474 935 q 522 956 508 935 q 539 1008 535 976 l 636 1008 q 594 881 633 929 q 493 832 556 832 q 431 847 454 832 q 381 889 407 861 q 351 915 363 907 q 326 924 340 924 q 275 850 286 924 l 178 850 m 407 738 q 570 694 500 738 q 678 575 640 650 q 715 408 715 500 q 710 338 715 369 l 190 338 q 261 153 197 214 q 422 93 325 93 q 597 190 543 93 l 688 139 q 584 25 660 65 q 415 -15 508 -15 q 238 29 318 -15 q 112 159 158 74 q 65 364 65 244 q 112 564 65 479 q 236 693 158 649 q 407 738 314 738 m 403 629 q 267 579 325 629 q 194 433 210 529 l 588 433 q 533 578 583 526 q 403 629 483 629 z "},"ə":{"ha":760,"x_min":44,"x_max":694,"o":"m 344 738 q 522 693 442 738 q 648 563 601 649 q 694 358 694 478 q 648 158 694 243 q 524 29 601 74 q 353 -15 446 -15 q 190 28 260 -15 q 82 147 119 72 q 44 314 44 222 q 50 385 44 353 l 569 385 q 499 569 563 508 q 338 629 435 629 q 163 532 217 629 l 72 583 q 176 697 100 657 q 344 738 253 738 m 357 93 q 492 143 435 93 q 565 289 550 193 l 172 289 q 226 144 176 196 q 357 93 276 93 z "},"ʒ":{"ha":688,"x_min":-17,"x_max":649,"o":"m 319 322 q 567 226 485 317 q 649 0 649 135 q 603 -180 649 -103 q 481 -298 558 -257 q 306 -339 403 -339 q 104 -281 192 -339 q -17 -110 17 -224 l 83 -54 q 170 -184 111 -140 q 307 -228 229 -228 q 464 -165 404 -228 q 524 1 524 -103 q 460 158 524 97 q 258 218 396 218 q 172 213 213 218 l 172 311 l 444 621 l 36 621 l 36 722 l 613 722 l 613 643 l 319 322 z "},"ǯ":{"ha":688,"x_min":-17,"x_max":649,"o":"m 226 1038 l 322 908 l 417 1038 l 536 1038 l 376 824 l 267 824 l 107 1038 l 226 1038 m 319 322 q 567 226 485 317 q 649 0 649 135 q 603 -180 649 -103 q 481 -298 558 -257 q 306 -339 403 -339 q 104 -281 192 -339 q -17 -110 17 -224 l 83 -54 q 170 -184 111 -140 q 307 -228 229 -228 q 464 -165 404 -228 q 524 1 524 -103 q 460 158 524 97 q 258 218 396 218 q 172 213 213 218 l 172 311 l 444 621 l 36 621 l 36 722 l 613 722 l 613 643 l 319 322 z "},"f":{"ha":478,"x_min":28,"x_max":524,"o":"m 389 961 q 301 924 331 961 q 271 792 271 886 l 271 722 l 458 722 l 458 621 l 271 621 l 271 0 l 153 0 l 153 621 l 28 621 l 28 722 l 153 722 l 153 794 q 218 1006 153 939 q 383 1072 283 1072 q 465 1060 428 1072 q 524 1031 501 1049 l 476 936 q 389 961 438 961 z "},"g":{"ha":843,"x_min":65,"x_max":736,"o":"m 736 722 l 736 46 q 636 -251 736 -164 q 399 -339 536 -339 q 208 -293 292 -339 q 94 -164 125 -247 l 190 -110 q 400 -228 244 -228 q 560 -167 501 -228 q 618 49 618 -106 l 618 111 q 516 16 578 47 q 383 -15 454 -15 q 228 30 301 -15 q 110 160 156 75 q 65 361 65 246 q 110 563 65 476 q 228 693 154 649 q 383 738 301 738 q 520 703 456 738 q 624 600 585 668 q 632 722 631 665 l 736 722 m 397 96 q 553 160 488 96 q 618 361 618 224 q 553 561 618 497 q 397 625 488 625 q 246 556 303 625 q 189 361 189 486 q 246 165 189 235 q 397 96 303 96 z "},"ğ":{"ha":843,"x_min":65,"x_max":736,"o":"m 397 822 q 240 880 299 822 q 181 1036 181 938 l 289 1036 q 319 946 292 978 q 397 914 346 914 q 507 1036 500 914 l 615 1036 q 556 880 615 938 q 397 822 497 822 m 736 722 l 736 46 q 636 -251 736 -164 q 399 -339 536 -339 q 208 -293 292 -339 q 94 -164 125 -247 l 190 -110 q 400 -228 244 -228 q 560 -167 501 -228 q 618 49 618 -106 l 618 111 q 516 16 578 47 q 383 -15 454 -15 q 228 30 301 -15 q 110 160 156 75 q 65 361 65 246 q 110 563 65 476 q 228 693 154 649 q 383 738 301 738 q 520 703 456 738 q 624 600 585 668 q 632 722 631 665 l 736 722 m 397 96 q 553 160 488 96 q 618 361 618 224 q 553 561 618 497 q 397 625 488 625 q 246 556 303 625 q 189 361 189 486 q 246 165 189 235 q 397 96 303 96 z "},"ǧ":{"ha":843,"x_min":65,"x_max":736,"o":"m 301 1038 l 397 908 l 492 1038 l 611 1038 l 451 824 l 342 824 l 182 1038 l 301 1038 m 736 722 l 736 46 q 636 -251 736 -164 q 399 -339 536 -339 q 208 -293 292 -339 q 94 -164 125 -247 l 190 -110 q 400 -228 244 -228 q 560 -167 501 -228 q 618 49 618 -106 l 618 111 q 516 16 578 47 q 383 -15 454 -15 q 228 30 301 -15 q 110 160 156 75 q 65 361 65 246 q 110 563 65 476 q 228 693 154 649 q 383 738 301 738 q 520 703 456 738 q 624 600 585 668 q 632 722 631 665 l 736 722 m 397 96 q 553 160 488 96 q 618 361 618 224 q 553 561 618 497 q 397 625 488 625 q 246 556 303 625 q 189 361 189 486 q 246 165 189 235 q 397 96 303 96 z "},"ĝ":{"ha":843,"x_min":65,"x_max":736,"o":"m 340 1038 l 451 1038 l 611 824 l 492 824 l 396 951 l 300 824 l 181 824 l 340 1038 m 736 722 l 736 46 q 636 -251 736 -164 q 399 -339 536 -339 q 208 -293 292 -339 q 94 -164 125 -247 l 190 -110 q 400 -228 244 -228 q 560 -167 501 -228 q 618 49 618 -106 l 618 111 q 516 16 578 47 q 383 -15 454 -15 q 228 30 301 -15 q 110 160 156 75 q 65 361 65 246 q 110 563 65 476 q 228 693 154 649 q 383 738 301 738 q 520 703 456 738 q 624 600 585 668 q 632 722 631 665 l 736 722 m 397 96 q 553 160 488 96 q 618 361 618 224 q 553 561 618 497 q 397 625 488 625 q 246 556 303 625 q 189 361 189 486 q 246 165 189 235 q 397 96 303 96 z "},"ģ":{"ha":843,"x_min":65,"x_max":736,"o":"m 393 844 q 333 872 357 844 q 310 957 310 900 q 355 1078 310 1031 q 475 1139 400 1126 l 475 1079 q 411 1045 433 1067 q 385 990 389 1024 q 397 992 389 992 q 445 970 428 992 q 463 918 463 949 q 443 865 463 886 q 393 844 424 844 m 736 722 l 736 46 q 636 -251 736 -164 q 399 -339 536 -339 q 208 -293 292 -339 q 94 -164 125 -247 l 190 -110 q 400 -228 244 -228 q 560 -167 501 -228 q 618 49 618 -106 l 618 111 q 516 16 578 47 q 383 -15 454 -15 q 228 30 301 -15 q 110 160 156 75 q 65 361 65 246 q 110 563 65 476 q 228 693 154 649 q 383 738 301 738 q 520 703 456 738 q 624 600 585 668 q 632 722 631 665 l 736 722 m 397 96 q 553 160 488 96 q 618 361 618 224 q 553 561 618 497 q 397 625 488 625 q 246 556 303 625 q 189 361 189 486 q 246 165 189 235 q 397 96 303 96 z "},"ġ":{"ha":843,"x_min":65,"x_max":736,"o":"m 397 850 q 342 874 365 850 q 319 931 319 899 q 342 987 319 963 q 397 1011 365 1011 q 453 988 431 1011 q 476 931 476 964 q 453 874 476 899 q 397 850 429 850 m 736 722 l 736 46 q 636 -251 736 -164 q 399 -339 536 -339 q 208 -293 292 -339 q 94 -164 125 -247 l 190 -110 q 400 -228 244 -228 q 560 -167 501 -228 q 618 49 618 -106 l 618 111 q 516 16 578 47 q 383 -15 454 -15 q 228 30 301 -15 q 110 160 156 75 q 65 361 65 246 q 110 563 65 476 q 228 693 154 649 q 383 738 301 738 q 520 703 456 738 q 624 600 585 668 q 632 722 631 665 l 736 722 m 397 96 q 553 160 488 96 q 618 361 618 224 q 553 561 618 497 q 397 625 488 625 q 246 556 303 625 q 189 361 189 486 q 246 165 189 235 q 397 96 303 96 z "},"ɡ":{"ha":843,"x_min":65,"x_max":736,"o":"m 736 722 l 736 46 q 636 -251 736 -164 q 399 -339 536 -339 q 208 -293 292 -339 q 94 -164 125 -247 l 190 -110 q 400 -228 244 -228 q 560 -167 501 -228 q 618 49 618 -106 l 618 111 q 516 16 578 47 q 383 -15 454 -15 q 228 30 301 -15 q 110 160 156 75 q 65 361 65 246 q 110 563 65 476 q 228 693 154 649 q 383 738 301 738 q 520 703 456 738 q 624 600 585 668 q 632 722 631 665 l 736 722 m 397 96 q 553 160 488 96 q 618 361 618 224 q 553 561 618 497 q 397 625 488 625 q 246 556 303 625 q 189 361 189 486 q 246 165 189 235 q 397 96 303 96 z "},"ǥ":{"ha":874,"x_min":65,"x_max":861,"o":"m 65 361 q 110 563 65 476 q 228 693 154 649 q 383 738 301 738 q 520 703 456 738 q 624 600 585 668 q 632 722 631 665 l 736 722 l 736 411 l 861 411 l 861 311 l 736 311 l 736 46 q 636 -251 736 -164 q 399 -339 536 -339 q 208 -293 292 -339 q 94 -164 125 -247 l 190 -110 q 400 -228 244 -228 q 560 -167 501 -228 q 618 49 618 -106 l 618 111 q 516 16 578 47 q 383 -15 454 -15 q 228 30 301 -15 q 110 160 156 75 q 65 361 65 246 m 397 96 q 540 148 478 96 q 615 311 603 200 l 435 311 l 435 411 l 615 411 q 540 573 603 521 q 397 625 478 625 q 246 556 303 625 q 189 361 189 486 q 246 165 189 235 q 397 96 303 96 z "},"h":{"ha":806,"x_min":107,"x_max":710,"o":"m 456 738 q 639 661 568 738 q 710 444 710 585 l 710 0 l 592 0 l 592 411 q 551 569 592 514 q 429 625 510 625 q 330 601 376 625 q 254 528 283 576 q 225 410 225 481 l 225 0 l 107 0 l 107 1057 l 225 1057 l 225 613 q 322 706 263 674 q 456 738 382 738 z "},"ħ":{"ha":822,"x_min":18,"x_max":726,"o":"m 472 738 q 656 661 585 738 q 726 444 726 585 l 726 0 l 607 0 l 607 411 q 567 569 607 514 q 446 625 526 625 q 347 601 393 625 q 271 528 300 576 q 242 410 242 481 l 242 0 l 124 0 l 124 831 l 18 831 l 18 931 l 124 931 l 124 1057 l 242 1057 l 242 931 l 465 931 l 465 831 l 242 831 l 242 613 q 339 706 279 674 q 472 738 399 738 z "},"ȟ":{"ha":806,"x_min":-49,"x_max":710,"o":"m 74 1289 l 167 1204 l 258 1289 l 381 1289 l 221 1144 l 111 1144 l -49 1289 l 74 1289 m 456 738 q 639 661 568 738 q 710 444 710 585 l 710 0 l 592 0 l 592 411 q 551 569 592 514 q 429 625 510 625 q 330 601 376 625 q 254 528 283 576 q 225 410 225 481 l 225 0 l 107 0 l 107 1057 l 225 1057 l 225 613 q 322 706 263 674 q 456 738 382 738 z "},"ĥ":{"ha":806,"x_min":-49,"x_max":710,"o":"m 111 1289 l 221 1289 l 381 1144 l 258 1144 l 167 1229 l 74 1144 l -49 1144 l 111 1289 m 456 738 q 639 661 568 738 q 710 444 710 585 l 710 0 l 592 0 l 592 411 q 551 569 592 514 q 429 625 510 625 q 330 601 376 625 q 254 528 283 576 q 225 410 225 481 l 225 0 l 107 0 l 107 1057 l 225 1057 l 225 613 q 322 706 263 674 q 456 738 382 738 z "},"i":{"ha":335,"x_min":89,"x_max":246,"o":"m 167 850 q 112 874 135 850 q 89 931 89 899 q 112 987 89 963 q 167 1011 135 1011 q 223 988 200 1011 q 246 931 246 964 q 222 874 246 899 q 167 850 199 850 m 225 0 l 107 0 l 107 721 l 225 721 l 225 0 z "},"ı":{"ha":332,"x_min":107,"x_max":225,"o":"m 107 0 l 107 721 l 225 721 l 225 0 l 107 0 z "},"í":{"ha":332,"x_min":106,"x_max":350,"o":"m 106 824 l 219 1038 l 350 1038 l 210 824 l 106 824 m 107 0 l 107 721 l 225 721 l 225 0 l 107 0 z "},"ĭ":{"ha":332,"x_min":-50,"x_max":385,"o":"m 167 822 q 9 880 68 822 q -50 1036 -50 938 l 58 1036 q 88 946 61 978 q 167 914 115 914 q 276 1036 269 914 l 385 1036 q 326 880 385 938 q 167 822 267 822 m 107 0 l 107 721 l 225 721 l 225 0 l 107 0 z "},"ǐ":{"ha":332,"x_min":-49,"x_max":381,"o":"m 71 1038 l 167 908 l 261 1038 l 381 1038 l 221 824 l 111 824 l -49 1038 l 71 1038 m 107 0 l 107 721 l 225 721 l 225 0 l 107 0 z "},"î":{"ha":332,"x_min":-50,"x_max":381,"o":"m 110 1038 l 221 1038 l 381 824 l 261 824 l 165 951 l 69 824 l -50 824 l 110 1038 m 107 0 l 107 721 l 225 721 l 225 0 l 107 0 z "},"ï":{"ha":332,"x_min":-54,"x_max":388,"o":"m 24 850 q -31 874 -8 850 q -54 931 -54 897 q -31 988 -54 964 q 24 1011 -8 1011 q 80 988 57 1011 q 103 931 103 964 q 80 874 103 897 q 24 850 57 850 m 308 850 q 253 874 276 850 q 231 931 231 897 q 253 988 231 964 q 308 1011 276 1011 q 365 988 342 1011 q 388 931 388 964 q 365 874 388 897 q 308 850 342 850 m 107 0 l 107 721 l 225 721 l 225 0 l 107 0 z "},"ị":{"ha":335,"x_min":89,"x_max":246,"o":"m 167 850 q 112 874 135 850 q 89 931 89 899 q 112 987 89 963 q 167 1011 135 1011 q 223 988 200 1011 q 246 931 246 964 q 222 874 246 899 q 167 850 199 850 m 225 0 l 107 0 l 107 721 l 225 721 l 225 0 m 167 -261 q 112 -237 135 -261 q 89 -181 89 -212 q 112 -124 89 -149 q 167 -100 135 -100 q 223 -124 200 -100 q 246 -181 246 -147 q 222 -237 246 -212 q 167 -261 199 -261 z "},"ì":{"ha":332,"x_min":-17,"x_max":228,"o":"m -17 1038 l 114 1038 l 228 824 l 124 824 l -17 1038 m 107 0 l 107 721 l 225 721 l 225 0 l 107 0 z "},"ỉ":{"ha":332,"x_min":42,"x_max":293,"o":"m 42 1039 q 149 1067 86 1067 q 252 1036 211 1067 q 293 946 293 1006 q 160 796 293 842 l 110 861 q 171 893 150 876 q 192 933 192 910 q 174 969 192 956 q 129 983 157 983 q 57 961 94 983 l 42 1039 m 107 0 l 107 721 l 225 721 l 225 0 l 107 0 z "},"ĳ":{"ha":668,"x_min":89,"x_max":579,"o":"m 167 850 q 112 874 135 850 q 89 931 89 899 q 112 987 89 963 q 167 1011 135 1011 q 223 988 200 1011 q 246 931 246 964 q 222 874 246 899 q 167 850 199 850 m 500 850 q 446 874 469 850 q 422 931 422 899 q 445 987 422 963 q 500 1011 468 1011 q 556 988 533 1011 q 579 931 579 964 q 556 874 579 897 q 500 850 533 850 m 225 0 l 107 0 l 107 721 l 225 721 l 225 0 m 324 -339 q 238 -324 279 -339 q 169 -278 196 -308 l 240 -192 q 321 -228 275 -228 q 442 -57 442 -228 l 442 721 l 560 721 l 560 -61 q 526 -220 560 -158 q 438 -310 492 -282 q 324 -339 385 -339 z "},"ī":{"ha":332,"x_min":-56,"x_max":389,"o":"m -56 879 l -56 982 l 389 982 l 389 879 l -56 879 m 107 0 l 107 721 l 225 721 l 225 0 l 107 0 z "},"į":{"ha":332,"x_min":-29,"x_max":301,"o":"m 167 850 q 112 874 135 850 q 89 931 89 899 q 112 987 89 963 q 167 1011 135 1011 q 223 988 200 1011 q 246 931 246 964 q 222 874 246 899 q 167 850 199 850 m 301 -268 q 235 -320 275 -301 q 146 -339 194 -339 q 22 -299 74 -339 q -29 -183 -29 -258 q 107 14 -29 -71 l 107 721 l 225 721 l 225 0 q 109 -85 146 -44 q 72 -172 72 -125 q 94 -230 72 -211 q 151 -249 115 -249 q 256 -201 208 -249 l 301 -268 z "},"ĩ":{"ha":332,"x_min":-62,"x_max":396,"o":"m -62 851 q -21 979 -60 931 q 81 1028 18 1028 q 143 1013 119 1028 q 193 971 167 999 q 222 944 211 953 q 247 936 233 936 q 281 957 268 936 q 299 1010 294 978 l 396 1010 q 354 882 393 931 q 253 833 315 833 q 190 848 214 833 q 140 890 167 863 q 111 917 122 908 q 86 925 100 925 q 35 851 46 925 l -62 851 m 107 0 l 107 721 l 225 721 l 225 0 l 107 0 z "},"j":{"ha":333,"x_min":-165,"x_max":244,"o":"m 165 850 q 111 874 135 850 q 88 931 88 899 q 110 987 88 963 q 165 1011 133 1011 q 222 988 199 1011 q 244 931 244 964 q 222 874 244 897 q 165 850 199 850 m -11 -339 q -97 -324 -56 -339 q -165 -278 -139 -308 l -94 -192 q -14 -228 -60 -228 q 107 -57 107 -228 l 107 721 l 225 721 l 225 -61 q 191 -220 225 -158 q 103 -310 157 -282 q -11 -339 50 -339 z "},"ȷ":{"ha":333,"x_min":-165,"x_max":225,"o":"m -11 -339 q -97 -324 -56 -339 q -165 -278 -139 -308 l -94 -192 q -14 -228 -60 -228 q 107 -57 107 -228 l 107 721 l 225 721 l 225 -61 q 191 -220 225 -158 q 103 -310 157 -282 q -11 -339 50 -339 z "},"ǰ":{"ha":333,"x_min":-165,"x_max":381,"o":"m 71 1038 l 167 908 l 261 1038 l 381 1038 l 221 824 l 111 824 l -49 1038 l 71 1038 m -11 -339 q -97 -324 -56 -339 q -165 -278 -139 -308 l -94 -192 q -14 -228 -60 -228 q 107 -57 107 -228 l 107 721 l 225 721 l 225 -61 q 191 -220 225 -158 q 103 -310 157 -282 q -11 -339 50 -339 z "},"ĵ":{"ha":333,"x_min":-165,"x_max":381,"o":"m 110 1038 l 221 1038 l 381 824 l 261 824 l 165 951 l 69 824 l -50 824 l 110 1038 m -11 -339 q -97 -324 -56 -339 q -165 -278 -139 -308 l -94 -192 q -14 -228 -60 -228 q 107 -57 107 -228 l 107 721 l 225 721 l 225 -61 q 191 -220 225 -158 q 103 -310 157 -282 q -11 -339 50 -339 z "},"k":{"ha":726,"x_min":107,"x_max":731,"o":"m 432 422 l 731 0 l 582 0 l 350 331 l 225 192 l 225 0 l 107 0 l 107 1057 l 225 1057 l 225 343 l 556 721 l 700 721 l 432 422 z "},"ǩ":{"ha":726,"x_min":-49,"x_max":731,"o":"m 74 1289 l 167 1204 l 258 1289 l 381 1289 l 221 1144 l 111 1144 l -49 1289 l 74 1289 m 432 422 l 731 0 l 582 0 l 350 331 l 225 192 l 225 0 l 107 0 l 107 1057 l 225 1057 l 225 343 l 556 721 l 700 721 l 432 422 z "},"ķ":{"ha":726,"x_min":107,"x_max":731,"o":"m 556 721 l 700 721 l 432 422 l 731 0 l 582 0 l 350 331 l 225 192 l 225 0 l 107 0 l 107 1057 l 225 1057 l 225 343 l 556 721 m 397 -56 q 457 -82 433 -56 q 481 -164 481 -108 q 435 -281 481 -235 q 315 -339 390 -326 l 315 -282 q 379 -249 357 -269 q 406 -197 401 -229 l 396 -197 q 346 -176 364 -197 q 328 -126 328 -156 q 347 -76 328 -96 q 397 -56 367 -56 z "},"ĸ":{"ha":726,"x_min":107,"x_max":731,"o":"m 432 422 l 731 0 l 582 0 l 350 331 l 225 192 l 225 0 l 107 0 l 107 722 l 225 722 l 225 343 l 556 721 l 700 721 l 432 422 z "},"l":{"ha":332,"x_min":107,"x_max":225,"o":"m 225 0 l 107 0 l 107 1057 l 225 1057 l 225 0 z "},"ĺ":{"ha":332,"x_min":107,"x_max":368,"o":"m 124 1151 l 238 1289 l 368 1289 l 228 1151 l 124 1151 m 225 0 l 107 0 l 107 1057 l 225 1057 l 225 0 z "},"ľ":{"ha":390,"x_min":107,"x_max":446,"o":"m 367 1072 q 424 1046 401 1072 q 446 967 446 1019 q 403 852 446 897 q 289 794 360 807 l 289 851 q 375 933 367 875 l 365 933 q 319 953 336 933 q 301 1003 301 974 q 319 1052 301 1032 q 367 1072 338 1072 m 225 0 l 107 0 l 107 1057 l 225 1057 l 225 0 z "},"ļ":{"ha":332,"x_min":78,"x_max":243,"o":"m 107 0 l 107 1057 l 225 1057 l 225 0 l 107 0 m 160 -56 q 219 -82 196 -56 q 243 -164 243 -108 q 198 -281 243 -235 q 78 -339 153 -326 l 78 -282 q 142 -249 119 -269 q 168 -197 164 -229 l 158 -197 q 108 -176 126 -197 q 90 -126 90 -156 q 110 -76 90 -96 q 160 -56 129 -56 z "},"ŀ":{"ha":332,"x_min":107,"x_max":404,"o":"m 225 0 l 107 0 l 107 1057 l 225 1057 l 225 0 m 336 464 q 289 485 308 464 q 269 533 269 506 q 289 583 269 563 q 336 603 308 603 q 385 583 365 603 q 404 533 404 563 q 385 484 404 504 q 336 464 365 464 z "},"ł":{"ha":360,"x_min":21,"x_max":340,"o":"m 239 1057 l 239 626 l 340 685 l 340 567 l 239 508 l 239 0 l 121 0 l 121 440 l 21 382 l 21 500 l 121 558 l 121 1057 l 239 1057 z "},"m":{"ha":1186,"x_min":107,"x_max":1090,"o":"m 860 738 q 1026 663 963 738 q 1090 450 1090 589 l 1090 0 l 974 0 l 974 411 q 938 570 974 515 q 831 625 901 625 q 708 569 758 625 q 657 410 657 514 l 657 0 l 540 0 l 540 411 q 504 569 540 514 q 399 625 468 625 q 276 569 326 625 q 225 410 225 513 l 225 0 l 107 0 l 107 721 l 211 721 q 218 611 213 674 q 309 706 254 674 q 429 738 364 738 q 556 699 501 738 q 636 586 611 661 q 730 700 671 663 q 860 738 789 738 z "},"ḿ":{"ha":1186,"x_min":107,"x_max":1090,"o":"m 535 824 l 649 1038 l 779 1038 l 639 824 l 535 824 m 860 738 q 1026 663 963 738 q 1090 450 1090 589 l 1090 0 l 974 0 l 974 411 q 938 570 974 515 q 831 625 901 625 q 708 569 758 625 q 657 410 657 514 l 657 0 l 540 0 l 540 411 q 504 569 540 514 q 399 625 468 625 q 276 569 326 625 q 225 410 225 513 l 225 0 l 107 0 l 107 721 l 211 721 q 218 611 213 674 q 309 706 254 674 q 429 738 364 738 q 556 699 501 738 q 636 586 611 661 q 730 700 671 663 q 860 738 789 738 z "},"n":{"ha":806,"x_min":107,"x_max":710,"o":"m 456 738 q 640 661 571 738 q 710 444 710 585 l 710 0 l 592 0 l 592 411 q 551 569 592 514 q 429 625 510 625 q 330 601 376 625 q 254 528 283 576 q 225 410 225 481 l 225 0 l 107 0 l 107 721 l 211 721 q 219 601 214 651 q 317 703 256 668 q 456 738 379 738 z "},"ń":{"ha":806,"x_min":107,"x_max":710,"o":"m 340 824 l 454 1038 l 585 1038 l 444 824 l 340 824 m 456 738 q 640 661 571 738 q 710 444 710 585 l 710 0 l 592 0 l 592 411 q 551 569 592 514 q 429 625 510 625 q 330 601 376 625 q 254 528 283 576 q 225 410 225 481 l 225 0 l 107 0 l 107 721 l 211 721 q 219 601 214 651 q 317 703 256 668 q 456 738 379 738 z "},"ŉ":{"ha":806,"x_min":-24,"x_max":710,"o":"m 58 1072 q 118 1044 94 1072 q 142 960 142 1017 q 97 838 142 886 q -24 778 51 790 l -24 838 q 67 925 58 864 l 57 925 q 7 947 25 925 q -11 999 -11 968 q 8 1051 -11 1031 q 58 1072 28 1072 m 456 738 q 640 661 571 738 q 710 444 710 585 l 710 0 l 592 0 l 592 411 q 551 569 592 514 q 429 625 510 625 q 330 601 376 625 q 254 528 283 576 q 225 410 225 481 l 225 0 l 107 0 l 107 721 l 211 721 q 219 601 214 651 q 317 703 256 668 q 456 738 379 738 z "},"ň":{"ha":806,"x_min":107,"x_max":710,"o":"m 306 1038 l 401 908 l 496 1038 l 615 1038 l 456 824 l 346 824 l 186 1038 l 306 1038 m 456 738 q 640 661 571 738 q 710 444 710 585 l 710 0 l 592 0 l 592 411 q 551 569 592 514 q 429 625 510 625 q 330 601 376 625 q 254 528 283 576 q 225 410 225 481 l 225 0 l 107 0 l 107 721 l 211 721 q 219 601 214 651 q 317 703 256 668 q 456 738 379 738 z "},"ņ":{"ha":806,"x_min":107,"x_max":710,"o":"m 456 738 q 640 661 571 738 q 710 444 710 585 l 710 0 l 592 0 l 592 411 q 551 569 592 514 q 429 625 510 625 q 330 601 376 625 q 254 528 283 576 q 225 410 225 481 l 225 0 l 107 0 l 107 721 l 211 721 q 219 601 214 651 q 317 703 256 668 q 456 738 379 738 m 411 -56 q 471 -82 447 -56 q 494 -164 494 -108 q 449 -281 494 -235 q 329 -339 404 -326 l 329 -282 q 393 -249 371 -269 q 419 -197 415 -229 l 410 -197 q 360 -176 378 -197 q 342 -126 342 -156 q 361 -76 342 -96 q 411 -56 381 -56 z "},"ǹ":{"ha":806,"x_min":107,"x_max":710,"o":"m 218 1038 l 349 1038 l 463 824 l 358 824 l 218 1038 m 456 738 q 640 661 571 738 q 710 444 710 585 l 710 0 l 592 0 l 592 411 q 551 569 592 514 q 429 625 510 625 q 330 601 376 625 q 254 528 283 576 q 225 410 225 481 l 225 0 l 107 0 l 107 721 l 211 721 q 219 601 214 651 q 317 703 256 668 q 456 738 379 738 z "},"ŋ":{"ha":806,"x_min":107,"x_max":710,"o":"m 456 738 q 640 661 571 738 q 710 444 710 585 l 710 -83 q 651 -276 710 -214 q 503 -339 592 -339 q 389 -306 435 -339 l 436 -211 q 497 -228 464 -228 q 592 -79 592 -228 l 592 411 q 551 569 592 514 q 429 625 510 625 q 330 601 376 625 q 254 528 283 576 q 225 410 225 481 l 225 0 l 107 0 l 107 721 l 211 721 q 219 601 214 651 q 317 703 256 668 q 456 738 379 738 z "},"ñ":{"ha":806,"x_min":107,"x_max":710,"o":"m 172 851 q 214 979 175 931 q 315 1028 253 1028 q 378 1013 354 1028 q 428 971 401 999 q 457 944 446 953 q 482 936 468 936 q 516 957 503 936 q 533 1010 529 978 l 631 1010 q 589 882 628 931 q 488 833 550 833 q 425 848 449 833 q 375 890 401 863 q 346 917 357 908 q 321 925 335 925 q 269 851 281 925 l 172 851 m 456 738 q 640 661 571 738 q 710 444 710 585 l 710 0 l 592 0 l 592 411 q 551 569 592 514 q 429 625 510 625 q 330 601 376 625 q 254 528 283 576 q 225 410 225 481 l 225 0 l 107 0 l 107 721 l 211 721 q 219 601 214 651 q 317 703 256 668 q 456 738 379 738 z "},"o":{"ha":821,"x_min":65,"x_max":756,"o":"m 65 361 q 113 556 65 469 q 240 690 161 642 q 411 738 319 738 q 582 690 503 738 q 708 557 661 643 q 756 361 756 471 q 708 166 756 251 q 582 33 661 81 q 411 -15 503 -15 q 240 33 319 -15 q 113 166 160 81 q 65 361 65 251 m 190 361 q 219 219 190 279 q 299 128 249 160 q 411 96 349 96 q 524 128 474 96 q 602 219 574 160 q 631 361 631 279 q 602 503 631 443 q 524 594 574 563 q 411 626 474 626 q 299 594 349 626 q 219 503 249 563 q 190 361 190 443 z "},"ó":{"ha":821,"x_min":65,"x_max":756,"o":"m 350 822 l 464 1036 l 594 1036 l 454 822 l 350 822 m 65 361 q 113 556 65 469 q 240 690 161 642 q 411 738 319 738 q 582 690 503 738 q 708 557 661 643 q 756 361 756 471 q 708 166 756 251 q 582 33 661 81 q 411 -15 503 -15 q 240 33 319 -15 q 113 166 160 81 q 65 361 65 251 m 190 361 q 219 219 190 279 q 299 128 249 160 q 411 96 349 96 q 524 128 474 96 q 602 219 574 160 q 631 361 631 279 q 602 503 631 443 q 524 594 574 563 q 411 626 474 626 q 299 594 349 626 q 219 503 249 563 q 190 361 190 443 z "},"ŏ":{"ha":821,"x_min":65,"x_max":756,"o":"m 411 821 q 253 878 313 821 q 194 1035 194 936 l 303 1035 q 333 944 306 976 q 411 913 360 913 q 521 1035 514 913 l 629 1035 q 570 878 629 936 q 411 821 511 821 m 65 361 q 113 556 65 469 q 240 690 161 642 q 411 738 319 738 q 582 690 503 738 q 708 557 661 643 q 756 361 756 471 q 708 166 756 251 q 582 33 661 81 q 411 -15 503 -15 q 240 33 319 -15 q 113 166 160 81 q 65 361 65 251 m 190 361 q 219 219 190 279 q 299 128 249 160 q 411 96 349 96 q 524 128 474 96 q 602 219 574 160 q 631 361 631 279 q 602 503 631 443 q 524 594 574 563 q 411 626 474 626 q 299 594 349 626 q 219 503 249 563 q 190 361 190 443 z "},"ǒ":{"ha":821,"x_min":65,"x_max":756,"o":"m 315 1036 l 411 907 l 506 1036 l 625 1036 l 465 822 l 356 822 l 196 1036 l 315 1036 m 65 361 q 113 556 65 469 q 240 690 161 642 q 411 738 319 738 q 582 690 503 738 q 708 557 661 643 q 756 361 756 471 q 708 166 756 251 q 582 33 661 81 q 411 -15 503 -15 q 240 33 319 -15 q 113 166 160 81 q 65 361 65 251 m 190 361 q 219 219 190 279 q 299 128 249 160 q 411 96 349 96 q 524 128 474 96 q 602 219 574 160 q 631 361 631 279 q 602 503 631 443 q 524 594 574 563 q 411 626 474 626 q 299 594 349 626 q 219 503 249 563 q 190 361 190 443 z "},"ô":{"ha":821,"x_min":65,"x_max":756,"o":"m 354 1036 l 465 1036 l 625 822 l 506 822 l 410 950 l 314 822 l 194 822 l 354 1036 m 65 361 q 113 556 65 469 q 240 690 161 642 q 411 738 319 738 q 582 690 503 738 q 708 557 661 643 q 756 361 756 471 q 708 166 756 251 q 582 33 661 81 q 411 -15 503 -15 q 240 33 319 -15 q 113 166 160 81 q 65 361 65 251 m 190 361 q 219 219 190 279 q 299 128 249 160 q 411 96 349 96 q 524 128 474 96 q 602 219 574 160 q 631 361 631 279 q 602 503 631 443 q 524 594 574 563 q 411 626 474 626 q 299 594 349 626 q 219 503 249 563 q 190 361 190 443 z "},"ố":{"ha":821,"x_min":65,"x_max":756,"o":"m 501 1063 l 603 1253 l 733 1253 l 606 1063 l 501 1063 m 353 1036 l 463 1036 l 622 822 l 503 822 l 408 951 l 313 822 l 193 822 l 353 1036 m 65 361 q 113 556 65 469 q 240 690 161 642 q 411 738 319 738 q 582 690 503 738 q 708 557 661 643 q 756 361 756 471 q 708 166 756 251 q 582 33 661 81 q 411 -15 503 -15 q 240 33 319 -15 q 113 166 160 81 q 65 361 65 251 m 190 361 q 219 219 190 279 q 299 128 249 160 q 411 96 349 96 q 524 128 474 96 q 602 219 574 160 q 631 361 631 279 q 602 503 631 443 q 524 594 574 563 q 411 626 474 626 q 299 594 349 626 q 219 503 249 563 q 190 361 190 443 z "},"ộ":{"ha":821,"x_min":65,"x_max":756,"o":"m 354 1036 l 465 1036 l 625 822 l 506 822 l 410 950 l 314 822 l 194 822 l 354 1036 m 65 361 q 113 556 65 469 q 240 690 161 642 q 411 738 319 738 q 582 690 503 738 q 708 557 661 643 q 756 361 756 471 q 708 166 756 251 q 582 33 661 81 q 411 -15 503 -15 q 240 33 319 -15 q 113 166 160 81 q 65 361 65 251 m 190 361 q 219 219 190 279 q 299 128 249 160 q 411 96 349 96 q 524 128 474 96 q 602 219 574 160 q 631 361 631 279 q 602 503 631 443 q 524 594 574 563 q 411 626 474 626 q 299 594 349 626 q 219 503 249 563 q 190 361 190 443 m 411 -261 q 356 -237 379 -261 q 333 -181 333 -212 q 356 -124 333 -149 q 411 -100 379 -100 q 467 -124 444 -100 q 490 -181 490 -147 q 467 -237 490 -212 q 411 -261 443 -261 z "},"ồ":{"ha":821,"x_min":65,"x_max":756,"o":"m 392 1253 l 522 1253 l 624 1063 l 519 1063 l 392 1253 m 353 1036 l 463 1036 l 622 822 l 503 822 l 408 951 l 313 822 l 193 822 l 353 1036 m 65 361 q 113 556 65 469 q 240 690 161 642 q 411 738 319 738 q 582 690 503 738 q 708 557 661 643 q 756 361 756 471 q 708 166 756 251 q 582 33 661 81 q 411 -15 503 -15 q 240 33 319 -15 q 113 166 160 81 q 65 361 65 251 m 190 361 q 219 219 190 279 q 299 128 249 160 q 411 96 349 96 q 524 128 474 96 q 602 219 574 160 q 631 361 631 279 q 602 503 631 443 q 524 594 574 563 q 411 626 474 626 q 299 594 349 626 q 219 503 249 563 q 190 361 190 443 z "},"ổ":{"ha":821,"x_min":65,"x_max":756,"o":"m 450 1250 q 557 1278 494 1278 q 660 1247 619 1278 q 701 1157 701 1217 q 568 1007 701 1053 l 518 1072 q 579 1104 558 1088 q 600 1144 600 1121 q 583 1181 600 1167 q 538 1194 565 1194 q 465 1172 503 1194 l 450 1250 m 353 1036 l 463 1036 l 622 822 l 503 822 l 408 951 l 313 822 l 193 822 l 353 1036 m 65 361 q 113 556 65 469 q 240 690 161 642 q 411 738 319 738 q 582 690 503 738 q 708 557 661 643 q 756 361 756 471 q 708 166 756 251 q 582 33 661 81 q 411 -15 503 -15 q 240 33 319 -15 q 113 166 160 81 q 65 361 65 251 m 190 361 q 219 219 190 279 q 299 128 249 160 q 411 96 349 96 q 524 128 474 96 q 602 219 574 160 q 631 361 631 279 q 602 503 631 443 q 524 594 574 563 q 411 626 474 626 q 299 594 349 626 q 219 503 249 563 q 190 361 190 443 z "},"ỗ":{"ha":821,"x_min":65,"x_max":756,"o":"m 328 1164 q 276 1090 288 1164 l 179 1090 q 221 1218 182 1169 q 322 1267 260 1267 q 385 1252 361 1267 q 435 1210 408 1238 q 464 1183 453 1192 q 489 1175 475 1175 q 523 1196 510 1175 q 540 1249 536 1217 l 638 1249 q 596 1121 635 1169 q 494 1072 557 1072 q 432 1087 456 1072 q 382 1129 408 1101 q 353 1156 364 1147 q 328 1164 342 1164 m 351 1036 l 461 1036 l 621 822 l 501 822 l 407 951 l 311 822 l 192 822 l 351 1036 m 65 361 q 113 556 65 469 q 240 690 161 642 q 411 738 319 738 q 582 690 503 738 q 708 557 661 643 q 756 361 756 471 q 708 166 756 251 q 582 33 661 81 q 411 -15 503 -15 q 240 33 319 -15 q 113 166 160 81 q 65 361 65 251 m 190 361 q 219 219 190 279 q 299 128 249 160 q 411 96 349 96 q 524 128 474 96 q 602 219 574 160 q 631 361 631 279 q 602 503 631 443 q 524 594 574 563 q 411 626 474 626 q 299 594 349 626 q 219 503 249 563 q 190 361 190 443 z "},"ö":{"ha":821,"x_min":65,"x_max":756,"o":"m 268 849 q 213 872 236 849 q 190 929 190 896 q 213 986 190 963 q 268 1010 236 1010 q 324 986 301 1010 q 347 929 347 963 q 324 872 347 896 q 268 849 301 849 m 553 849 q 498 872 521 849 q 475 929 475 896 q 498 986 475 963 q 553 1010 521 1010 q 609 986 586 1010 q 632 929 632 963 q 609 872 632 896 q 553 849 586 849 m 65 361 q 113 556 65 469 q 240 690 161 642 q 411 738 319 738 q 582 690 503 738 q 708 557 661 643 q 756 361 756 471 q 708 166 756 251 q 582 33 661 81 q 411 -15 503 -15 q 240 33 319 -15 q 113 166 160 81 q 65 361 65 251 m 190 361 q 219 219 190 279 q 299 128 249 160 q 411 96 349 96 q 524 128 474 96 q 602 219 574 160 q 631 361 631 279 q 602 503 631 443 q 524 594 574 563 q 411 626 474 626 q 299 594 349 626 q 219 503 249 563 q 190 361 190 443 z "},"ọ":{"ha":821,"x_min":65,"x_max":756,"o":"m 65 361 q 113 556 65 469 q 240 690 161 642 q 411 738 319 738 q 582 690 503 738 q 708 557 661 643 q 756 361 756 471 q 708 166 756 251 q 582 33 661 81 q 411 -15 503 -15 q 240 33 319 -15 q 113 166 160 81 q 65 361 65 251 m 190 361 q 219 219 190 279 q 299 128 249 160 q 411 96 349 96 q 524 128 474 96 q 602 219 574 160 q 631 361 631 279 q 602 503 631 443 q 524 594 574 563 q 411 626 474 626 q 299 594 349 626 q 219 503 249 563 q 190 361 190 443 m 411 -261 q 356 -237 379 -261 q 333 -181 333 -212 q 356 -124 333 -149 q 411 -100 379 -100 q 467 -124 444 -100 q 490 -181 490 -147 q 467 -237 490 -212 q 411 -261 443 -261 z "},"ò":{"ha":821,"x_min":65,"x_max":756,"o":"m 228 1036 l 358 1036 l 472 822 l 368 822 l 228 1036 m 65 361 q 113 556 65 469 q 240 690 161 642 q 411 738 319 738 q 582 690 503 738 q 708 557 661 643 q 756 361 756 471 q 708 166 756 251 q 582 33 661 81 q 411 -15 503 -15 q 240 33 319 -15 q 113 166 160 81 q 65 361 65 251 m 190 361 q 219 219 190 279 q 299 128 249 160 q 411 96 349 96 q 524 128 474 96 q 602 219 574 160 q 631 361 631 279 q 602 503 631 443 q 524 594 574 563 q 411 626 474 626 q 299 594 349 626 q 219 503 249 563 q 190 361 190 443 z "},"ỏ":{"ha":821,"x_min":65,"x_max":756,"o":"m 286 1038 q 393 1065 331 1065 q 497 1035 456 1065 q 538 944 538 1004 q 404 794 538 840 l 354 860 q 415 892 394 875 q 436 932 436 908 q 419 968 436 954 q 374 982 401 982 q 301 960 339 982 l 286 1038 m 65 361 q 113 556 65 469 q 240 690 161 642 q 411 738 319 738 q 582 690 503 738 q 708 557 661 643 q 756 361 756 471 q 708 166 756 251 q 582 33 661 81 q 411 -15 503 -15 q 240 33 319 -15 q 113 166 160 81 q 65 361 65 251 m 190 361 q 219 219 190 279 q 299 128 249 160 q 411 96 349 96 q 524 128 474 96 q 602 219 574 160 q 631 361 631 279 q 602 503 631 443 q 524 594 574 563 q 411 626 474 626 q 299 594 349 626 q 219 503 249 563 q 190 361 190 443 z "},"ơ":{"ha":818,"x_min":65,"x_max":790,"o":"m 635 638 q 724 522 692 592 q 756 361 756 451 q 708 166 756 251 q 582 33 661 81 q 411 -15 503 -15 q 240 33 319 -15 q 113 166 160 81 q 65 361 65 251 q 114 556 65 471 q 245 690 163 642 q 428 738 328 738 q 518 729 460 738 q 555 725 529 728 q 601 722 581 722 q 664 741 644 722 q 683 818 683 760 q 674 897 683 857 l 781 897 q 790 810 790 853 q 751 675 790 710 q 635 638 713 640 m 411 96 q 524 128 474 96 q 602 219 574 160 q 631 361 631 279 q 602 503 631 443 q 524 594 574 563 q 411 626 474 626 q 299 594 349 626 q 219 503 249 563 q 190 361 190 443 q 219 219 190 279 q 299 128 249 160 q 411 96 349 96 z "},"ớ":{"ha":818,"x_min":65,"x_max":790,"o":"m 464 1036 l 594 1036 l 454 822 l 350 822 l 464 1036 m 635 638 q 724 522 692 592 q 756 361 756 451 q 708 166 756 251 q 582 33 661 81 q 411 -15 503 -15 q 240 33 319 -15 q 113 166 160 81 q 65 361 65 251 q 114 556 65 471 q 245 690 163 642 q 428 738 328 738 q 518 729 460 738 q 555 725 529 728 q 601 722 581 722 q 664 741 644 722 q 683 818 683 760 q 674 897 683 857 l 781 897 q 790 810 790 853 q 751 675 790 710 q 635 638 713 640 m 411 96 q 524 128 474 96 q 602 219 574 160 q 631 361 631 279 q 602 503 631 443 q 524 594 574 563 q 411 626 474 626 q 299 594 349 626 q 219 503 249 563 q 190 361 190 443 q 219 219 190 279 q 299 128 249 160 q 411 96 349 96 z "},"ợ":{"ha":818,"x_min":65,"x_max":790,"o":"m 635 638 q 724 522 692 592 q 756 361 756 451 q 708 166 756 251 q 582 33 661 81 q 411 -15 503 -15 q 240 33 319 -15 q 113 166 160 81 q 65 361 65 251 q 114 556 65 471 q 245 690 163 642 q 428 738 328 738 q 518 729 460 738 q 555 725 529 728 q 601 722 581 722 q 664 741 644 722 q 683 818 683 760 q 674 897 683 857 l 781 897 q 790 810 790 853 q 751 675 790 710 q 635 638 713 640 m 411 96 q 524 128 474 96 q 602 219 574 160 q 631 361 631 279 q 602 503 631 443 q 524 594 574 563 q 411 626 474 626 q 299 594 349 626 q 219 503 249 563 q 190 361 190 443 q 219 219 190 279 q 299 128 249 160 q 411 96 349 96 m 411 -100 q 467 -124 444 -100 q 490 -181 490 -147 q 467 -237 490 -212 q 411 -261 443 -261 q 356 -237 379 -261 q 333 -181 333 -212 q 356 -124 333 -149 q 411 -100 379 -100 z "},"ờ":{"ha":818,"x_min":65,"x_max":790,"o":"m 358 1036 l 472 822 l 368 822 l 228 1036 l 358 1036 m 635 638 q 724 522 692 592 q 756 361 756 451 q 708 166 756 251 q 582 33 661 81 q 411 -15 503 -15 q 240 33 319 -15 q 113 166 160 81 q 65 361 65 251 q 114 556 65 471 q 245 690 163 642 q 428 738 328 738 q 518 729 460 738 q 555 725 529 728 q 601 722 581 722 q 664 741 644 722 q 683 818 683 760 q 674 897 683 857 l 781 897 q 790 810 790 853 q 751 675 790 710 q 635 638 713 640 m 411 96 q 524 128 474 96 q 602 219 574 160 q 631 361 631 279 q 602 503 631 443 q 524 594 574 563 q 411 626 474 626 q 299 594 349 626 q 219 503 249 563 q 190 361 190 443 q 219 219 190 279 q 299 128 249 160 q 411 96 349 96 z "},"ở":{"ha":818,"x_min":65,"x_max":790,"o":"m 374 982 q 301 960 339 982 l 286 1038 q 393 1065 331 1065 q 497 1035 456 1065 q 538 944 538 1004 q 404 794 538 840 l 354 860 q 415 892 394 875 q 436 932 436 908 q 419 968 436 954 q 374 982 401 982 m 635 638 q 724 522 692 592 q 756 361 756 451 q 708 166 756 251 q 582 33 661 81 q 411 -15 503 -15 q 240 33 319 -15 q 113 166 160 81 q 65 361 65 251 q 114 556 65 471 q 245 690 163 642 q 428 738 328 738 q 518 729 460 738 q 555 725 529 728 q 601 722 581 722 q 664 741 644 722 q 683 818 683 760 q 674 897 683 857 l 781 897 q 790 810 790 853 q 751 675 790 710 q 635 638 713 640 m 411 96 q 524 128 474 96 q 602 219 574 160 q 631 361 631 279 q 602 503 631 443 q 524 594 574 563 q 411 626 474 626 q 299 594 349 626 q 219 503 249 563 q 190 361 190 443 q 219 219 190 279 q 299 128 249 160 q 411 96 349 96 z "},"ỡ":{"ha":818,"x_min":65,"x_max":790,"o":"m 331 924 q 279 850 290 924 l 182 850 q 224 978 185 929 q 325 1026 263 1026 q 388 1012 364 1026 q 438 969 411 997 q 467 943 456 951 q 492 935 478 935 q 526 956 513 935 q 543 1008 539 976 l 640 1008 q 599 881 638 929 q 497 832 560 832 q 435 847 458 832 q 385 889 411 861 q 356 915 367 907 q 331 924 344 924 m 635 638 q 724 522 692 592 q 756 361 756 451 q 708 166 756 251 q 582 33 661 81 q 411 -15 503 -15 q 240 33 319 -15 q 113 166 160 81 q 65 361 65 251 q 114 556 65 471 q 245 690 163 642 q 428 738 328 738 q 518 729 460 738 q 555 725 529 728 q 601 722 581 722 q 664 741 644 722 q 683 818 683 760 q 674 897 683 857 l 781 897 q 790 810 790 853 q 751 675 790 710 q 635 638 713 640 m 411 96 q 524 128 474 96 q 602 219 574 160 q 631 361 631 279 q 602 503 631 443 q 524 594 574 563 q 411 626 474 626 q 299 594 349 626 q 219 503 249 563 q 190 361 190 443 q 219 219 190 279 q 299 128 249 160 q 411 96 349 96 z "},"ő":{"ha":821,"x_min":65,"x_max":756,"o":"m 250 822 l 364 1036 l 492 1036 l 351 822 l 250 822 m 460 822 l 574 1036 l 701 1036 l 561 822 l 460 822 m 65 361 q 113 556 65 469 q 240 690 161 642 q 411 738 319 738 q 582 690 503 738 q 708 557 661 643 q 756 361 756 471 q 708 166 756 251 q 582 33 661 81 q 411 -15 503 -15 q 240 33 319 -15 q 113 166 160 81 q 65 361 65 251 m 190 361 q 219 219 190 279 q 299 128 249 160 q 411 96 349 96 q 524 128 474 96 q 602 219 574 160 q 631 361 631 279 q 602 503 631 443 q 524 594 574 563 q 411 626 474 626 q 299 594 349 626 q 219 503 249 563 q 190 361 190 443 z "},"ō":{"ha":821,"x_min":65,"x_max":756,"o":"m 189 878 l 189 981 l 633 981 l 633 878 l 189 878 m 65 361 q 113 556 65 469 q 240 690 161 642 q 411 738 319 738 q 582 690 503 738 q 708 557 661 643 q 756 361 756 471 q 708 166 756 251 q 582 33 661 81 q 411 -15 503 -15 q 240 33 319 -15 q 113 166 160 81 q 65 361 65 251 m 190 361 q 219 219 190 279 q 299 128 249 160 q 411 96 349 96 q 524 128 474 96 q 602 219 574 160 q 631 361 631 279 q 602 503 631 443 q 524 594 574 563 q 411 626 474 626 q 299 594 349 626 q 219 503 249 563 q 190 361 190 443 z "},"ø":{"ha":821,"x_min":65,"x_max":756,"o":"m 633 769 l 756 769 l 657 628 q 729 509 703 576 q 756 361 756 442 q 708 166 756 251 q 582 33 661 81 q 411 -15 503 -15 q 242 31 322 -15 l 188 -47 l 65 -47 l 164 94 q 92 213 118 146 q 65 361 65 281 q 113 556 65 469 q 240 690 161 642 q 411 738 319 738 q 579 692 500 738 l 633 769 m 190 361 q 233 194 190 261 l 515 600 q 411 626 467 626 q 299 594 349 626 q 219 503 249 563 q 190 361 190 443 m 631 361 q 588 529 631 463 l 306 124 q 411 96 354 96 q 524 128 474 96 q 602 219 574 160 q 631 361 631 279 z "},"ǿ":{"ha":821,"x_min":65,"x_max":756,"o":"m 350 822 l 464 1036 l 594 1036 l 454 822 l 350 822 m 633 769 l 756 769 l 657 628 q 729 509 703 576 q 756 361 756 442 q 708 166 756 251 q 582 33 661 81 q 411 -15 503 -15 q 242 31 322 -15 l 188 -47 l 65 -47 l 164 94 q 92 213 118 146 q 65 361 65 281 q 113 556 65 469 q 240 690 161 642 q 411 738 319 738 q 579 692 500 738 l 633 769 m 190 361 q 233 194 190 261 l 515 600 q 411 626 467 626 q 299 594 349 626 q 219 503 249 563 q 190 361 190 443 m 631 361 q 588 529 631 463 l 306 124 q 411 96 354 96 q 524 128 474 96 q 602 219 574 160 q 631 361 631 279 z "},"õ":{"ha":821,"x_min":65,"x_max":756,"o":"m 182 850 q 224 978 185 929 q 325 1026 263 1026 q 388 1012 364 1026 q 438 969 411 997 q 467 943 456 951 q 492 935 478 935 q 526 956 513 935 q 543 1008 539 976 l 640 1008 q 599 881 638 929 q 497 832 560 832 q 435 847 458 832 q 385 889 411 861 q 356 915 367 907 q 331 924 344 924 q 279 850 290 924 l 182 850 m 65 361 q 113 556 65 469 q 240 690 161 642 q 411 738 319 738 q 582 690 503 738 q 708 557 661 643 q 756 361 756 471 q 708 166 756 251 q 582 33 661 81 q 411 -15 503 -15 q 240 33 319 -15 q 113 166 160 81 q 65 361 65 251 m 190 361 q 219 219 190 279 q 299 128 249 160 q 411 96 349 96 q 524 128 474 96 q 602 219 574 160 q 631 361 631 279 q 602 503 631 443 q 524 594 574 563 q 411 626 474 626 q 299 594 349 626 q 219 503 249 563 q 190 361 190 443 z "},"œ":{"ha":1325,"x_min":65,"x_max":1281,"o":"m 969 738 q 1134 694 1064 738 q 1242 575 1204 650 q 1281 408 1281 500 q 1275 338 1281 369 l 756 338 q 826 153 763 214 q 988 93 890 93 q 1163 190 1108 93 l 1253 139 q 1149 25 1225 65 q 978 -15 1072 -15 q 807 27 882 -15 q 690 151 732 69 q 574 28 647 72 q 414 -15 501 -15 q 241 33 321 -15 q 113 166 161 81 q 65 361 65 251 q 113 556 65 469 q 241 690 161 642 q 414 738 321 738 q 574 694 501 738 q 690 571 647 650 q 804 695 731 653 q 969 738 878 738 m 968 629 q 833 579 890 629 q 760 433 775 529 l 1153 433 q 1099 578 1149 526 q 968 629 1049 629 m 411 96 q 524 128 474 96 q 602 219 574 160 q 631 361 631 279 q 602 503 631 443 q 524 594 574 563 q 411 626 474 626 q 299 594 349 626 q 219 503 249 563 q 190 361 190 443 q 219 219 190 279 q 299 128 249 160 q 411 96 349 96 z "},"p":{"ha":843,"x_min":107,"x_max":778,"o":"m 461 738 q 616 692 543 738 q 733 562 689 647 q 778 361 778 476 q 733 159 778 244 q 616 29 689 74 q 461 -15 543 -15 q 328 17 392 -15 q 225 114 265 50 l 225 -322 l 107 -322 l 107 721 l 211 721 q 219 599 214 651 q 323 703 258 668 q 461 738 388 738 m 446 96 q 597 165 540 96 q 654 361 654 235 q 597 557 654 488 q 446 626 540 626 q 339 600 389 626 q 257 514 289 574 q 225 361 225 454 q 257 208 225 268 q 339 122 289 149 q 446 96 389 96 z "},"þ":{"ha":843,"x_min":107,"x_max":778,"o":"m 461 738 q 616 692 543 738 q 733 562 689 647 q 778 361 778 476 q 733 159 778 244 q 616 29 689 74 q 461 -15 543 -15 q 328 17 392 -15 q 225 114 265 50 l 225 -322 l 107 -322 l 107 1057 l 225 1057 l 225 608 q 328 705 265 672 q 461 738 390 738 m 446 96 q 597 165 540 96 q 654 361 654 235 q 597 557 654 488 q 446 626 540 626 q 339 600 389 626 q 257 514 289 574 q 225 361 225 454 q 257 208 225 268 q 339 122 289 149 q 446 96 389 96 z "},"q":{"ha":843,"x_min":65,"x_max":736,"o":"m 736 721 l 736 -322 l 618 -322 l 618 113 q 515 17 578 49 q 383 -15 451 -15 q 227 29 300 -15 q 110 159 154 74 q 65 361 65 244 q 110 562 65 476 q 227 692 154 647 q 383 738 300 738 q 520 703 456 738 q 624 600 585 668 q 632 721 631 665 l 736 721 m 397 96 q 553 160 488 96 q 618 361 618 224 q 586 514 618 454 q 504 600 554 574 q 397 626 454 626 q 246 557 303 626 q 189 361 189 488 q 246 165 189 235 q 397 96 303 96 z "},"r":{"ha":519,"x_min":107,"x_max":518,"o":"m 410 738 q 472 728 443 738 q 518 706 500 719 l 475 610 q 408 626 447 626 q 276 560 328 626 q 225 368 225 494 l 225 0 l 107 0 l 107 721 l 211 721 q 219 603 214 651 q 410 738 281 738 z "},"ŕ":{"ha":518,"x_min":107,"x_max":518,"o":"m 243 822 l 357 1036 l 488 1036 l 347 822 l 243 822 m 410 738 q 472 728 443 738 q 518 706 500 719 l 475 610 q 408 626 447 626 q 276 560 328 626 q 225 368 225 494 l 225 0 l 107 0 l 107 721 l 211 721 q 219 603 214 651 q 410 738 281 738 z "},"ř":{"ha":518,"x_min":89,"x_max":518,"o":"m 208 1036 l 304 907 l 399 1036 l 518 1036 l 358 822 l 249 822 l 89 1036 l 208 1036 m 410 738 q 472 728 443 738 q 518 706 500 719 l 475 610 q 408 626 447 626 q 276 560 328 626 q 225 368 225 494 l 225 0 l 107 0 l 107 721 l 211 721 q 219 603 214 651 q 410 738 281 738 z "},"ŗ":{"ha":518,"x_min":78,"x_max":518,"o":"m 410 738 q 472 728 443 738 q 518 706 500 719 l 475 610 q 408 626 447 626 q 276 560 328 626 q 225 368 225 494 l 225 0 l 107 0 l 107 721 l 211 721 q 219 603 214 651 q 410 738 281 738 m 160 -56 q 219 -82 196 -56 q 243 -164 243 -108 q 198 -281 243 -235 q 78 -339 153 -326 l 78 -282 q 142 -249 119 -269 q 168 -197 164 -229 l 158 -197 q 108 -176 126 -197 q 90 -126 90 -156 q 110 -76 90 -96 q 160 -56 129 -56 z "},"s":{"ha":632,"x_min":42,"x_max":593,"o":"m 593 206 q 559 90 593 140 q 464 13 525 40 q 324 -15 403 -15 q 142 32 218 -15 q 42 161 65 79 l 132 213 q 324 92 183 92 q 431 119 392 92 q 469 196 469 147 q 447 257 469 233 q 390 294 424 281 q 294 325 356 307 q 175 365 221 346 q 97 423 129 385 q 65 524 65 461 q 101 638 65 589 q 197 712 136 686 q 329 738 257 738 q 492 696 424 738 q 583 582 560 654 l 493 531 q 427 603 471 578 q 324 629 383 629 q 226 605 263 629 q 189 535 189 581 q 210 481 189 501 q 264 447 232 460 q 354 418 296 435 q 478 377 431 397 q 559 315 525 357 q 593 206 593 274 z "},"ś":{"ha":632,"x_min":42,"x_max":593,"o":"m 272 824 l 386 1038 l 517 1038 l 376 824 l 272 824 m 593 206 q 559 90 593 140 q 464 13 525 40 q 324 -15 403 -15 q 142 32 218 -15 q 42 161 65 79 l 132 213 q 324 92 183 92 q 431 119 392 92 q 469 196 469 147 q 447 257 469 233 q 390 294 424 281 q 294 325 356 307 q 175 365 221 346 q 97 423 129 385 q 65 524 65 461 q 101 638 65 589 q 197 712 136 686 q 329 738 257 738 q 492 696 424 738 q 583 582 560 654 l 493 531 q 427 603 471 578 q 324 629 383 629 q 226 605 263 629 q 189 535 189 581 q 210 481 189 501 q 264 447 232 460 q 354 418 296 435 q 478 377 431 397 q 559 315 525 357 q 593 206 593 274 z "},"š":{"ha":632,"x_min":42,"x_max":593,"o":"m 238 1038 l 333 908 l 428 1038 l 547 1038 l 388 824 l 278 824 l 118 1038 l 238 1038 m 593 206 q 559 90 593 140 q 464 13 525 40 q 324 -15 403 -15 q 142 32 218 -15 q 42 161 65 79 l 132 213 q 324 92 183 92 q 431 119 392 92 q 469 196 469 147 q 447 257 469 233 q 390 294 424 281 q 294 325 356 307 q 175 365 221 346 q 97 423 129 385 q 65 524 65 461 q 101 638 65 589 q 197 712 136 686 q 329 738 257 738 q 492 696 424 738 q 583 582 560 654 l 493 531 q 427 603 471 578 q 324 629 383 629 q 226 605 263 629 q 189 535 189 581 q 210 481 189 501 q 264 447 232 460 q 354 418 296 435 q 478 377 431 397 q 559 315 525 357 q 593 206 593 274 z "},"ş":{"ha":632,"x_min":42,"x_max":593,"o":"m 593 206 q 526 52 593 113 q 347 -14 458 -8 l 322 -78 q 433 -110 389 -78 q 478 -201 478 -142 q 424 -303 478 -268 q 290 -339 371 -339 q 183 -324 247 -339 l 183 -237 q 282 -254 236 -254 q 376 -206 376 -254 q 351 -167 376 -181 q 282 -154 325 -154 q 217 -161 256 -154 l 208 -107 l 247 -8 q 115 51 169 7 q 42 161 61 94 l 132 213 q 324 92 183 92 q 431 119 392 92 q 469 196 469 147 q 447 257 469 233 q 390 294 424 281 q 294 325 356 307 q 175 365 221 346 q 97 423 129 385 q 65 524 65 461 q 101 638 65 589 q 197 712 136 686 q 329 738 257 738 q 492 696 424 738 q 583 582 560 654 l 493 531 q 427 603 471 578 q 324 629 383 629 q 226 605 263 629 q 189 535 189 581 q 210 481 189 501 q 264 447 232 460 q 354 418 296 435 q 478 377 431 397 q 559 315 525 357 q 593 206 593 274 z "},"ŝ":{"ha":632,"x_min":42,"x_max":593,"o":"m 276 1038 l 388 1038 l 547 824 l 428 824 l 332 951 l 236 824 l 117 824 l 276 1038 m 593 206 q 559 90 593 140 q 464 13 525 40 q 324 -15 403 -15 q 142 32 218 -15 q 42 161 65 79 l 132 213 q 324 92 183 92 q 431 119 392 92 q 469 196 469 147 q 447 257 469 233 q 390 294 424 281 q 294 325 356 307 q 175 365 221 346 q 97 423 129 385 q 65 524 65 461 q 101 638 65 589 q 197 712 136 686 q 329 738 257 738 q 492 696 424 738 q 583 582 560 654 l 493 531 q 427 603 471 578 q 324 629 383 629 q 226 605 263 629 q 189 535 189 581 q 210 481 189 501 q 264 447 232 460 q 354 418 296 435 q 478 377 431 397 q 559 315 525 357 q 593 206 593 274 z "},"ș":{"ha":632,"x_min":42,"x_max":593,"o":"m 189 535 q 210 481 189 501 q 264 447 232 460 q 354 418 296 435 q 478 377 431 397 q 559 315 525 357 q 593 206 593 274 q 559 90 593 140 q 464 13 525 40 q 324 -15 403 -15 q 142 32 218 -15 q 42 161 65 79 l 132 213 q 324 92 183 92 q 431 119 392 92 q 469 196 469 147 q 447 257 469 233 q 390 294 424 281 q 294 325 356 307 q 175 365 221 346 q 97 423 129 385 q 65 524 65 461 q 101 638 65 589 q 197 712 136 686 q 329 738 257 738 q 492 696 424 738 q 583 582 560 654 l 493 531 q 427 603 471 578 q 324 629 383 629 q 226 605 263 629 q 189 535 189 581 m 311 -56 q 371 -82 347 -56 q 394 -164 394 -108 q 349 -281 394 -235 q 229 -339 304 -326 l 229 -282 q 293 -249 271 -269 q 319 -197 315 -229 l 310 -197 q 260 -176 278 -197 q 242 -126 242 -156 q 261 -76 242 -96 q 311 -56 281 -56 z "},"ß":{"ha":821,"x_min":107,"x_max":771,"o":"m 575 554 q 720 457 669 526 q 771 289 771 388 q 733 132 771 201 q 622 24 694 63 q 451 -15 550 -15 q 338 0 399 -15 l 338 114 q 387 100 365 104 q 440 96 408 96 q 592 147 539 96 q 644 290 644 199 q 586 440 644 385 q 411 496 528 496 l 353 496 l 353 594 l 381 594 q 538 647 488 594 q 589 783 589 700 q 544 910 589 863 q 419 957 500 957 q 276 893 326 957 q 225 714 225 829 l 225 0 l 107 0 l 107 717 q 147 906 107 826 q 258 1028 188 986 q 419 1069 329 1069 q 571 1033 504 1069 q 676 932 638 997 q 714 785 714 867 q 679 647 714 706 q 575 554 644 588 z "},"ſ":{"ha":478,"x_min":28,"x_max":524,"o":"m 389 1072 q 466 1060 431 1072 q 524 1031 501 1049 l 476 936 q 393 961 440 961 q 271 792 271 961 l 271 0 l 151 0 l 151 621 l 28 621 l 28 722 l 151 722 l 151 794 q 185 954 151 892 q 274 1044 219 1017 q 389 1072 328 1072 z "},"t":{"ha":511,"x_min":15,"x_max":499,"o":"m 499 24 q 353 -15 442 -15 q 135 233 135 -15 l 135 619 l 15 619 l 15 722 l 135 722 l 135 924 l 253 924 l 253 722 l 463 722 l 463 619 l 253 619 l 253 247 q 367 96 253 96 q 460 121 417 96 l 499 24 z "},"ŧ":{"ha":511,"x_min":15,"x_max":499,"o":"m 499 24 q 353 -15 442 -15 q 135 233 135 -15 l 135 325 l 15 325 l 15 428 l 135 428 l 135 619 l 15 619 l 15 722 l 135 722 l 135 924 l 254 924 l 254 722 l 463 722 l 463 619 l 254 619 l 254 428 l 463 428 l 463 325 l 254 325 l 254 247 q 285 128 254 161 q 367 96 317 96 q 460 121 417 96 l 499 24 z "},"ť":{"ha":511,"x_min":15,"x_max":553,"o":"m 469 1119 q 529 1092 506 1119 q 553 1007 553 1064 q 508 885 553 933 q 388 825 463 838 l 388 885 q 451 918 429 897 q 478 972 474 939 l 468 972 q 418 994 436 972 q 400 1046 400 1015 q 419 1099 400 1078 q 469 1119 439 1119 m 367 96 q 460 121 417 96 l 499 24 q 353 -15 442 -15 q 135 233 135 -15 l 135 619 l 15 619 l 15 722 l 135 722 l 135 924 l 253 924 l 253 722 l 463 722 l 463 619 l 253 619 l 253 247 q 367 96 253 96 z "},"ţ":{"ha":511,"x_min":15,"x_max":499,"o":"m 335 -79 q 446 -110 401 -78 q 490 -201 490 -143 q 438 -304 490 -269 q 303 -339 385 -339 q 196 -325 265 -339 l 196 -237 q 294 -254 242 -254 q 389 -207 389 -254 q 363 -169 389 -182 q 294 -156 338 -156 q 229 -162 268 -156 l 221 -108 l 263 -1 q 135 233 135 43 l 135 619 l 15 619 l 15 722 l 135 722 l 135 924 l 253 924 l 253 722 l 463 722 l 463 619 l 253 619 l 253 247 q 367 96 253 96 q 460 121 417 96 l 499 24 q 360 -15 443 -12 l 335 -79 z "},"ț":{"ha":511,"x_min":15,"x_max":499,"o":"m 499 24 q 353 -15 442 -15 q 135 233 135 -15 l 135 619 l 15 619 l 15 722 l 135 722 l 135 924 l 253 924 l 253 722 l 463 722 l 463 619 l 253 619 l 253 247 q 367 96 253 96 q 460 121 417 96 l 499 24 m 324 -56 q 383 -82 360 -56 q 407 -164 407 -108 q 362 -281 407 -235 q 242 -339 317 -326 l 242 -282 q 306 -249 283 -269 q 332 -197 328 -229 l 322 -197 q 272 -176 290 -197 q 254 -126 254 -156 q 274 -76 254 -96 q 324 -56 293 -56 z "},"u":{"ha":807,"x_min":97,"x_max":699,"o":"m 581 722 l 699 722 l 699 0 l 594 0 q 586 118 592 71 q 488 18 550 51 q 351 -15 425 -15 q 167 61 236 -15 q 97 278 97 138 l 97 722 l 215 722 l 215 310 q 256 151 215 207 q 376 96 297 96 q 476 120 429 96 q 551 193 522 144 q 581 313 581 242 l 581 722 z "},"ú":{"ha":806,"x_min":97,"x_max":699,"o":"m 342 824 l 456 1038 l 586 1038 l 446 824 l 342 824 m 581 722 l 699 722 l 699 0 l 594 0 q 586 118 592 71 q 488 18 550 51 q 351 -15 425 -15 q 167 61 236 -15 q 97 278 97 138 l 97 722 l 215 722 l 215 310 q 256 151 215 207 q 376 96 297 96 q 476 120 429 96 q 551 193 522 144 q 581 313 581 242 l 581 722 z "},"ŭ":{"ha":806,"x_min":97,"x_max":699,"o":"m 403 822 q 245 880 304 822 q 186 1036 186 938 l 294 1036 q 324 946 297 978 q 403 914 351 914 q 513 1036 506 914 l 621 1036 q 562 880 621 938 q 403 822 503 822 m 581 722 l 699 722 l 699 0 l 594 0 q 586 118 592 71 q 488 18 550 51 q 351 -15 425 -15 q 167 61 236 -15 q 97 278 97 138 l 97 722 l 215 722 l 215 310 q 256 151 215 207 q 376 96 297 96 q 476 120 429 96 q 551 193 522 144 q 581 313 581 242 l 581 722 z "},"ǔ":{"ha":806,"x_min":97,"x_max":699,"o":"m 307 1038 l 403 908 l 497 1038 l 617 1038 l 457 824 l 347 824 l 188 1038 l 307 1038 m 581 722 l 699 722 l 699 0 l 594 0 q 586 118 592 71 q 488 18 550 51 q 351 -15 425 -15 q 167 61 236 -15 q 97 278 97 138 l 97 722 l 215 722 l 215 310 q 256 151 215 207 q 376 96 297 96 q 476 120 429 96 q 551 193 522 144 q 581 313 581 242 l 581 722 z "},"û":{"ha":806,"x_min":97,"x_max":699,"o":"m 346 1038 l 457 1038 l 617 824 l 497 824 l 401 951 l 306 824 l 186 824 l 346 1038 m 581 722 l 699 722 l 699 0 l 594 0 q 586 118 592 71 q 488 18 550 51 q 351 -15 425 -15 q 167 61 236 -15 q 97 278 97 138 l 97 722 l 215 722 l 215 310 q 256 151 215 207 q 376 96 297 96 q 476 120 429 96 q 551 193 522 144 q 581 313 581 242 l 581 722 z "},"ü":{"ha":806,"x_min":97,"x_max":699,"o":"m 260 850 q 205 874 228 850 q 182 931 182 897 q 205 988 182 964 q 260 1011 228 1011 q 316 988 293 1011 q 339 931 339 964 q 316 874 339 897 q 260 850 293 850 m 544 850 q 490 874 513 850 q 467 931 467 897 q 490 988 467 964 q 544 1011 513 1011 q 601 988 578 1011 q 624 931 624 964 q 601 874 624 897 q 544 850 578 850 m 581 722 l 699 722 l 699 0 l 594 0 q 586 118 592 71 q 488 18 550 51 q 351 -15 425 -15 q 167 61 236 -15 q 97 278 97 138 l 97 722 l 215 722 l 215 310 q 256 151 215 207 q 376 96 297 96 q 476 120 429 96 q 551 193 522 144 q 581 313 581 242 l 581 722 z "},"ǘ":{"ha":806,"x_min":97,"x_max":699,"o":"m 342 1064 l 443 1254 l 574 1254 l 446 1064 l 342 1064 m 260 850 q 205 874 228 850 q 182 931 182 897 q 205 988 182 964 q 260 1011 228 1011 q 316 988 293 1011 q 339 931 339 964 q 316 874 339 897 q 260 850 293 850 m 544 850 q 490 874 513 850 q 467 931 467 897 q 490 988 467 964 q 544 1011 513 1011 q 601 988 578 1011 q 624 931 624 964 q 601 874 624 897 q 544 850 578 850 m 581 722 l 699 722 l 699 0 l 594 0 q 586 118 592 71 q 488 18 550 51 q 351 -15 425 -15 q 167 61 236 -15 q 97 278 97 138 l 97 722 l 215 722 l 215 310 q 256 151 215 207 q 376 96 297 96 q 476 120 429 96 q 551 193 522 144 q 581 313 581 242 l 581 722 z "},"ǚ":{"ha":806,"x_min":97,"x_max":699,"o":"m 310 1254 l 403 1143 l 494 1254 l 617 1254 l 457 1064 l 347 1064 l 188 1254 l 310 1254 m 260 850 q 205 874 228 850 q 182 931 182 897 q 205 988 182 964 q 260 1011 228 1011 q 316 988 293 1011 q 339 931 339 964 q 316 874 339 897 q 260 850 293 850 m 544 850 q 490 874 513 850 q 467 931 467 897 q 490 988 467 964 q 544 1011 513 1011 q 601 988 578 1011 q 624 931 624 964 q 601 874 624 897 q 544 850 578 850 m 581 722 l 699 722 l 699 0 l 594 0 q 586 118 592 71 q 488 18 550 51 q 351 -15 425 -15 q 167 61 236 -15 q 97 278 97 138 l 97 722 l 215 722 l 215 310 q 256 151 215 207 q 376 96 297 96 q 476 120 429 96 q 551 193 522 144 q 581 313 581 242 l 581 722 z "},"ǜ":{"ha":806,"x_min":97,"x_max":699,"o":"m 232 1254 l 363 1254 l 464 1064 l 360 1064 l 232 1254 m 260 850 q 205 874 228 850 q 182 931 182 897 q 205 988 182 964 q 260 1011 228 1011 q 316 988 293 1011 q 339 931 339 964 q 316 874 339 897 q 260 850 293 850 m 544 850 q 490 874 513 850 q 467 931 467 897 q 490 988 467 964 q 544 1011 513 1011 q 601 988 578 1011 q 624 931 624 964 q 601 874 624 897 q 544 850 578 850 m 581 722 l 699 722 l 699 0 l 594 0 q 586 118 592 71 q 488 18 550 51 q 351 -15 425 -15 q 167 61 236 -15 q 97 278 97 138 l 97 722 l 215 722 l 215 310 q 256 151 215 207 q 376 96 297 96 q 476 120 429 96 q 551 193 522 144 q 581 313 581 242 l 581 722 z "},"ǖ":{"ha":806,"x_min":97,"x_max":699,"o":"m 181 1107 l 181 1210 l 625 1210 l 625 1107 l 181 1107 m 260 850 q 205 874 228 850 q 182 931 182 897 q 205 988 182 964 q 260 1011 228 1011 q 316 988 293 1011 q 339 931 339 964 q 316 874 339 897 q 260 850 293 850 m 544 850 q 490 874 513 850 q 467 931 467 897 q 490 988 467 964 q 544 1011 513 1011 q 601 988 578 1011 q 624 931 624 964 q 601 874 624 897 q 544 850 578 850 m 581 722 l 699 722 l 699 0 l 594 0 q 586 118 592 71 q 488 18 550 51 q 351 -15 425 -15 q 167 61 236 -15 q 97 278 97 138 l 97 722 l 215 722 l 215 310 q 256 151 215 207 q 376 96 297 96 q 476 120 429 96 q 551 193 522 144 q 581 313 581 242 l 581 722 z "},"ụ":{"ha":806,"x_min":97,"x_max":699,"o":"m 581 722 l 699 722 l 699 0 l 594 0 q 586 118 592 71 q 488 18 550 51 q 351 -15 425 -15 q 167 61 236 -15 q 97 278 97 138 l 97 722 l 215 722 l 215 310 q 256 151 215 207 q 376 96 297 96 q 476 120 429 96 q 551 193 522 144 q 581 313 581 242 l 581 722 m 404 -261 q 349 -237 372 -261 q 326 -181 326 -212 q 349 -124 326 -149 q 404 -100 372 -100 q 460 -124 438 -100 q 483 -181 483 -147 q 460 -237 483 -212 q 404 -261 436 -261 z "},"ù":{"ha":806,"x_min":97,"x_max":699,"o":"m 219 1038 l 350 1038 l 464 824 l 360 824 l 219 1038 m 581 722 l 699 722 l 699 0 l 594 0 q 586 118 592 71 q 488 18 550 51 q 351 -15 425 -15 q 167 61 236 -15 q 97 278 97 138 l 97 722 l 215 722 l 215 310 q 256 151 215 207 q 376 96 297 96 q 476 120 429 96 q 551 193 522 144 q 581 313 581 242 l 581 722 z "},"ủ":{"ha":806,"x_min":97,"x_max":699,"o":"m 278 1039 q 385 1067 322 1067 q 488 1036 447 1067 q 529 946 529 1006 q 396 796 529 842 l 346 861 q 407 893 386 876 q 428 933 428 910 q 410 969 428 956 q 365 983 393 983 q 293 961 331 983 l 278 1039 m 581 722 l 699 722 l 699 0 l 594 0 q 586 118 592 71 q 488 18 550 51 q 351 -15 425 -15 q 167 61 236 -15 q 97 278 97 138 l 97 722 l 215 722 l 215 310 q 256 151 215 207 q 376 96 297 96 q 476 120 429 96 q 551 193 522 144 q 581 313 581 242 l 581 722 z "},"ư":{"ha":840,"x_min":97,"x_max":860,"o":"m 860 808 q 820 679 860 717 q 699 635 781 642 l 699 0 l 594 0 q 586 118 592 71 q 488 18 550 51 q 351 -15 425 -15 q 167 61 236 -15 q 97 278 97 138 l 97 722 l 215 722 l 215 310 q 256 151 215 207 q 376 96 297 96 q 476 120 429 96 q 551 193 522 144 q 581 313 581 242 l 581 722 l 663 722 q 731 747 710 726 q 753 817 753 768 q 743 896 753 856 l 850 896 q 860 808 860 851 z "},"ứ":{"ha":840,"x_min":97,"x_max":860,"o":"m 342 824 l 456 1038 l 586 1038 l 446 824 l 342 824 m 860 808 q 820 679 860 717 q 699 635 781 642 l 699 0 l 594 0 q 586 118 592 71 q 488 18 550 51 q 351 -15 425 -15 q 167 61 236 -15 q 97 278 97 138 l 97 722 l 215 722 l 215 310 q 256 151 215 207 q 376 96 297 96 q 476 120 429 96 q 551 193 522 144 q 581 313 581 242 l 581 722 l 663 722 q 731 747 710 726 q 753 817 753 768 q 743 896 753 856 l 850 896 q 860 808 860 851 z "},"ự":{"ha":840,"x_min":97,"x_max":860,"o":"m 860 808 q 820 679 860 717 q 699 635 781 642 l 699 0 l 594 0 q 586 118 592 71 q 488 18 550 51 q 351 -15 425 -15 q 167 61 236 -15 q 97 278 97 138 l 97 722 l 215 722 l 215 310 q 256 151 215 207 q 376 96 297 96 q 476 120 429 96 q 551 193 522 144 q 581 313 581 242 l 581 722 l 663 722 q 731 747 710 726 q 753 817 753 768 q 743 896 753 856 l 850 896 q 860 808 860 851 m 404 -261 q 349 -237 372 -261 q 326 -181 326 -212 q 349 -124 326 -149 q 404 -100 372 -100 q 460 -124 438 -100 q 483 -181 483 -147 q 460 -237 483 -212 q 404 -261 436 -261 z "},"ừ":{"ha":840,"x_min":97,"x_max":860,"o":"m 219 1038 l 350 1038 l 464 824 l 360 824 l 219 1038 m 860 808 q 820 679 860 717 q 699 635 781 642 l 699 0 l 594 0 q 586 118 592 71 q 488 18 550 51 q 351 -15 425 -15 q 167 61 236 -15 q 97 278 97 138 l 97 722 l 215 722 l 215 310 q 256 151 215 207 q 376 96 297 96 q 476 120 429 96 q 551 193 522 144 q 581 313 581 242 l 581 722 l 663 722 q 731 747 710 726 q 753 817 753 768 q 743 896 753 856 l 850 896 q 860 808 860 851 z "},"ử":{"ha":840,"x_min":97,"x_max":860,"o":"m 278 1039 q 385 1067 322 1067 q 488 1036 447 1067 q 529 946 529 1006 q 396 796 529 842 l 346 861 q 407 893 386 876 q 428 933 428 910 q 410 969 428 956 q 365 983 393 983 q 293 961 331 983 l 278 1039 m 860 808 q 820 679 860 717 q 699 635 781 642 l 699 0 l 594 0 q 586 118 592 71 q 488 18 550 51 q 351 -15 425 -15 q 167 61 236 -15 q 97 278 97 138 l 97 722 l 215 722 l 215 310 q 256 151 215 207 q 376 96 297 96 q 476 120 429 96 q 551 193 522 144 q 581 313 581 242 l 581 722 l 663 722 q 731 747 710 726 q 753 817 753 768 q 743 896 753 856 l 850 896 q 860 808 860 851 z "},"ữ":{"ha":840,"x_min":97,"x_max":860,"o":"m 174 851 q 215 979 176 931 q 317 1028 254 1028 q 379 1013 356 1028 q 429 971 403 999 q 458 944 447 953 q 483 936 469 936 q 517 957 504 936 q 535 1010 531 978 l 632 1010 q 590 882 629 931 q 489 833 551 833 q 426 848 450 833 q 376 890 403 863 q 347 917 358 908 q 322 925 336 925 q 271 851 282 925 l 174 851 m 860 808 q 820 679 860 717 q 699 635 781 642 l 699 0 l 594 0 q 586 118 592 71 q 488 18 550 51 q 351 -15 425 -15 q 167 61 236 -15 q 97 278 97 138 l 97 722 l 215 722 l 215 310 q 256 151 215 207 q 376 96 297 96 q 476 120 429 96 q 551 193 522 144 q 581 313 581 242 l 581 722 l 663 722 q 731 747 710 726 q 753 817 753 768 q 743 896 753 856 l 850 896 q 860 808 860 851 z "},"ű":{"ha":806,"x_min":97,"x_max":699,"o":"m 242 824 l 356 1038 l 483 1038 l 343 824 l 242 824 m 451 824 l 565 1038 l 693 1038 l 553 824 l 451 824 m 581 722 l 699 722 l 699 0 l 594 0 q 586 118 592 71 q 488 18 550 51 q 351 -15 425 -15 q 167 61 236 -15 q 97 278 97 138 l 97 722 l 215 722 l 215 310 q 256 151 215 207 q 376 96 297 96 q 476 120 429 96 q 551 193 522 144 q 581 313 581 242 l 581 722 z "},"ū":{"ha":806,"x_min":97,"x_max":699,"o":"m 181 879 l 181 982 l 625 982 l 625 879 l 181 879 m 581 722 l 699 722 l 699 0 l 594 0 q 586 118 592 71 q 488 18 550 51 q 351 -15 425 -15 q 167 61 236 -15 q 97 278 97 138 l 97 722 l 215 722 l 215 310 q 256 151 215 207 q 376 96 297 96 q 476 120 429 96 q 551 193 522 144 q 581 313 581 242 l 581 722 z "},"ų":{"ha":806,"x_min":97,"x_max":775,"o":"m 775 -268 q 708 -320 749 -301 q 619 -339 668 -339 q 496 -299 547 -339 q 444 -183 444 -258 q 485 -68 444 -118 q 593 22 526 -18 q 586 118 592 68 q 488 18 550 51 q 351 -15 425 -15 q 167 61 236 -15 q 97 278 97 138 l 97 722 l 215 722 l 215 310 q 256 151 215 207 q 376 96 297 96 q 476 120 429 96 q 551 193 522 144 q 581 313 581 242 l 581 722 l 699 722 l 699 0 q 583 -85 619 -44 q 546 -172 546 -125 q 567 -230 546 -211 q 625 -249 589 -249 q 729 -201 682 -249 l 775 -268 z "},"ů":{"ha":806,"x_min":97,"x_max":699,"o":"m 253 956 q 296 1061 253 1019 q 403 1103 339 1103 q 507 1061 465 1103 q 549 956 549 1019 q 507 850 549 892 q 403 808 465 808 q 296 850 339 808 q 253 956 253 892 m 332 956 q 351 901 332 922 q 403 881 371 881 q 452 901 433 881 q 471 956 471 922 q 452 1010 471 989 q 403 1031 433 1031 q 351 1010 371 1031 q 332 956 332 989 m 581 722 l 699 722 l 699 0 l 594 0 q 586 118 592 71 q 488 18 550 51 q 351 -15 425 -15 q 167 61 236 -15 q 97 278 97 138 l 97 722 l 215 722 l 215 310 q 256 151 215 207 q 376 96 297 96 q 476 120 429 96 q 551 193 522 144 q 581 313 581 242 l 581 722 z "},"ũ":{"ha":806,"x_min":97,"x_max":699,"o":"m 174 851 q 215 979 176 931 q 317 1028 254 1028 q 379 1013 356 1028 q 429 971 403 999 q 458 944 447 953 q 483 936 469 936 q 517 957 504 936 q 535 1010 531 978 l 632 1010 q 590 882 629 931 q 489 833 551 833 q 426 848 450 833 q 376 890 403 863 q 347 917 358 908 q 322 925 336 925 q 271 851 282 925 l 174 851 m 581 722 l 699 722 l 699 0 l 594 0 q 586 118 592 71 q 488 18 550 51 q 351 -15 425 -15 q 167 61 236 -15 q 97 278 97 138 l 97 722 l 215 722 l 215 310 q 256 151 215 207 q 376 96 297 96 q 476 120 429 96 q 551 193 522 144 q 581 313 581 242 l 581 722 z "},"v":{"ha":715,"x_min":14,"x_max":701,"o":"m 149 721 l 371 157 l 579 721 l 701 721 l 411 0 l 315 0 l 14 721 l 149 721 z "},"w":{"ha":1082,"x_min":14,"x_max":1068,"o":"m 592 721 l 781 179 l 957 721 l 1068 721 l 813 0 l 735 0 l 543 528 l 360 0 l 279 0 l 14 721 l 138 721 l 326 179 l 500 721 l 592 721 z "},"ẃ":{"ha":1082,"x_min":14,"x_max":1068,"o":"m 494 824 l 608 1038 l 739 1038 l 599 824 l 494 824 m 592 721 l 781 179 l 957 721 l 1068 721 l 813 0 l 735 0 l 543 528 l 360 0 l 279 0 l 14 721 l 138 721 l 326 179 l 500 721 l 592 721 z "},"ŵ":{"ha":1082,"x_min":14,"x_max":1068,"o":"m 499 1038 l 610 1038 l 769 824 l 650 824 l 554 951 l 458 824 l 339 824 l 499 1038 m 592 721 l 781 179 l 957 721 l 1068 721 l 813 0 l 735 0 l 543 528 l 360 0 l 279 0 l 14 721 l 138 721 l 326 179 l 500 721 l 592 721 z "},"ẅ":{"ha":1082,"x_min":14,"x_max":1068,"o":"m 413 850 q 358 874 381 850 q 335 931 335 897 q 358 988 335 964 q 413 1011 381 1011 q 469 988 446 1011 q 492 931 492 964 q 469 874 492 897 q 413 850 446 850 m 697 850 q 642 874 665 850 q 619 931 619 897 q 642 988 619 964 q 697 1011 665 1011 q 753 988 731 1011 q 776 931 776 964 q 753 874 776 897 q 697 850 731 850 m 592 721 l 781 179 l 957 721 l 1068 721 l 813 0 l 735 0 l 543 528 l 360 0 l 279 0 l 14 721 l 138 721 l 326 179 l 500 721 l 592 721 z "},"ẁ":{"ha":1082,"x_min":14,"x_max":1068,"o":"m 372 1038 l 503 1038 l 617 824 l 513 824 l 372 1038 m 592 721 l 781 179 l 957 721 l 1068 721 l 813 0 l 735 0 l 543 528 l 360 0 l 279 0 l 14 721 l 138 721 l 326 179 l 500 721 l 592 721 z "},"x":{"ha":690,"x_min":15,"x_max":675,"o":"m 350 454 l 540 721 l 675 721 l 414 363 l 675 0 l 531 0 l 344 267 l 153 0 l 15 0 l 279 357 l 15 721 l 163 721 l 350 454 z "},"y":{"ha":722,"x_min":1,"x_max":708,"o":"m 586 721 l 708 721 l 371 -131 q 276 -291 326 -243 q 136 -339 226 -339 q 1 -296 51 -339 l 49 -200 q 88 -220 64 -212 q 136 -228 113 -228 q 209 -199 179 -228 q 274 -89 239 -169 l 308 -8 l 8 721 l 144 721 l 371 142 l 586 721 z "},"ý":{"ha":722,"x_min":1,"x_max":708,"o":"m 418 1038 l 549 1038 l 408 824 l 304 824 l 418 1038 m 586 721 l 708 721 l 371 -131 q 276 -291 326 -243 q 136 -339 226 -339 q 1 -296 51 -339 l 49 -200 q 88 -220 64 -212 q 136 -228 113 -228 q 209 -199 179 -228 q 274 -89 239 -169 l 308 -8 l 8 721 l 144 721 l 371 142 l 586 721 z "},"ŷ":{"ha":722,"x_min":1,"x_max":708,"o":"m 460 824 l 364 951 l 268 824 l 149 824 l 308 1038 l 419 1038 l 579 824 l 460 824 m 586 721 l 708 721 l 371 -131 q 276 -291 326 -243 q 136 -339 226 -339 q 1 -296 51 -339 l 49 -200 q 88 -220 64 -212 q 136 -228 113 -228 q 209 -199 179 -228 q 274 -89 239 -169 l 308 -8 l 8 721 l 144 721 l 371 142 l 586 721 z "},"ÿ":{"ha":722,"x_min":1,"x_max":708,"o":"m 222 850 q 167 874 190 850 q 144 931 144 897 q 167 988 144 964 q 222 1011 190 1011 q 278 988 256 1011 q 301 931 301 964 q 278 874 301 897 q 222 850 256 850 m 507 850 q 452 874 475 850 q 429 931 429 897 q 452 988 429 964 q 507 1011 475 1011 q 563 988 540 1011 q 586 931 586 964 q 563 874 586 897 q 507 850 540 850 m 586 721 l 708 721 l 371 -131 q 276 -291 326 -243 q 136 -339 226 -339 q 1 -296 51 -339 l 49 -200 q 88 -220 64 -212 q 136 -228 113 -228 q 209 -199 179 -228 q 274 -89 239 -169 l 308 -8 l 8 721 l 144 721 l 371 142 l 586 721 z "},"ỵ":{"ha":722,"x_min":1,"x_max":708,"o":"m 586 721 l 708 721 l 371 -131 q 276 -291 326 -243 q 136 -339 226 -339 q 1 -296 51 -339 l 49 -200 q 88 -220 64 -212 q 136 -228 113 -228 q 209 -199 179 -228 q 274 -89 239 -169 l 308 -8 l 8 721 l 144 721 l 371 142 l 586 721 m 578 -100 q 634 -124 611 -100 q 657 -181 657 -147 q 633 -237 657 -212 q 578 -261 610 -261 q 523 -237 546 -261 q 500 -181 500 -212 q 523 -124 500 -149 q 578 -100 546 -100 z "},"ỳ":{"ha":722,"x_min":1,"x_max":708,"o":"m 313 1038 l 426 824 l 322 824 l 182 1038 l 313 1038 m 586 721 l 708 721 l 371 -131 q 276 -291 326 -243 q 136 -339 226 -339 q 1 -296 51 -339 l 49 -200 q 88 -220 64 -212 q 136 -228 113 -228 q 209 -199 179 -228 q 274 -89 239 -169 l 308 -8 l 8 721 l 144 721 l 371 142 l 586 721 z "},"ỷ":{"ha":722,"x_min":1,"x_max":708,"o":"m 328 983 q 256 961 293 983 l 240 1039 q 347 1067 285 1067 q 451 1036 410 1067 q 492 946 492 1006 q 358 796 492 842 l 308 861 q 369 893 349 876 q 390 933 390 910 q 373 969 390 956 q 328 983 356 983 m 586 721 l 708 721 l 371 -131 q 276 -291 326 -243 q 136 -339 226 -339 q 1 -296 51 -339 l 49 -200 q 88 -220 64 -212 q 136 -228 113 -228 q 209 -199 179 -228 q 274 -89 239 -169 l 308 -8 l 8 721 l 144 721 l 371 142 l 586 721 z "},"ỹ":{"ha":722,"x_min":1,"x_max":708,"o":"m 285 925 q 233 851 244 925 l 136 851 q 178 979 139 931 q 279 1028 217 1028 q 342 1013 318 1028 q 392 971 365 999 q 421 944 410 953 q 446 936 432 936 q 480 957 467 936 q 497 1010 493 978 l 594 1010 q 553 882 592 931 q 451 833 514 833 q 389 848 413 833 q 339 890 365 863 q 310 917 321 908 q 285 925 299 925 m 586 721 l 708 721 l 371 -131 q 276 -291 326 -243 q 136 -339 226 -339 q 1 -296 51 -339 l 49 -200 q 88 -220 64 -212 q 136 -228 113 -228 q 209 -199 179 -228 q 274 -89 239 -169 l 308 -8 l 8 721 l 144 721 l 371 142 l 586 721 z "},"z":{"ha":658,"x_min":46,"x_max":611,"o":"m 596 721 l 596 658 l 210 100 l 611 100 l 611 0 l 46 0 l 46 64 l 435 621 l 69 621 l 69 721 l 596 721 z "},"ź":{"ha":658,"x_min":46,"x_max":611,"o":"m 272 824 l 386 1038 l 517 1038 l 376 824 l 272 824 m 596 721 l 596 658 l 210 100 l 611 100 l 611 0 l 46 0 l 46 64 l 435 621 l 79 621 l 79 721 l 596 721 z "},"ž":{"ha":658,"x_min":46,"x_max":611,"o":"m 238 1038 l 333 908 l 428 1038 l 547 1038 l 388 824 l 278 824 l 118 1038 l 238 1038 m 596 721 l 596 658 l 210 100 l 611 100 l 611 0 l 46 0 l 46 64 l 435 621 l 79 621 l 79 721 l 596 721 z "},"ż":{"ha":658,"x_min":46,"x_max":611,"o":"m 333 850 q 278 874 301 850 q 256 931 256 899 q 278 987 256 963 q 333 1011 301 1011 q 390 988 367 1011 q 413 931 413 964 q 389 874 413 899 q 333 850 365 850 m 596 721 l 596 658 l 210 100 l 611 100 l 611 0 l 46 0 l 46 64 l 435 621 l 79 621 l 79 721 l 596 721 z "},"ª":{"ha":564,"x_min":53,"x_max":488,"o":"m 281 1029 q 430 971 372 1029 q 488 810 488 913 l 488 486 l 403 486 q 399 543 403 514 q 334 492 374 510 q 246 475 294 475 q 109 519 165 475 q 53 640 53 563 q 117 764 53 718 q 281 810 181 810 q 392 796 336 810 q 365 910 392 874 q 275 946 339 946 q 199 926 231 946 q 146 865 168 906 l 75 906 q 156 996 100 963 q 281 1029 211 1029 m 254 554 q 351 588 310 554 q 392 682 392 621 l 392 724 q 288 736 333 736 q 190 711 224 736 q 157 640 157 686 q 184 576 157 599 q 254 554 211 554 z "},"º":{"ha":599,"x_min":46,"x_max":553,"o":"m 46 751 q 81 898 46 835 q 174 995 115 961 q 300 1029 232 1029 q 426 995 368 1029 q 518 898 483 961 q 553 751 553 835 q 518 606 553 668 q 426 509 483 543 q 300 475 368 475 q 174 509 232 475 q 81 606 115 543 q 46 751 46 668 m 150 751 q 192 610 150 663 q 300 558 235 558 q 407 610 365 558 q 449 751 449 663 q 406 894 449 842 q 300 946 364 946 q 192 894 235 946 q 150 751 150 842 z "},"ⁿ":{"ha":600,"x_min":81,"x_max":524,"o":"m 333 1029 q 472 974 419 1029 q 524 814 524 918 l 524 486 l 428 486 l 428 789 q 311 946 428 946 q 215 906 253 946 q 176 788 176 865 l 176 486 l 81 486 l 81 1017 l 163 1017 q 167 935 163 1014 q 235 1006 192 982 q 333 1029 279 1029 z "},"А":{"ha":922,"x_min":10,"x_max":913,"o":"m 504 1017 l 913 0 l 775 0 l 663 292 l 242 292 l 135 0 l 10 0 l 400 1017 l 504 1017 m 619 403 l 447 851 l 283 403 l 619 403 z "},"Б":{"ha":903,"x_min":121,"x_max":853,"o":"m 485 588 q 758 508 663 588 q 853 292 853 428 q 759 77 853 154 q 485 0 665 0 l 121 0 l 121 1018 l 751 1018 l 751 907 l 244 907 l 244 588 l 485 588 m 461 108 q 656 157 592 108 q 721 292 721 206 q 656 428 721 378 q 461 479 590 479 l 244 479 l 244 108 l 461 108 z "},"В":{"ha":904,"x_min":121,"x_max":853,"o":"m 663 533 q 853 288 853 479 q 760 76 853 151 q 485 0 667 0 l 121 0 l 121 1017 l 442 1017 q 628 983 549 1017 q 750 888 707 950 q 793 742 793 825 q 663 533 793 596 m 244 907 l 244 574 l 419 574 q 598 618 535 574 q 661 742 661 663 q 597 863 661 818 q 419 907 533 907 l 244 907 m 461 108 q 656 156 592 108 q 721 288 721 203 q 656 422 721 374 q 461 471 592 471 l 244 471 l 244 108 l 461 108 z "},"Г":{"ha":761,"x_min":121,"x_max":744,"o":"m 121 1018 l 744 1018 l 744 907 l 244 907 l 244 0 l 121 0 l 121 1018 z "},"Ѓ":{"ha":761,"x_min":121,"x_max":744,"o":"m 383 1119 l 497 1289 l 628 1289 l 488 1119 l 383 1119 m 121 1018 l 744 1018 l 744 907 l 244 907 l 244 0 l 121 0 l 121 1018 z "},"Ґ":{"ha":760,"x_min":121,"x_max":761,"o":"m 121 1018 l 635 1018 l 660 1208 l 761 1208 l 743 907 l 244 907 l 244 0 l 121 0 l 121 1018 z "},"Д":{"ha":1078,"x_min":18,"x_max":1025,"o":"m 913 111 l 1025 111 l 1014 -239 l 913 -239 l 906 0 l 138 0 l 131 -239 l 29 -239 l 18 111 l 75 111 q 179 151 139 111 q 242 276 219 190 q 274 506 264 361 l 306 1017 l 913 1017 l 913 111 m 788 111 l 788 906 l 424 906 l 397 493 q 365 258 389 351 q 296 111 342 164 l 788 111 z "},"Е":{"ha":828,"x_min":121,"x_max":760,"o":"m 692 471 l 244 471 l 244 110 l 760 110 l 760 0 l 121 0 l 121 1018 l 744 1018 l 744 908 l 244 908 l 244 581 l 692 581 l 692 471 z "},"Ѐ":{"ha":828,"x_min":121,"x_max":760,"o":"m 232 1289 l 363 1289 l 476 1125 l 372 1125 l 232 1289 m 692 471 l 244 471 l 244 110 l 760 110 l 760 0 l 121 0 l 121 1018 l 744 1018 l 744 908 l 244 908 l 244 581 l 692 581 l 692 471 z "},"Ё":{"ha":828,"x_min":121,"x_max":760,"o":"m 290 1151 q 235 1172 258 1151 q 213 1221 213 1192 q 235 1269 213 1249 q 290 1289 258 1289 q 347 1269 324 1289 q 369 1221 369 1249 q 347 1172 369 1192 q 290 1151 324 1151 m 575 1151 q 520 1172 543 1151 q 497 1221 497 1192 q 520 1269 497 1249 q 575 1289 543 1289 q 631 1269 608 1289 q 654 1221 654 1249 q 631 1172 654 1192 q 575 1151 608 1151 m 692 471 l 244 471 l 244 110 l 760 110 l 760 0 l 121 0 l 121 1018 l 744 1018 l 744 908 l 244 908 l 244 581 l 692 581 l 692 471 z "},"Ж":{"ha":1411,"x_min":3,"x_max":1407,"o":"m 1025 522 l 1407 0 l 1240 0 l 913 464 l 767 464 l 767 0 l 643 0 l 643 464 l 493 464 l 165 0 l 3 0 l 385 522 l 28 1017 l 178 1017 l 496 575 l 643 575 l 643 1017 l 767 1017 l 767 575 l 919 575 l 1238 1017 l 1382 1017 l 1025 522 z "},"З":{"ha":808,"x_min":40,"x_max":750,"o":"m 549 543 q 700 447 650 514 q 750 286 750 379 q 707 128 750 196 q 583 22 664 60 q 394 -15 503 -15 q 171 42 264 -15 q 40 217 78 99 l 140 274 q 238 140 171 183 q 394 97 304 97 q 558 149 497 97 q 618 288 618 201 q 549 426 618 376 q 340 475 481 475 l 297 475 l 299 586 l 347 586 q 516 637 461 586 q 571 763 571 688 q 519 878 571 835 q 386 922 468 922 q 156 743 225 922 l 56 800 q 183 976 96 918 q 393 1035 269 1035 q 560 1000 490 1035 q 667 905 631 965 q 703 769 703 844 q 666 635 703 696 q 549 543 629 575 z "},"И":{"ha":1028,"x_min":121,"x_max":907,"o":"m 803 1018 l 907 1018 l 907 1 l 790 1 l 790 803 l 225 1 l 121 1 l 121 1018 l 238 1018 l 238 217 l 803 1018 z "},"Й":{"ha":1028,"x_min":121,"x_max":907,"o":"m 514 1126 q 359 1169 415 1126 q 303 1289 303 1213 l 411 1289 q 440 1220 414 1244 q 514 1196 467 1196 q 589 1220 563 1196 q 618 1289 615 1244 l 726 1289 q 670 1169 726 1213 q 514 1126 614 1126 m 803 1018 l 907 1018 l 907 1 l 790 1 l 790 803 l 225 1 l 121 1 l 121 1018 l 238 1018 l 238 217 l 803 1018 z "},"Ѝ":{"ha":1028,"x_min":121,"x_max":907,"o":"m 331 1289 l 461 1289 l 575 1119 l 471 1119 l 331 1289 m 803 1018 l 907 1018 l 907 1 l 790 1 l 790 803 l 225 1 l 121 1 l 121 1018 l 238 1018 l 238 217 l 803 1018 z "},"К":{"ha":919,"x_min":121,"x_max":915,"o":"m 504 522 l 915 0 l 747 0 l 393 464 l 244 464 l 244 0 l 121 0 l 121 1017 l 244 1017 l 244 575 l 401 575 l 744 1017 l 890 1017 l 504 522 z "},"Ќ":{"ha":919,"x_min":121,"x_max":915,"o":"m 433 1126 l 547 1289 l 678 1289 l 538 1126 l 433 1126 m 504 522 l 915 0 l 747 0 l 393 464 l 244 464 l 244 0 l 121 0 l 121 1017 l 244 1017 l 244 575 l 401 575 l 744 1017 l 890 1017 l 504 522 z "},"Л":{"ha":1025,"x_min":28,"x_max":904,"o":"m 904 1017 l 904 0 l 779 0 l 779 906 l 342 906 l 319 336 q 286 125 314 200 q 197 17 258 50 q 28 -15 136 -15 l 28 99 q 126 122 92 99 q 175 197 160 144 q 194 349 190 250 l 221 1017 l 904 1017 z "},"М":{"ha":1200,"x_min":121,"x_max":1079,"o":"m 978 1017 l 1079 1017 l 1079 0 l 958 0 l 958 775 l 638 263 l 564 263 l 240 778 l 240 0 l 121 0 l 121 1017 l 229 1017 l 604 413 l 978 1017 z "},"Н":{"ha":1035,"x_min":121,"x_max":914,"o":"m 244 583 l 789 583 l 789 1017 l 914 1017 l 914 0 l 789 0 l 789 472 l 244 472 l 244 0 l 121 0 l 121 1017 l 244 1017 l 244 583 z "},"О":{"ha":1060,"x_min":69,"x_max":989,"o":"m 69 510 q 129 786 69 667 q 294 969 189 906 q 529 1033 399 1033 q 765 969 660 1033 q 929 785 869 904 q 989 510 989 667 q 928 233 989 351 q 764 49 868 114 q 529 -15 660 -15 q 294 49 399 -15 q 129 232 189 113 q 69 510 69 351 m 200 510 q 240 296 200 389 q 354 151 279 203 q 529 99 429 99 q 703 151 629 99 q 817 296 778 203 q 857 510 857 389 q 817 725 857 632 q 702 869 776 818 q 529 921 628 921 q 355 869 429 921 q 240 725 281 818 q 200 510 200 632 z "},"П":{"ha":1031,"x_min":121,"x_max":910,"o":"m 121 1017 l 910 1017 l 910 0 l 785 0 l 785 906 l 244 906 l 244 0 l 121 0 l 121 1017 z "},"Р":{"ha":825,"x_min":121,"x_max":790,"o":"m 433 1017 q 617 976 536 1017 q 744 865 699 936 q 790 701 790 793 q 745 538 790 610 q 619 427 700 467 q 433 388 538 388 l 244 388 l 244 0 l 121 0 l 121 1017 l 433 1017 m 417 496 q 595 553 533 496 q 657 701 657 611 q 595 850 657 792 q 417 908 533 908 l 244 908 l 244 496 l 417 496 z "},"С":{"ha":904,"x_min":69,"x_max":874,"o":"m 529 99 q 774 253 696 99 l 874 194 q 740 40 831 96 q 532 -15 650 -15 q 297 51 403 -15 q 131 238 192 118 q 69 510 69 357 q 131 782 69 663 q 297 967 192 901 q 532 1033 403 1033 q 740 978 650 1033 q 874 824 831 922 l 774 765 q 529 919 696 919 q 357 868 432 919 q 241 724 282 817 q 200 510 200 631 q 241 295 200 389 q 357 150 282 201 q 529 99 432 99 z "},"Т":{"ha":790,"x_min":17,"x_max":774,"o":"m 17 1017 l 774 1017 l 774 907 l 457 907 l 457 0 l 332 0 l 332 907 l 17 907 l 17 1017 z "},"У":{"ha":856,"x_min":10,"x_max":846,"o":"m 446 425 l 714 1018 l 846 1018 l 496 279 q 345 51 419 118 q 174 -15 271 -15 q 57 17 100 -15 l 57 132 q 169 99 106 99 q 244 115 213 99 q 308 172 276 132 q 381 289 340 213 l 10 1018 l 154 1018 l 446 425 z "},"Ў":{"ha":856,"x_min":10,"x_max":846,"o":"m 435 1126 q 280 1169 336 1126 q 224 1289 224 1213 l 332 1289 q 361 1220 335 1244 q 435 1196 388 1196 q 510 1220 483 1196 q 539 1289 536 1244 l 647 1289 q 591 1169 647 1213 q 435 1126 535 1126 m 446 425 l 714 1018 l 846 1018 l 496 279 q 345 51 419 118 q 174 -15 271 -15 q 57 17 100 -15 l 57 132 q 169 99 106 99 q 244 115 213 99 q 308 172 276 132 q 381 289 340 213 l 10 1018 l 154 1018 l 446 425 z "},"Ф":{"ha":1111,"x_min":53,"x_max":1058,"o":"m 1058 510 q 999 308 1058 394 q 840 172 940 221 q 618 111 740 122 l 618 0 l 494 0 l 494 111 q 271 170 371 121 q 112 306 171 219 q 53 510 53 393 q 112 713 53 626 q 271 848 171 799 q 494 907 371 897 l 494 1017 l 618 1017 l 618 907 q 840 847 740 896 q 999 711 940 797 q 1058 510 1058 625 m 183 510 q 268 308 183 379 q 494 225 353 238 l 494 794 q 268 711 353 782 q 183 510 183 640 m 618 225 q 842 308 758 238 q 926 510 926 379 q 842 711 926 640 q 618 794 758 782 l 618 225 z "},"Х":{"ha":914,"x_min":17,"x_max":897,"o":"m 888 1017 l 528 515 l 897 0 l 746 0 l 451 415 l 160 0 l 17 0 l 386 514 l 26 1017 l 179 1017 l 463 613 l 744 1017 l 888 1017 z "},"Ч":{"ha":917,"x_min":65,"x_max":796,"o":"m 671 1017 l 796 1017 l 796 0 l 671 0 l 671 472 q 554 385 625 414 q 397 357 483 357 q 156 438 247 357 q 65 683 65 519 l 65 1017 l 189 1017 l 189 711 q 243 530 189 589 q 407 471 297 471 q 595 531 519 471 q 671 713 671 590 l 671 1017 z "},"Ц":{"ha":1075,"x_min":121,"x_max":1022,"o":"m 910 1017 l 910 111 l 1022 111 l 1011 -239 l 910 -239 l 903 0 l 121 0 l 121 1017 l 244 1017 l 244 111 l 785 111 l 785 1017 l 910 1017 z "},"Ш":{"ha":1393,"x_min":121,"x_max":1272,"o":"m 760 111 l 1149 111 l 1149 1017 l 1272 1017 l 1272 0 l 121 0 l 121 1017 l 244 1017 l 244 111 l 635 111 l 633 1017 l 758 1017 l 760 111 z "},"Щ":{"ha":1432,"x_min":121,"x_max":1372,"o":"m 1147 1017 l 1272 1017 l 1272 111 l 1372 111 l 1361 -239 l 1260 -239 l 1253 0 l 121 0 l 121 1017 l 244 1017 l 244 111 l 635 111 l 633 1017 l 758 1017 l 760 111 l 1147 111 l 1147 1017 z "},"Џ":{"ha":1031,"x_min":121,"x_max":910,"o":"m 244 111 l 785 111 l 785 1017 l 910 1017 l 910 0 l 574 0 l 567 -239 l 465 -239 l 458 0 l 121 0 l 121 1017 l 244 1017 l 244 111 z "},"Ь":{"ha":897,"x_min":121,"x_max":853,"o":"m 485 588 q 758 508 663 588 q 853 292 853 428 q 759 77 853 154 q 485 0 665 0 l 121 0 l 121 1018 l 244 1018 l 244 588 l 485 588 m 461 108 q 656 157 592 108 q 721 292 721 206 q 656 428 721 378 q 461 479 590 479 l 244 479 l 244 108 l 461 108 z "},"Ъ":{"ha":1074,"x_min":17,"x_max":1029,"o":"m 661 588 q 934 508 839 588 q 1029 292 1029 428 q 935 77 1029 154 q 661 0 842 0 l 297 0 l 297 907 l 17 907 l 17 1018 l 421 1018 l 421 588 l 661 588 m 638 108 q 833 157 768 108 q 897 292 897 206 q 832 428 897 378 q 638 479 767 479 l 421 479 l 421 108 l 638 108 z "},"Ы":{"ha":1240,"x_min":121,"x_max":1119,"o":"m 485 588 q 758 508 663 588 q 853 292 853 428 q 759 77 853 154 q 485 0 665 0 l 121 0 l 121 1018 l 244 1018 l 244 588 l 485 588 m 1119 0 l 996 0 l 996 1018 l 1119 1018 l 1119 0 m 461 108 q 656 157 592 108 q 721 292 721 206 q 656 428 721 378 q 461 479 590 479 l 244 479 l 244 108 l 461 108 z "},"Љ":{"ha":1558,"x_min":28,"x_max":1514,"o":"m 1146 588 q 1419 508 1324 588 q 1514 292 1514 428 q 1420 77 1514 154 q 1146 0 1326 0 l 782 0 l 782 906 l 342 906 l 319 328 q 286 122 314 196 q 197 17 258 49 q 28 -15 136 -15 l 28 99 q 126 122 92 99 q 175 195 160 144 q 194 340 190 246 l 221 1017 l 906 1018 l 906 588 l 1146 588 m 1122 108 q 1317 157 1253 108 q 1382 292 1382 206 q 1317 428 1382 378 q 1122 479 1251 479 l 906 479 l 906 108 l 1122 108 z "},"Њ":{"ha":1567,"x_min":121,"x_max":1522,"o":"m 1154 583 q 1428 505 1333 583 q 1522 290 1522 426 q 1428 76 1522 153 q 1154 0 1335 0 l 789 0 l 789 472 l 244 472 l 244 0 l 121 0 l 121 1017 l 244 1017 l 244 583 l 789 583 l 789 1017 l 914 1017 l 914 583 l 1154 583 m 1131 108 q 1326 157 1261 108 q 1390 290 1390 206 q 1326 426 1390 376 q 1131 475 1261 475 l 914 475 l 914 108 l 1131 108 z "},"Ѕ":{"ha":796,"x_min":24,"x_max":760,"o":"m 760 276 q 719 126 760 192 q 601 22 678 60 q 417 -15 524 -15 q 163 54 268 -15 q 24 239 57 124 l 124 297 q 235 150 161 201 q 418 99 308 99 q 572 142 518 99 q 626 261 626 185 q 592 361 626 322 q 508 422 558 400 q 371 472 458 444 q 211 532 271 504 q 109 614 151 560 q 67 754 67 668 q 111 905 67 842 q 234 1001 156 968 q 410 1033 313 1033 q 630 974 546 1033 q 743 822 714 914 l 643 764 q 555 879 611 838 q 406 921 499 921 q 255 879 311 921 q 199 765 199 838 q 231 678 199 713 q 310 622 263 643 q 440 575 357 601 q 606 513 543 543 q 715 426 669 483 q 760 276 760 368 z "},"Є":{"ha":892,"x_min":69,"x_max":874,"o":"m 529 99 q 774 253 696 99 l 874 194 q 740 40 831 96 q 532 -15 650 -15 q 297 51 403 -15 q 131 238 192 118 q 69 510 69 357 q 131 782 69 663 q 297 967 192 901 q 532 1033 403 1033 q 740 978 650 1033 q 874 824 831 922 l 774 765 q 529 919 696 919 q 370 876 440 919 q 256 756 300 833 q 203 574 213 678 l 632 574 l 632 463 l 201 463 q 253 272 210 354 q 367 144 296 189 q 529 99 438 99 z "},"Э":{"ha":892,"x_min":18,"x_max":822,"o":"m 381 1033 q 617 968 517 1033 q 769 784 717 903 q 822 510 822 665 q 769 234 822 353 q 617 50 717 115 q 381 -15 517 -15 q 157 40 253 -15 q 18 194 61 96 l 118 253 q 221 140 156 181 q 378 99 286 99 q 600 197 519 99 q 690 463 681 294 l 260 463 l 260 574 l 689 574 q 597 826 676 733 q 378 919 517 919 q 221 878 286 919 q 118 765 156 838 l 18 824 q 157 978 61 922 q 381 1033 253 1033 z "},"І":{"ha":365,"x_min":121,"x_max":244,"o":"m 244 0 l 121 0 l 121 1017 l 244 1017 l 244 0 z "},"Ї":{"ha":365,"x_min":-37,"x_max":404,"o":"m 40 1151 q -15 1172 8 1151 q -37 1221 -37 1192 q -15 1269 -37 1249 q 40 1289 8 1289 q 97 1269 74 1289 q 119 1221 119 1249 q 97 1172 119 1192 q 40 1151 74 1151 m 325 1151 q 270 1172 293 1151 q 247 1221 247 1192 q 270 1269 247 1249 q 325 1289 293 1289 q 381 1269 358 1289 q 404 1221 404 1249 q 381 1172 404 1192 q 325 1151 358 1151 m 244 0 l 121 0 l 121 1017 l 244 1017 l 244 0 z "},"Ј":{"ha":635,"x_min":0,"x_max":524,"o":"m 250 -15 q 90 29 158 -15 q 0 165 22 74 l 97 222 q 250 99 132 99 q 363 154 328 99 q 399 317 399 210 l 399 1017 l 524 1017 l 524 304 q 447 62 524 139 q 250 -15 371 -15 z "},"Ћ":{"ha":1128,"x_min":17,"x_max":1063,"o":"m 731 643 q 972 562 881 643 q 1063 317 1063 481 l 1063 0 l 939 0 l 939 289 q 887 470 939 411 q 725 529 835 529 q 535 469 613 529 q 457 288 457 410 l 457 0 l 332 0 l 332 907 l 17 907 l 17 1017 l 774 1017 l 774 907 l 457 907 l 457 528 q 574 615 503 586 q 731 643 644 643 z "},"Ю":{"ha":1378,"x_min":121,"x_max":1307,"o":"m 878 1033 q 1098 971 1000 1033 q 1251 790 1196 908 q 1307 510 1307 672 q 1251 228 1307 347 q 1097 47 1194 110 q 878 -15 1000 -15 q 665 42 760 -15 q 514 210 571 100 q 451 472 457 319 l 244 472 l 244 0 l 121 0 l 121 1017 l 244 1017 l 244 583 l 453 583 q 523 826 465 724 q 673 981 581 928 q 878 1033 765 1033 m 878 99 q 1036 149 969 99 q 1139 291 1103 199 q 1175 510 1175 383 q 1139 729 1175 636 q 1035 872 1103 822 q 878 921 968 921 q 720 872 788 921 q 617 729 653 822 q 581 510 581 636 q 660 209 581 319 q 878 99 739 99 z "}}}
